<svg width="409" height="392" viewBox="0 0 409 392" fill="none" xmlns="http://www.w3.org/2000/svg">
<path d="M112.269 279.893C127.794 302.716 139.438 324.297 138.119 350.651C137.304 364.935 138.39 383.643 128.105 390.28C119.799 395.598 105.127 382.013 94.2205 375.182C17.6026 327.091 -17.7177 228.97 10.3057 142.997C23.9889 99.6084 51.8451 62.0714 89.4079 36.4045C126.971 10.7376 172.064 -1.57235 217.458 1.44828C262.852 4.46891 305.917 22.6452 339.748 53.0628C373.579 83.4804 396.216 124.377 404.03 169.196C418.818 257.149 377.249 342.423 299.467 383.604C280.06 393.968 275.674 392.26 267.795 371.067C259.916 349.875 261.08 348.206 282.738 348.633C304.396 349.06 307.074 345.994 306.026 323.908C305.56 313.235 312.896 301.319 301.485 292.236C315.302 285.172 306.453 262.854 324.424 258.429C337.387 255.208 340.997 247.018 334.166 235.607C322.987 216.976 320.348 196.444 317.981 175.445C312.159 123.551 268.222 79.73 216.483 73.1704C163.658 66.4944 112.269 94.6734 93.0173 140.901C93.0173 140.901 61.3843 218.296 112.269 279.893Z" stroke="#02D7FF" stroke-width="0.486902" stroke-miterlimit="10"/>
<path d="M200.259 132.206C195.974 132.188 191.792 133.521 188.308 136.015C184.824 138.51 182.215 142.039 180.852 146.102H81.1401V159.104H181.007C182.205 162.651 184.357 165.8 187.227 168.204C190.097 170.608 193.573 172.175 197.275 172.733C200.977 173.291 204.761 172.819 208.212 171.367C211.663 169.916 214.647 167.542 216.838 164.506C219.028 161.47 220.34 157.889 220.629 154.157C220.918 150.424 220.174 146.684 218.477 143.347C216.78 140.01 214.197 137.205 211.01 135.24C207.824 133.274 204.158 132.225 200.414 132.206H200.259ZM200.259 160.696C198.654 160.696 197.086 160.22 195.752 159.329C194.418 158.437 193.378 157.17 192.764 155.688C192.15 154.206 191.99 152.575 192.303 151.001C192.616 149.427 193.388 147.982 194.523 146.847C195.657 145.713 197.103 144.94 198.676 144.627C200.25 144.314 201.881 144.475 203.363 145.089C204.846 145.703 206.112 146.743 207.004 148.077C207.895 149.411 208.371 150.979 208.371 152.584C208.371 154.735 207.516 156.798 205.995 158.32C204.474 159.841 202.41 160.696 200.259 160.696Z" stroke="#02D7FF" stroke-width="0.486902" stroke-miterlimit="10"/>
<path d="M215.59 249.618C211.301 249.603 207.115 250.941 203.631 253.443C200.146 255.945 197.54 259.483 196.184 263.553H96.4717V276.516H196.339C197.537 280.063 199.689 283.212 202.559 285.616C205.428 288.02 208.905 289.587 212.607 290.145C216.309 290.703 220.093 290.231 223.544 288.779C226.994 287.328 229.979 284.954 232.169 281.918C234.36 278.882 235.672 275.302 235.961 271.569C236.25 267.836 235.505 264.097 233.808 260.759C232.111 257.422 229.528 254.617 226.342 252.652C223.155 250.686 219.489 249.637 215.746 249.618H215.59ZM215.59 278.108C213.994 278.108 212.433 277.634 211.105 276.747C209.778 275.86 208.743 274.599 208.132 273.124C207.521 271.649 207.361 270.026 207.672 268.459C207.984 266.893 208.753 265.455 209.882 264.326C211.011 263.197 212.449 262.428 214.015 262.116C215.581 261.805 217.205 261.965 218.68 262.576C220.155 263.187 221.416 264.222 222.303 265.549C223.19 266.877 223.664 268.438 223.664 270.034C223.69 271.111 223.5 272.182 223.106 273.184C222.712 274.186 222.121 275.099 221.369 275.869C220.616 276.639 219.718 277.252 218.725 277.669C217.733 278.087 216.667 278.302 215.59 278.302V278.108Z" stroke="#02D7FF" stroke-width="0.486902" stroke-miterlimit="10"/>
<path d="M163.037 210.494C158.748 210.458 154.558 211.784 151.07 214.281C147.583 216.778 144.978 220.318 143.63 224.39H79.355V237.392H143.824C145.028 240.925 147.18 244.058 150.046 246.449C152.911 248.84 156.38 250.396 160.071 250.948C163.761 251.499 167.533 251.024 170.972 249.575C174.411 248.126 177.385 245.759 179.569 242.733C181.753 239.706 183.061 236.137 183.352 232.417C183.643 228.696 182.904 224.967 181.217 221.638C179.53 218.309 176.96 215.509 173.787 213.543C170.615 211.578 166.963 210.523 163.231 210.494H163.037ZM163.037 238.984C161.433 238.984 159.864 238.508 158.53 237.617C157.196 236.725 156.156 235.458 155.542 233.976C154.928 232.494 154.768 230.863 155.081 229.289C155.394 227.715 156.166 226.27 157.301 225.136C158.435 224.001 159.881 223.228 161.454 222.915C163.028 222.602 164.659 222.763 166.141 223.377C167.624 223.991 168.891 225.031 169.782 226.365C170.673 227.699 171.149 229.267 171.149 230.872C171.149 233.023 170.294 235.086 168.773 236.608C167.252 238.129 165.188 238.984 163.037 238.984Z" stroke="#02D7FF" stroke-width="0.486902" stroke-miterlimit="10"/>
<path d="M282.311 171.331C278.02 171.31 273.832 172.646 270.346 175.149C266.86 177.651 264.255 181.193 262.904 185.266H71.5923V198.229H263.059C264.263 201.762 266.416 204.895 269.281 207.286C272.147 209.677 275.615 211.233 279.306 211.784C282.997 212.336 286.768 211.861 290.207 210.412C293.646 208.963 296.621 206.596 298.804 203.569C300.988 200.543 302.297 196.974 302.587 193.253C302.878 189.533 302.139 185.804 300.452 182.475C298.765 179.146 296.195 176.346 293.022 174.38C289.85 172.415 286.198 171.36 282.466 171.331H282.311ZM282.311 199.821C280.714 199.821 279.153 199.347 277.826 198.46C276.498 197.573 275.463 196.312 274.852 194.837C274.241 193.362 274.081 191.739 274.393 190.172C274.704 188.606 275.473 187.168 276.602 186.039C277.731 184.91 279.17 184.141 280.736 183.829C282.302 183.518 283.925 183.678 285.4 184.289C286.876 184.9 288.137 185.934 289.024 187.262C289.911 188.59 290.384 190.151 290.384 191.747C290.384 193.889 289.534 195.942 288.02 197.456C286.506 198.97 284.452 199.821 282.311 199.821V199.821Z" stroke="#02D7FF" stroke-width="0.486902" stroke-miterlimit="10"/>
<path d="M113.899 279.893C129.424 302.716 141.068 324.297 139.749 350.651C138.934 364.935 140.02 383.643 129.735 390.28C121.429 395.598 106.757 382.013 95.8506 375.182C19.2327 327.091 -16.0876 228.97 11.9358 142.997C25.619 99.6084 53.4752 62.0714 91.0381 36.4045C128.601 10.7376 173.694 -1.57236 219.088 1.44828C264.483 4.46891 307.547 22.6452 341.378 53.0628C375.209 83.4804 397.846 124.377 405.66 169.196C420.448 257.149 378.879 342.423 301.097 383.604C281.69 393.968 277.304 392.26 269.425 371.067C261.546 349.875 262.71 348.206 284.368 348.633C306.026 349.06 308.704 345.994 307.656 323.909C307.152 313.235 314.526 301.319 303.115 292.236C316.932 285.172 308.083 262.854 326.054 258.429C339.017 255.208 342.627 247.018 335.796 235.607C324.618 216.976 321.939 196.444 319.611 175.445C313.789 123.551 269.852 79.73 218.113 73.1704C165.288 66.4944 113.899 94.6734 94.6474 140.901C94.6474 140.901 63.0144 218.296 113.899 279.893Z" fill="#6277EE"/>
<path d="M201.889 132.206C197.604 132.188 193.422 133.521 189.938 136.015C186.454 138.51 183.845 142.039 182.482 146.102H82.7704V159.104H182.638C183.836 162.651 185.988 165.8 188.857 168.204C191.727 170.608 195.204 172.175 198.905 172.733C202.607 173.291 206.391 172.819 209.842 171.367C213.293 169.916 216.278 167.542 218.468 164.506C220.659 161.47 221.97 157.889 222.259 154.157C222.548 150.424 221.804 146.684 220.107 143.347C218.41 140.01 215.827 137.205 212.64 135.24C209.454 133.274 205.788 132.225 202.044 132.206H201.889ZM201.889 160.696C200.285 160.696 198.716 160.22 197.382 159.329C196.048 158.437 195.009 157.17 194.395 155.688C193.781 154.206 193.62 152.575 193.933 151.001C194.246 149.427 195.019 147.982 196.153 146.847C197.288 145.713 198.733 144.94 200.307 144.627C201.88 144.314 203.511 144.475 204.993 145.089C206.476 145.703 207.743 146.743 208.634 148.077C209.525 149.411 210.001 150.979 210.001 152.584C210.001 154.735 209.146 156.798 207.625 158.32C206.104 159.841 204.041 160.696 201.889 160.696Z" fill="#6277EE"/>
<path d="M217.221 249.618C212.93 249.597 208.742 250.933 205.256 253.436C201.77 255.938 199.165 259.48 197.814 263.553H98.1021V276.517H197.969C199.173 280.049 201.325 283.182 204.191 285.573C207.056 287.964 210.525 289.52 214.216 290.072C217.906 290.623 221.678 290.148 225.117 288.699C228.556 287.25 231.53 284.883 233.714 281.857C235.898 278.83 237.206 275.261 237.497 271.541C237.788 267.82 237.049 264.091 235.362 260.762C233.675 257.433 231.105 254.633 227.932 252.667C224.76 250.702 221.108 249.647 217.376 249.618H217.221ZM217.221 278.108C215.624 278.108 214.063 277.634 212.736 276.747C211.408 275.86 210.373 274.599 209.762 273.124C209.151 271.649 208.991 270.026 209.303 268.46C209.614 266.893 210.383 265.455 211.512 264.326C212.641 263.197 214.08 262.428 215.646 262.116C217.212 261.805 218.835 261.965 220.31 262.576C221.785 263.187 223.046 264.222 223.933 265.549C224.821 266.877 225.294 268.438 225.294 270.035C225.32 271.111 225.13 272.182 224.736 273.184C224.342 274.186 223.751 275.099 222.999 275.869C222.247 276.639 221.348 277.252 220.356 277.669C219.363 278.087 218.298 278.302 217.221 278.302V278.108Z" fill="#6277EE"/>
<path d="M164.667 210.494C160.382 210.476 156.2 211.809 152.716 214.303C149.232 216.798 146.623 220.327 145.26 224.39H80.9849V237.392H145.415C146.613 240.939 148.765 244.087 151.635 246.492C154.505 248.896 157.981 250.463 161.683 251.021C165.385 251.579 169.169 251.107 172.62 249.655C176.071 248.204 179.055 245.83 181.246 242.794C183.436 239.758 184.748 236.178 185.037 232.445C185.326 228.712 184.581 224.972 182.885 221.635C181.188 218.298 178.605 215.493 175.418 213.528C172.232 211.563 168.566 210.513 164.822 210.494H164.667ZM164.667 238.984C163.062 238.984 161.494 238.508 160.16 237.617C158.826 236.725 157.786 235.458 157.172 233.976C156.558 232.494 156.398 230.863 156.711 229.289C157.024 227.715 157.796 226.27 158.931 225.136C160.065 224.001 161.511 223.228 163.084 222.915C164.658 222.602 166.289 222.763 167.771 223.377C169.254 223.991 170.52 225.031 171.412 226.365C172.303 227.699 172.779 229.267 172.779 230.872C172.779 233.023 171.924 235.086 170.403 236.608C168.882 238.129 166.818 238.984 164.667 238.984Z" fill="#6277EE"/>
<path d="M283.98 171.331C279.702 171.295 275.521 172.612 272.036 175.093C268.551 177.575 265.939 181.094 264.573 185.149H73.2222V198.112H264.573C265.779 201.653 267.938 204.792 270.813 207.185C273.688 209.578 277.167 211.131 280.867 211.675C284.567 212.219 288.346 211.732 291.788 210.267C295.229 208.803 298.2 206.418 300.374 203.374C302.548 200.331 303.841 196.747 304.11 193.016C304.379 189.286 303.614 185.553 301.9 182.229C300.185 178.905 297.587 176.118 294.391 174.175C291.196 172.232 287.526 171.207 283.786 171.214L283.98 171.331ZM283.98 199.82C282.385 199.813 280.828 199.333 279.505 198.441C278.183 197.549 277.154 196.286 276.549 194.81C275.944 193.334 275.789 191.712 276.105 190.148C276.421 188.585 277.193 187.15 278.324 186.025C279.454 184.899 280.893 184.134 282.458 183.826C284.023 183.518 285.644 183.68 287.117 184.292C288.59 184.904 289.848 185.939 290.734 187.266C291.619 188.593 292.092 190.152 292.092 191.747C292.092 192.81 291.882 193.863 291.474 194.845C291.065 195.827 290.467 196.719 289.713 197.469C288.96 198.22 288.065 198.813 287.081 199.217C286.097 199.62 285.043 199.825 283.98 199.82Z" fill="#6277EE"/>
</svg>
