<svg width="370" height="250" viewBox="0 0 370 250" fill="none" xmlns="http://www.w3.org/2000/svg">
<g clip-path="url(#clip0_39_5593)">
<path d="M0 0.09375H370V250.094H0V0.09375Z" fill="#6377EE"/>
<path d="M0 0.09375H370V250.094H0V0.09375Z" fill="#EDF1FE"/>
<path d="M340.909 213.694H28.304V213.85H340.909V213.694Z" fill="#EBEBEB"/>
<path d="M309.586 223.753H288.879V223.91H309.586V223.753Z" fill="#EBEBEB"/>
<path d="M235.386 225.454H229.953V225.61H235.386V225.454Z" fill="#EBEBEB"/>
<path d="M288.254 217.951H276.256V218.107H288.254V217.951Z" fill="#EBEBEB"/>
<path d="M88.1054 219.002H61.1025V219.158H88.1054V219.002Z" fill="#EBEBEB"/>
<path d="M97.6334 219.002H93.6758V219.158H97.6334V219.002Z" fill="#EBEBEB"/>
<path d="M169.07 221.64H110.5V221.796H169.07V221.64Z" fill="#EBEBEB"/>
<path d="M176.479 185.809H55.7568C54.8111 185.808 53.9047 185.431 53.2365 184.762C52.5684 184.092 52.1931 183.185 52.1931 182.239V12.5387C52.2013 11.5984 52.5802 10.6993 53.2475 10.0367C53.9148 9.37416 54.8165 9.00161 55.7568 9H176.479C177.425 9 178.333 9.37612 179.003 10.0456C179.672 10.7151 180.049 11.6231 180.049 12.5699V182.239C180.049 183.186 179.672 184.094 179.003 184.764C178.333 185.433 177.425 185.809 176.479 185.809ZM55.7568 9.12504C54.8525 9.1267 53.9859 9.48708 53.347 10.1271C52.7082 10.7671 52.3494 11.6344 52.3494 12.5387V182.239C52.3494 183.144 52.7082 184.011 53.347 184.651C53.9859 185.291 54.8525 185.651 55.7568 185.653H176.479C177.383 185.651 178.251 185.291 178.891 184.651C179.53 184.012 179.891 183.144 179.892 182.239V12.5387C179.891 11.6338 179.53 10.7665 178.891 10.1267C178.251 9.48688 177.383 9.1267 176.479 9.12504H55.7568Z" fill="#EBEBEB"/>
<path d="M311.718 185.809H190.99C190.044 185.808 189.137 185.431 188.467 184.762C187.798 184.093 187.422 183.186 187.42 182.239V12.5387C187.43 11.5978 187.81 10.6987 188.478 10.0363C189.147 9.37394 190.049 9.00159 190.99 9H311.718C312.657 9.00325 313.557 9.37653 314.223 10.0389C314.889 10.7013 315.267 11.5995 315.275 12.5387V182.239C315.275 183.184 314.901 184.09 314.234 184.759C313.567 185.428 312.663 185.806 311.718 185.809ZM190.99 9.12504C190.085 9.1267 189.218 9.48688 188.578 10.1267C187.938 10.7665 187.578 11.6338 187.576 12.5387V182.239C187.578 183.144 187.938 184.012 188.578 184.651C189.218 185.291 190.085 185.651 190.99 185.653H311.718C312.623 185.651 313.49 185.291 314.13 184.651C314.77 184.012 315.13 183.144 315.132 182.239V12.5387C315.13 11.6338 314.77 10.7665 314.13 10.1267C313.49 9.48688 312.623 9.1267 311.718 9.12504H190.99Z" fill="#EBEBEB"/>
<path d="M139.16 38.3286H79.9713V171.667H139.16V38.3286Z" fill="#F5F5F5"/>
<path d="M136.934 169.16V40.8232H82.2096V169.16H136.934Z" fill="#FAFAFA"/>
<path d="M110.194 40.1855H108.938V170.417H110.194V40.1855Z" fill="#F5F5F5"/>
<path d="M140.529 36.5903H78.6084V42.8674H140.529V36.5903Z" fill="#F5F5F5"/>
<path d="M140.529 43.5615H78.6084V44.3055H140.529V43.5615Z" fill="#F5F5F5"/>
<path d="M140.529 45.2495H78.6084V45.9935H140.529V45.2495Z" fill="#F5F5F5"/>
<path d="M140.529 46.9375H78.6084V47.6815H140.529V46.9375Z" fill="#F5F5F5"/>
<path d="M140.529 48.626H78.6084V49.37H140.529V48.626Z" fill="#F5F5F5"/>
<path d="M140.529 50.3139H78.6083V51.0579H140.529V50.3139Z" fill="#F5F5F5"/>
<path d="M140.529 52.002H78.6083V52.746H140.529V52.002Z" fill="#F5F5F5"/>
<path d="M140.529 53.6899H78.6084V54.4339H140.529V53.6899Z" fill="#F5F5F5"/>
<path d="M140.529 55.378H78.6083V56.122H140.529V55.378Z" fill="#F5F5F5"/>
<path d="M140.529 57.0659H78.6084V57.8099H140.529V57.0659Z" fill="#F5F5F5"/>
<path d="M140.529 58.7544H78.6084V59.4984H140.529V58.7544Z" fill="#F5F5F5"/>
<path d="M140.529 60.4423H78.6083V61.1863H140.529V60.4423Z" fill="#F5F5F5"/>
<path d="M140.529 62.1304H78.6083V62.8744H140.529V62.1304Z" fill="#F5F5F5"/>
<path d="M140.529 63.8183H78.6083V64.5623H140.529V63.8183Z" fill="#F5F5F5"/>
<path d="M140.529 65.5064H78.6083V66.2504H140.529V65.5064Z" fill="#F5F5F5"/>
<path d="M140.529 67.1943H78.6084V67.9383H140.529V67.1943Z" fill="#F5F5F5"/>
<path d="M140.529 68.8828H78.6084V69.6268H140.529V68.8828Z" fill="#F5F5F5"/>
<path d="M140.529 70.5708H78.6084V71.3148H140.529V70.5708Z" fill="#F5F5F5"/>
<path d="M140.529 72.2588H78.6083V73.0028H140.529V72.2588Z" fill="#F5F5F5"/>
<path d="M209.24 38.3286H150.051V171.667H209.24V38.3286Z" fill="#F5F5F5"/>
<path d="M207.008 169.166V40.8296H152.283V169.166H207.008Z" fill="#FAFAFA"/>
<path d="M180.274 40.1855H179.017V170.417H180.274V40.1855Z" fill="#F5F5F5"/>
<path d="M210.609 36.5903H148.688V42.8674H210.609V36.5903Z" fill="#F5F5F5"/>
<path d="M210.609 43.5615H148.688V44.3055H210.609V43.5615Z" fill="#F5F5F5"/>
<path d="M210.609 45.2495H148.688V45.9935H210.609V45.2495Z" fill="#F5F5F5"/>
<path d="M210.609 46.9375H148.688V47.6815H210.609V46.9375Z" fill="#F5F5F5"/>
<path d="M210.609 48.626H148.688V49.37H210.609V48.626Z" fill="#F5F5F5"/>
<path d="M210.609 50.3139H148.688V51.0579H210.609V50.3139Z" fill="#F5F5F5"/>
<path d="M210.609 52.002H148.688V52.746H210.609V52.002Z" fill="#F5F5F5"/>
<path d="M210.609 53.6899H148.688V54.4339H210.609V53.6899Z" fill="#F5F5F5"/>
<path d="M210.609 55.378H148.688V56.122H210.609V55.378Z" fill="#F5F5F5"/>
<path d="M210.609 57.0659H148.688V57.8099H210.609V57.0659Z" fill="#F5F5F5"/>
<path d="M210.609 58.7544H148.688V59.4984H210.609V58.7544Z" fill="#F5F5F5"/>
<path d="M210.609 60.4423H148.688V61.1863H210.609V60.4423Z" fill="#F5F5F5"/>
<path d="M210.609 62.1304H148.688V62.8744H210.609V62.1304Z" fill="#F5F5F5"/>
<path d="M210.609 63.8183H148.688V64.5623H210.609V63.8183Z" fill="#F5F5F5"/>
<path d="M210.609 65.5064H148.688V66.2504H210.609V65.5064Z" fill="#F5F5F5"/>
<path d="M210.609 67.1943H148.688V67.9383H210.609V67.1943Z" fill="#F5F5F5"/>
<path d="M210.609 68.8828H148.688V69.6268H210.609V68.8828Z" fill="#F5F5F5"/>
<path d="M210.609 70.5708H148.688V71.3148H210.609V70.5708Z" fill="#F5F5F5"/>
<path d="M210.609 72.2588H148.688V73.0028H210.609V72.2588Z" fill="#F5F5F5"/>
<path d="M279.319 38.3286H220.131V171.667H279.319V38.3286Z" fill="#F5F5F5"/>
<path d="M277.087 169.166V40.8295H222.363V169.166H277.087Z" fill="#FAFAFA"/>
<path d="M250.353 40.1855H249.097V170.417H250.353V40.1855Z" fill="#F5F5F5"/>
<path d="M280.682 36.5903H218.762V42.8674H280.682V36.5903Z" fill="#F5F5F5"/>
<path d="M280.682 43.5615H218.762V44.3055H280.682V43.5615Z" fill="#F5F5F5"/>
<path d="M280.682 45.2495H218.762V45.9935H280.682V45.2495Z" fill="#F5F5F5"/>
<path d="M280.682 46.9375H218.762V47.6815H280.682V46.9375Z" fill="#F5F5F5"/>
<path d="M280.682 48.626H218.762V49.37H280.682V48.626Z" fill="#F5F5F5"/>
<path d="M280.682 50.3139H218.762V51.0579H280.682V50.3139Z" fill="#F5F5F5"/>
<path d="M280.682 52.002H218.762V52.746H280.682V52.002Z" fill="#F5F5F5"/>
<path d="M280.682 53.6899H218.762V54.4339H280.682V53.6899Z" fill="#F5F5F5"/>
<path d="M280.682 55.378H218.762V56.122H280.682V55.378Z" fill="#F5F5F5"/>
<path d="M280.682 57.0659H218.762V57.8099H280.682V57.0659Z" fill="#F5F5F5"/>
<path d="M280.682 58.7544H218.762V59.4984H280.682V58.7544Z" fill="#F5F5F5"/>
<path d="M280.682 60.4423H218.762V61.1863H280.682V60.4423Z" fill="#F5F5F5"/>
<path d="M280.682 62.1304H218.762V62.8744H280.682V62.1304Z" fill="#F5F5F5"/>
<path d="M280.682 63.8183H218.762V64.5623H280.682V63.8183Z" fill="#F5F5F5"/>
<path d="M280.682 65.5064H218.762V66.2504H280.682V65.5064Z" fill="#F5F5F5"/>
<path d="M280.682 67.1943H218.762V67.9383H280.682V67.1943Z" fill="#F5F5F5"/>
<path d="M280.682 68.8828H218.762V69.6268H280.682V68.8828Z" fill="#F5F5F5"/>
<path d="M280.682 70.5708H218.762V71.3148H280.682V70.5708Z" fill="#F5F5F5"/>
<path d="M280.682 72.2588H218.762V73.0028H280.682V72.2588Z" fill="#F5F5F5"/>
<path d="M122.279 148.059H130.076V147.54C130.076 146.521 128.932 145.708 127.575 145.764L124.524 145.89C123.273 145.94 122.279 146.721 122.279 147.665V148.059Z" fill="#F0F0F0"/>
<path d="M143.968 148.322H154.277L155.922 133.942C155.909 133.682 155.797 133.437 155.608 133.258C155.419 133.079 155.169 132.979 154.909 132.979H148C147.741 132.98 147.493 133.081 147.305 133.26C147.118 133.439 147.007 133.683 146.994 133.942L143.968 148.322Z" fill="#E6E6E6"/>
<path d="M128.225 111.784H130.801L133.695 138.981H131.12C130.908 138.975 130.705 138.894 130.548 138.752C130.391 138.61 130.29 138.416 130.263 138.206L127.537 112.572C127.522 112.474 127.528 112.373 127.555 112.277C127.583 112.181 127.631 112.093 127.697 112.018C127.763 111.942 127.844 111.883 127.935 111.842C128.026 111.802 128.125 111.782 128.225 111.784Z" fill="#E6E6E6"/>
<path d="M132.208 138.981H170.796C170.894 138.983 170.992 138.963 171.082 138.924C171.172 138.884 171.253 138.826 171.318 138.752C171.383 138.678 171.432 138.591 171.461 138.497C171.489 138.403 171.497 138.303 171.483 138.206L168.757 112.572C168.729 112.363 168.628 112.17 168.471 112.028C168.314 111.886 168.112 111.804 167.901 111.797H129.313C129.214 111.795 129.117 111.815 129.026 111.854C128.936 111.894 128.856 111.952 128.79 112.026C128.725 112.1 128.676 112.187 128.648 112.281C128.619 112.375 128.612 112.475 128.625 112.572L131.351 138.206C131.378 138.416 131.479 138.61 131.636 138.752C131.793 138.894 131.996 138.975 132.208 138.981Z" fill="#EBEBEB"/>
<path d="M132.927 136.468H169.314C169.4 136.468 169.486 136.45 169.565 136.416C169.645 136.381 169.716 136.331 169.775 136.267C169.833 136.204 169.878 136.129 169.907 136.047C169.935 135.966 169.946 135.879 169.939 135.793L167.538 113.41C167.515 113.228 167.427 113.059 167.29 112.936C167.154 112.812 166.978 112.741 166.794 112.735H130.407C130.321 112.735 130.235 112.752 130.156 112.787C130.076 112.821 130.005 112.872 129.946 112.935C129.887 112.999 129.843 113.074 129.814 113.155C129.786 113.237 129.775 113.324 129.782 113.41L132.164 135.786C132.185 135.974 132.275 136.147 132.415 136.272C132.556 136.398 132.738 136.468 132.927 136.468Z" fill="#FAFAFA"/>
<path d="M143.568 148.328H156.272C156.576 148.328 156.822 148.082 156.822 147.778V147.759C156.822 147.455 156.576 147.209 156.272 147.209H143.568C143.264 147.209 143.018 147.455 143.018 147.759V147.778C143.018 148.082 143.264 148.328 143.568 148.328Z" fill="#E6E6E6"/>
<path d="M94.2135 152.742H125.624V148.003H94.2135V152.742Z" fill="#E6E6E6"/>
<path d="M181.743 213.443H182.525C182.572 213.442 182.617 213.422 182.651 213.389C182.685 213.355 182.704 213.31 182.706 213.262L183.956 152.748H180.33L181.58 213.262C181.58 213.307 181.597 213.351 181.627 213.384C181.657 213.418 181.698 213.439 181.743 213.443Z" fill="#E6E6E6"/>
<path d="M209.696 213.431H211.509L206.395 152.736H202.775L209.696 213.431Z" fill="#F0F0F0"/>
<path d="M92.9818 213.431L99.9279 152.736H96.3017L91.1875 213.431H92.9818Z" fill="#E6E6E6"/>
<path d="M116.665 152.742H208.496V148.003H116.665V152.742Z" fill="#F5F5F5"/>
<path d="M119.528 213.431H121.61L122.379 152.736H118.759L119.528 213.431Z" fill="#F0F0F0"/>
<path d="M160.742 147.171H161.705C161.753 147.171 161.799 147.152 161.833 147.118C161.867 147.084 161.886 147.038 161.886 146.99V145.921C161.886 145.897 161.882 145.874 161.873 145.852C161.863 145.83 161.85 145.81 161.833 145.793C161.816 145.776 161.796 145.763 161.774 145.754C161.752 145.744 161.729 145.74 161.705 145.74H161.011C160.971 145.74 160.932 145.754 160.9 145.778C160.868 145.803 160.846 145.838 160.836 145.877L160.561 146.89C160.543 146.92 160.534 146.954 160.535 146.989C160.536 147.024 160.546 147.057 160.565 147.087C160.584 147.116 160.61 147.139 160.642 147.154C160.673 147.169 160.708 147.175 160.742 147.171Z" fill="#F5F5F5"/>
<path d="M159.41 147.171H160.373C160.421 147.171 160.467 147.152 160.501 147.118C160.535 147.084 160.555 147.038 160.555 146.99V145.921C160.555 145.897 160.55 145.874 160.541 145.852C160.532 145.83 160.518 145.81 160.501 145.793C160.485 145.776 160.465 145.763 160.443 145.754C160.421 145.744 160.397 145.74 160.373 145.74H159.686C159.644 145.74 159.604 145.753 159.572 145.778C159.539 145.803 159.515 145.838 159.504 145.877L159.235 146.89C159.216 146.919 159.205 146.953 159.204 146.988C159.203 147.023 159.213 147.058 159.231 147.088C159.25 147.117 159.277 147.141 159.309 147.156C159.34 147.171 159.376 147.176 159.41 147.171Z" fill="#F5F5F5"/>
<path d="M158.079 147.172H159.041C159.066 147.172 159.09 147.168 159.113 147.16C159.135 147.151 159.156 147.138 159.174 147.121C159.191 147.104 159.205 147.084 159.215 147.061C159.224 147.039 159.229 147.015 159.229 146.99V145.921C159.229 145.897 159.224 145.873 159.215 145.85C159.205 145.828 159.191 145.808 159.174 145.791C159.156 145.774 159.135 145.761 159.113 145.752C159.09 145.743 159.066 145.739 159.041 145.74H158.347C158.307 145.741 158.267 145.755 158.234 145.779C158.202 145.804 158.178 145.838 158.166 145.877L157.897 146.89C157.877 146.92 157.866 146.955 157.865 146.99C157.865 147.026 157.875 147.061 157.894 147.091C157.914 147.121 157.941 147.145 157.974 147.159C158.007 147.174 158.043 147.178 158.079 147.172Z" fill="#F5F5F5"/>
<path d="M156.753 147.171H157.722C157.77 147.171 157.816 147.152 157.85 147.118C157.884 147.084 157.904 147.038 157.904 146.99V145.921C157.904 145.897 157.899 145.874 157.89 145.852C157.881 145.83 157.867 145.81 157.85 145.793C157.834 145.776 157.814 145.763 157.792 145.754C157.77 145.744 157.746 145.74 157.722 145.74H157.028C156.988 145.74 156.949 145.754 156.917 145.778C156.885 145.803 156.863 145.838 156.853 145.877L156.578 146.89C156.558 146.919 156.548 146.953 156.547 146.988C156.546 147.023 156.556 147.058 156.574 147.088C156.593 147.117 156.62 147.141 156.651 147.156C156.683 147.171 156.718 147.176 156.753 147.171Z" fill="#F5F5F5"/>
<path d="M155.422 147.171H156.384C156.433 147.171 156.479 147.152 156.513 147.118C156.547 147.084 156.566 147.038 156.566 146.99V145.921C156.566 145.897 156.561 145.874 156.552 145.852C156.543 145.83 156.53 145.81 156.513 145.793C156.496 145.776 156.476 145.763 156.454 145.754C156.432 145.744 156.408 145.74 156.384 145.74H155.69C155.65 145.741 155.612 145.755 155.58 145.78C155.549 145.804 155.526 145.839 155.515 145.877L155.247 146.89C155.227 146.919 155.216 146.953 155.215 146.988C155.215 147.023 155.224 147.058 155.243 147.088C155.261 147.117 155.288 147.141 155.32 147.156C155.352 147.171 155.387 147.176 155.422 147.171Z" fill="#F5F5F5"/>
<path d="M154.09 147.172H155.053C155.077 147.172 155.102 147.168 155.124 147.16C155.147 147.151 155.168 147.138 155.185 147.121C155.203 147.104 155.217 147.084 155.226 147.061C155.236 147.039 155.241 147.015 155.24 146.99V145.921C155.241 145.897 155.236 145.873 155.226 145.85C155.217 145.828 155.203 145.808 155.185 145.791C155.168 145.774 155.147 145.761 155.124 145.752C155.102 145.743 155.077 145.739 155.053 145.74H154.365C154.324 145.74 154.284 145.753 154.251 145.778C154.219 145.803 154.195 145.838 154.184 145.877L153.915 146.89C153.895 146.919 153.885 146.953 153.884 146.988C153.883 147.024 153.893 147.058 153.911 147.088C153.93 147.118 153.956 147.141 153.988 147.156C154.02 147.171 154.055 147.176 154.09 147.172Z" fill="#F5F5F5"/>
<path d="M152.765 147.171H153.727C153.776 147.171 153.822 147.152 153.856 147.118C153.89 147.084 153.909 147.038 153.909 146.99V145.921C153.909 145.897 153.904 145.874 153.895 145.852C153.886 145.83 153.872 145.81 153.856 145.793C153.839 145.776 153.819 145.763 153.797 145.754C153.775 145.744 153.751 145.74 153.727 145.74H153.033C152.993 145.74 152.954 145.754 152.922 145.778C152.891 145.803 152.868 145.838 152.858 145.877L152.583 146.89C152.563 146.92 152.552 146.954 152.551 146.99C152.551 147.026 152.561 147.061 152.58 147.091C152.6 147.121 152.627 147.145 152.66 147.159C152.693 147.174 152.729 147.178 152.765 147.171Z" fill="#F5F5F5"/>
<path d="M151.433 147.171H152.396C152.444 147.171 152.49 147.152 152.524 147.118C152.558 147.084 152.577 147.038 152.577 146.99V145.921C152.577 145.897 152.572 145.874 152.563 145.852C152.554 145.83 152.541 145.81 152.524 145.793C152.507 145.776 152.487 145.763 152.465 145.754C152.443 145.744 152.42 145.74 152.396 145.74H151.702C151.661 145.74 151.622 145.754 151.591 145.778C151.559 145.803 151.536 145.838 151.527 145.877L151.258 146.89C151.238 146.919 151.227 146.953 151.227 146.988C151.226 147.023 151.235 147.058 151.254 147.088C151.272 147.117 151.299 147.141 151.331 147.156C151.363 147.171 151.398 147.176 151.433 147.171Z" fill="#F5F5F5"/>
<path d="M150.101 147.171H151.064C151.112 147.172 151.159 147.153 151.194 147.119C151.229 147.085 151.25 147.039 151.251 146.99V145.921C151.25 145.872 151.229 145.826 151.194 145.792C151.159 145.759 151.112 145.74 151.064 145.74H150.376C150.335 145.74 150.295 145.753 150.262 145.778C150.229 145.803 150.206 145.838 150.195 145.877L149.926 146.89C149.906 146.919 149.895 146.953 149.895 146.988C149.894 147.023 149.903 147.058 149.922 147.088C149.94 147.117 149.967 147.141 149.999 147.156C150.031 147.171 150.066 147.176 150.101 147.171Z" fill="#F5F5F5"/>
<path d="M148.776 147.172H149.732C149.757 147.172 149.781 147.168 149.804 147.16C149.826 147.151 149.847 147.138 149.865 147.121C149.882 147.104 149.896 147.084 149.906 147.061C149.915 147.039 149.92 147.015 149.92 146.99V145.921C149.92 145.897 149.915 145.873 149.906 145.85C149.896 145.828 149.882 145.808 149.865 145.791C149.847 145.774 149.826 145.761 149.804 145.752C149.781 145.743 149.757 145.739 149.732 145.74H149.045C149.004 145.74 148.965 145.754 148.934 145.779C148.902 145.804 148.879 145.838 148.87 145.877L148.595 146.89C148.574 146.92 148.563 146.955 148.563 146.99C148.562 147.026 148.572 147.061 148.591 147.091C148.611 147.121 148.639 147.145 148.671 147.159C148.704 147.174 148.741 147.178 148.776 147.172Z" fill="#F5F5F5"/>
<path d="M147.444 147.171H148.407C148.455 147.171 148.501 147.152 148.535 147.118C148.569 147.084 148.588 147.038 148.588 146.99V145.921C148.588 145.897 148.584 145.874 148.574 145.852C148.565 145.83 148.552 145.81 148.535 145.793C148.518 145.776 148.498 145.763 148.476 145.754C148.454 145.744 148.431 145.74 148.407 145.74H147.719C147.679 145.74 147.64 145.754 147.608 145.778C147.576 145.803 147.554 145.838 147.544 145.877L147.269 146.89C147.252 146.92 147.243 146.953 147.244 146.987C147.244 147.021 147.254 147.055 147.272 147.083C147.29 147.112 147.315 147.136 147.346 147.151C147.376 147.167 147.41 147.174 147.444 147.171Z" fill="#F5F5F5"/>
<path d="M146.112 147.171H147.094C147.142 147.171 147.188 147.152 147.222 147.118C147.256 147.084 147.275 147.038 147.275 146.99V145.921C147.275 145.897 147.27 145.874 147.261 145.852C147.252 145.83 147.239 145.81 147.222 145.793C147.205 145.776 147.185 145.763 147.163 145.754C147.141 145.744 147.118 145.74 147.094 145.74H146.406C146.365 145.74 146.325 145.753 146.292 145.778C146.259 145.803 146.236 145.838 146.225 145.877L145.956 146.89C145.938 146.918 145.927 146.95 145.926 146.983C145.925 147.016 145.932 147.049 145.949 147.078C145.965 147.107 145.989 147.131 146.017 147.148C146.046 147.164 146.079 147.172 146.112 147.171Z" fill="#F5F5F5"/>
<path d="M144.787 147.172H145.743C145.767 147.172 145.792 147.168 145.814 147.16C145.837 147.151 145.858 147.138 145.875 147.121C145.893 147.104 145.907 147.084 145.916 147.061C145.926 147.039 145.931 147.015 145.931 146.99V145.921C145.931 145.897 145.926 145.873 145.916 145.85C145.907 145.828 145.893 145.808 145.875 145.791C145.858 145.774 145.837 145.761 145.814 145.752C145.792 145.743 145.767 145.739 145.743 145.74H145.055C145.015 145.74 144.976 145.754 144.944 145.779C144.913 145.804 144.89 145.838 144.88 145.877L144.605 146.89C144.585 146.92 144.574 146.955 144.573 146.99C144.573 147.026 144.583 147.061 144.602 147.091C144.622 147.121 144.649 147.145 144.682 147.159C144.715 147.174 144.751 147.178 144.787 147.172Z" fill="#F5F5F5"/>
<path d="M143.455 147.171H144.418C144.466 147.171 144.512 147.152 144.546 147.118C144.58 147.084 144.599 147.038 144.599 146.99V145.921C144.599 145.897 144.595 145.874 144.585 145.852C144.576 145.83 144.563 145.81 144.546 145.793C144.529 145.776 144.509 145.763 144.487 145.754C144.465 145.744 144.442 145.74 144.418 145.74H143.724C143.684 145.74 143.644 145.754 143.613 145.778C143.581 145.803 143.559 145.838 143.549 145.877L143.274 146.89C143.256 146.92 143.247 146.954 143.248 146.989C143.249 147.024 143.259 147.057 143.278 147.087C143.297 147.116 143.323 147.139 143.354 147.154C143.386 147.169 143.421 147.175 143.455 147.171Z" fill="#F5F5F5"/>
<path d="M142.123 147.171H143.086C143.134 147.171 143.18 147.152 143.214 147.118C143.248 147.084 143.267 147.038 143.267 146.99V145.921C143.267 145.897 143.263 145.874 143.254 145.852C143.245 145.83 143.231 145.81 143.214 145.793C143.197 145.776 143.178 145.763 143.156 145.754C143.134 145.744 143.11 145.74 143.086 145.74H142.398C142.357 145.74 142.317 145.753 142.284 145.778C142.252 145.803 142.228 145.838 142.217 145.877L141.948 146.89C141.929 146.919 141.918 146.953 141.917 146.988C141.916 147.023 141.926 147.058 141.944 147.088C141.963 147.117 141.99 147.141 142.021 147.156C142.053 147.171 142.089 147.176 142.123 147.171Z" fill="#F5F5F5"/>
<path d="M141.16 148.059H162.674V146.459H141.16V148.059Z" fill="#EBEBEB"/>
<path d="M242.013 174.649H202.963V172.674C202.963 171.845 203.292 171.049 203.878 170.463C204.464 169.877 205.26 169.548 206.089 169.548H238.887C239.716 169.548 240.511 169.877 241.098 170.463C241.684 171.049 242.013 171.845 242.013 172.674V174.624V174.649Z" fill="#E0E0E0"/>
<path d="M240.744 203.553L228.24 202.302V184.74H223.282V202.321L210.721 203.572C210.119 203.631 209.56 203.912 209.153 204.36C208.746 204.808 208.521 205.392 208.521 205.997V207.873H242.938V205.997C242.943 205.39 242.72 204.802 242.315 204.35C241.909 203.898 241.348 203.614 240.744 203.553Z" fill="#E0E0E0"/>
<path d="M213.079 210.186C213.08 210.828 212.891 211.456 212.535 211.991C212.179 212.525 211.673 212.942 211.08 213.189C210.487 213.435 209.834 213.5 209.205 213.376C208.575 213.251 207.996 212.943 207.541 212.489C207.087 212.036 206.777 211.457 206.652 210.828C206.526 210.198 206.59 209.546 206.835 208.952C207.081 208.359 207.497 207.852 208.03 207.495C208.564 207.138 209.192 206.948 209.834 206.948C210.693 206.948 211.518 207.289 212.126 207.896C212.734 208.503 213.077 209.327 213.079 210.186Z" fill="#E0E0E0"/>
<path d="M238.374 210.186C238.373 210.828 238.562 211.456 238.918 211.991C239.274 212.525 239.78 212.942 240.373 213.189C240.966 213.435 241.619 213.5 242.248 213.376C242.878 213.251 243.457 212.943 243.911 212.489C244.366 212.036 244.676 211.457 244.801 210.828C244.927 210.198 244.863 209.546 244.618 208.952C244.372 208.359 243.956 207.852 243.423 207.495C242.889 207.138 242.261 206.948 241.619 206.948C240.76 206.948 239.935 207.289 239.327 207.896C238.719 208.503 238.376 209.327 238.374 210.186Z" fill="#E0E0E0"/>
<path d="M222.419 172.855H229.084V185.934C229.084 186.619 228.812 187.276 228.327 187.76C227.843 188.244 227.186 188.516 226.502 188.516H225.001C224.316 188.516 223.659 188.244 223.175 187.76C222.691 187.276 222.419 186.619 222.419 185.934V172.855Z" fill="#E6E6E6"/>
<path d="M219.162 169.904C222.946 154.901 225.107 139.535 225.608 124.07C225.671 122.406 226.377 120.832 227.576 119.678C228.776 118.523 230.376 117.879 232.041 117.88H243.589C245.292 117.879 246.926 118.552 248.133 119.754C249.34 120.955 250.022 122.586 250.029 124.289C250.072 134.805 249.341 156.306 243.408 173.78L221.438 172.968C221.071 172.955 220.712 172.861 220.387 172.691C220.062 172.52 219.78 172.279 219.561 171.985C219.342 171.69 219.193 171.35 219.124 170.99C219.055 170.63 219.068 170.259 219.162 169.904Z" fill="#EBEBEB"/>
<path d="M222.269 172.605C226.264 156.967 228.58 140.949 229.178 124.82C229.236 123.286 229.887 121.834 230.993 120.769C232.099 119.705 233.575 119.111 235.111 119.112H245.739C247.31 119.112 248.817 119.733 249.93 120.84C251.044 121.947 251.675 123.45 251.685 125.02C251.723 134.723 251.06 156.487 245.577 172.605H222.269Z" fill="#E6E6E6"/>
<path d="M226.833 157.275C226.833 157.275 214.185 154.718 201.969 155.956C189.752 157.193 207.739 173.161 207.739 173.161H210.24C210.24 173.161 200.725 163.039 201.256 160.52C201.787 158 225.758 161.32 225.758 161.32L226.833 157.275Z" fill="#E6E6E6"/>
<path d="M245.595 172.605H224.87C228.868 156.968 231.186 140.949 231.784 124.82C231.843 123.286 232.493 121.834 233.6 120.769C234.706 119.705 236.182 119.111 237.718 119.112H245.758C247.33 119.11 248.838 119.732 249.953 120.84C251.067 121.949 251.697 123.454 251.704 125.026C251.741 134.723 251.066 156.487 245.595 172.605Z" fill="#E0E0E0"/>
<path d="M202.825 174.649H244.764C245.455 174.649 246.015 174.09 246.015 173.399V173.361C246.015 172.671 245.455 172.111 244.764 172.111H202.825C202.135 172.111 201.575 172.671 201.575 173.361V173.399C201.575 174.09 202.135 174.649 202.825 174.649Z" fill="#E0E0E0"/>
<path d="M86.9049 201.002C87.0112 200.786 87.0635 200.547 87.0572 200.306C87.051 200.065 86.9863 199.83 86.8689 199.619C86.7514 199.409 86.5847 199.23 86.383 199.099C86.1812 198.967 85.9505 198.886 85.7107 198.864C85.914 198.247 85.9261 197.583 85.7454 196.959C85.5646 196.336 85.1995 195.781 84.6979 195.369C84.5747 195.258 84.419 195.19 84.254 195.175C84.079 195.194 83.9147 195.268 83.7851 195.387L80.9904 197.394C80.7644 197.529 80.5736 197.715 80.434 197.938C79.865 199.045 81.922 200.439 81.0592 201.377C80.8154 201.639 80.434 201.696 80.1214 201.883C79.4524 202.302 79.3774 203.215 79.0648 203.934C78.7522 204.653 77.6768 205.184 77.2579 204.559C77.5643 203.865 76.6327 203.271 75.8887 203.184C75.1447 203.096 74.3569 203.059 73.9443 202.352C72.8752 203.284 70.4931 200.689 70.5494 199.639C70.1297 199.716 69.7444 199.922 69.4465 200.228C69.1487 200.534 68.953 200.924 68.8864 201.346C68.7633 202.209 68.7339 203.083 68.7988 203.953C68.7988 205.647 68.2236 207.31 68.2549 209.004C68.2549 210.324 68.7863 211.787 69.993 212.318C70.5934 212.533 71.2327 212.618 71.8686 212.568L85.6232 212.481C85.9526 212.506 86.2833 212.45 86.586 212.318C87.2113 211.999 87.3425 211.18 87.3988 210.486C87.6406 207.498 87.8865 204.509 88.1366 201.521L86.9049 201.002Z" fill="#E0E0E0"/>
<path d="M87.699 186.472H66.373L66.5481 188.623L66.6731 190.167L66.9983 194.168L67.1858 196.469L67.4297 199.533L67.5359 200.846V201.24L67.6922 202.815L67.861 204.928L67.9673 206.241L68.0736 207.573L68.1987 209.117L68.3174 210.255L68.4175 211.568L68.4675 212.143H88.0303L88.0741 211.568L88.1804 210.261L88.2804 209.08L88.4054 207.542L88.5117 206.21L88.618 204.897L88.7868 202.778L88.9119 201.24V200.846L89.0181 199.533L89.2682 196.469L89.4558 194.175L89.7746 190.167L89.8997 188.623L90.0748 186.472H87.699ZM88.9494 187.885L88.543 187.472H88.9869L88.9494 187.885ZM88.8493 189.192L88.8056 189.711L86.9299 191.624L84.7355 189.436L86.6986 187.472H87.1613L88.8493 189.192ZM88.3242 196.019L86.9299 197.42L84.7355 195.225L86.9299 193.043L88.443 194.556L88.3242 196.019ZM68.0236 194.556L69.5679 193.043L71.7624 195.225L69.5679 197.42L68.1799 196.019L68.0236 194.556ZM86.2235 192.33L84.029 194.519L81.8407 192.33L84.029 190.142L86.2235 192.33ZM82.7785 187.472H85.2794L84.029 188.723L82.7785 187.472ZM83.3162 195.225L81.1342 197.42L78.946 195.225L81.1405 193.043L83.3162 195.225ZM76.0513 198.126L78.2395 195.938L80.4278 198.126L78.2395 200.314L76.0513 198.126ZM77.533 201.021L75.3386 203.215L73.1566 201.027L75.3448 198.839L77.533 201.021ZM81.1405 198.839L83.3225 201.027L81.1405 203.215L78.946 201.021L81.1405 198.839ZM78.2395 194.519L76.0513 192.33L78.2395 190.142L80.4278 192.33L78.2395 194.519ZM77.533 195.225L75.3448 197.42L73.1566 195.225L75.3448 193.043L77.533 195.225ZM72.4438 194.519L70.2556 192.33L72.4438 190.142L74.6321 192.33L72.4438 194.519ZM72.4438 195.938L74.6321 198.126L72.4438 200.314L70.2556 198.126L72.4438 195.938ZM74.6321 203.922L72.4438 206.11L70.2556 203.922L72.4438 201.733L74.6321 203.922ZM75.3386 204.628L77.533 206.823L75.3448 209.011L73.1566 206.823L75.3386 204.628ZM76.0513 203.922L78.2395 201.733L80.4278 203.922L78.2395 206.11L76.0513 203.922ZM81.1405 204.628L83.3225 206.823L81.1405 209.011L78.946 206.823L81.1405 204.628ZM84.0352 207.529L86.2297 209.717L84.8105 211.137H83.2662L81.847 209.692L84.0352 207.529ZM81.847 203.922L84.0352 201.733L86.2297 203.922L84.0352 206.11L81.847 203.922ZM81.847 198.126L84.0352 195.938L86.2297 198.126L84.0352 200.314L81.847 198.126ZM83.3225 189.436L81.1405 191.624L78.946 189.436L80.9092 187.472H81.3718L83.3225 189.436ZM78.2395 188.723L76.9891 187.472H79.4899L78.2395 188.723ZM77.533 189.436L75.3448 191.624L73.1566 189.436L75.1135 187.472H75.5761L77.533 189.436ZM73.6943 187.472L72.4438 188.723L71.1934 187.472H73.6943ZM69.7742 187.472L71.7373 189.436L69.5679 191.624L67.6922 189.711L67.6485 189.192L69.3678 187.472H69.7742ZM67.8986 187.472L67.4922 187.879V187.472H67.8986ZM67.7673 191.255L68.8364 192.33L67.9236 193.243L67.7673 191.255ZM68.3612 198.601L68.2799 197.563L68.8364 198.126L68.3612 198.601ZM68.4675 199.92L69.5679 198.839L71.7624 201.027L69.5679 203.215L68.6863 202.327L68.4675 199.92ZM68.7926 203.972V203.872L68.8426 203.922L68.7989 203.972H68.7926ZM69.174 208.636L68.8989 205.278L69.5241 204.653L71.7186 206.848L69.5679 209.005L69.199 208.636H69.174ZM69.3741 211.137L69.3365 210.636L69.5429 210.424L70.2556 211.137H69.3741ZM70.2556 209.692L72.4438 207.504L74.6321 209.692L73.2128 211.112H71.6686L70.2556 209.692ZM74.6321 211.112L75.3448 210.399L76.0575 211.112H74.6321ZM77.4705 211.112L76.0513 209.692L78.2395 207.504L80.4278 209.692L79.0148 211.112H77.4705ZM80.4278 211.112L81.1405 210.399L81.8532 211.112H80.4278ZM87.105 211.112H86.2235L86.9362 210.399L87.1425 210.611L87.105 211.112ZM87.3113 208.611L86.9362 208.98L84.7417 206.798L86.9362 204.603L87.5614 205.228L87.3113 208.611ZM87.699 203.847V203.947L87.6552 203.897L87.7115 203.847H87.699ZM87.824 202.302L86.9362 203.19L84.7417 201.002L86.9362 198.814L88.0178 199.895L87.824 202.302ZM88.1241 198.551L87.6427 198.07L88.2054 197.507L88.1241 198.551ZM88.718 191.199L88.5555 193.193L87.6427 192.274L88.718 191.199Z" fill="#E6E6E6"/>
<path d="M66.0291 188.367H90.4498C91.016 188.367 91.4751 187.908 91.4751 187.341V186.604C91.4751 186.037 91.016 185.578 90.4498 185.578H66.0291C65.4628 185.578 65.0037 186.037 65.0037 186.604V187.341C65.0037 187.908 65.4628 188.367 66.0291 188.367Z" fill="#F0F0F0"/>
<path d="M88.5429 210.643H67.9422C67.3759 210.643 66.9169 211.102 66.9169 211.668V212.406C66.9169 212.972 67.3759 213.431 67.9422 213.431H88.5429C89.1092 213.431 89.5682 212.972 89.5682 212.406V211.668C89.5682 211.102 89.1092 210.643 88.5429 210.643Z" fill="#F0F0F0"/>
<path d="M283.427 190.936L290.079 171.78C290.079 171.78 280.889 178.632 280.92 171.055C280.951 163.477 285.121 169.366 286.547 166.566C287.972 163.765 282.458 163.796 284.396 159.551C286.334 155.306 291.849 161.826 292.824 158.069C293.799 154.311 295.325 152.398 299.364 152.736C299.364 152.736 301.533 157.681 298.87 161.251C296.206 164.821 305.447 161.964 304.497 165.559C303.546 169.154 300.477 172.292 299.12 169.76C297.763 167.228 296.038 172.08 298.357 173.33C300.677 174.581 295.325 179.995 294.149 177.157C293.332 175.269 292.32 173.471 291.13 171.792L285.003 192.287L283.427 190.936Z" fill="#EBEBEB"/>
<path d="M276.581 191.124L269.079 178.876C269.079 178.876 276.494 182.208 275.331 177C274.168 171.792 272.167 176.462 270.754 174.743C269.341 173.024 273.161 172.211 271.179 169.566C269.197 166.922 266.371 172.267 265.127 169.816C263.883 167.366 262.52 166.271 259.794 167.109C259.794 167.109 259.044 170.861 261.42 172.93C263.796 174.999 256.981 174.418 258.175 176.762C259.369 179.107 261.97 180.814 262.551 178.857C263.133 176.9 265.052 179.995 263.62 181.214C262.189 182.433 266.747 185.365 267.109 183.221C267.392 181.793 267.821 180.397 268.391 179.057L275.725 192.311L276.581 191.124Z" fill="#E6E6E6"/>
<path d="M281.626 191.243L278.194 171.511C278.194 171.511 286.097 179.639 287.241 172.242C288.385 164.846 283.414 169.923 282.464 166.966C281.514 164.008 286.891 164.915 285.671 160.47C284.452 156.024 278.05 161.501 277.7 157.681C277.35 153.861 276.137 151.748 272.173 151.429C272.173 151.429 269.266 155.906 271.292 159.813C273.317 163.721 264.764 159.457 265.108 163.114C265.452 166.772 267.959 170.317 269.685 168.066C271.41 165.815 272.323 170.817 269.86 171.667C267.397 172.518 271.735 178.645 273.355 176.044C274.453 174.333 275.725 172.741 277.15 171.292L279.863 192.249L281.626 191.243Z" fill="#F5F5F5"/>
<path d="M285.891 213.444H274.099C273.702 213.443 273.321 213.291 273.032 213.02C272.743 212.748 272.568 212.377 272.542 211.981L271.292 191.661C271.279 191.449 271.31 191.237 271.382 191.037C271.455 190.837 271.567 190.654 271.713 190.499C271.859 190.345 272.035 190.222 272.23 190.138C272.426 190.054 272.636 190.01 272.849 190.011H287.141C287.353 190.011 287.563 190.055 287.757 190.139C287.952 190.224 288.127 190.347 288.272 190.502C288.417 190.656 288.529 190.839 288.602 191.038C288.674 191.238 288.704 191.45 288.691 191.661L287.441 211.981C287.416 212.375 287.242 212.746 286.954 213.017C286.666 213.289 286.286 213.441 285.891 213.444Z" fill="#EBEBEB"/>
<path d="M288.529 189.167H271.298C270.442 189.167 269.748 189.861 269.748 190.718V190.736C269.748 191.593 270.442 192.287 271.298 192.287H288.529C289.385 192.287 290.079 191.593 290.079 190.736V190.718C290.079 189.861 289.385 189.167 288.529 189.167Z" fill="#F5F5F5"/>
<g style="mix-blend-mode:multiply">
<path d="M184.606 241.928C251.555 241.928 305.828 238.76 305.828 234.851C305.828 230.942 251.555 227.773 184.606 227.773C117.657 227.773 63.3844 230.942 63.3844 234.851C63.3844 238.76 117.657 241.928 184.606 241.928Z" fill="#F5F5F5"/>
</g>
<path d="M136.64 46.0374C136.825 44.467 136.603 42.8754 135.994 41.4161C135.385 39.9568 134.41 38.679 133.163 37.706C131.917 36.733 130.441 36.0975 128.877 35.8609C127.314 35.6243 125.716 35.7946 124.237 36.3552C122.759 36.9159 121.45 37.848 120.436 39.0618C119.423 40.2756 118.739 41.73 118.451 43.2849C118.163 44.8397 118.281 46.4425 118.793 47.9387C119.304 49.4348 120.193 50.7739 121.373 51.8268L121.66 52.9084L123.173 53.0897L129.826 53.865L131.345 54.0463L131.87 53.0522C133.171 52.3534 134.284 51.3508 135.115 50.1294C135.945 48.9081 136.469 47.5043 136.64 46.0374Z" fill="#7A8BEB"/>
<path opacity="0.7" d="M136.64 46.0374C136.825 44.467 136.603 42.8754 135.994 41.4161C135.385 39.9568 134.41 38.679 133.163 37.706C131.917 36.733 130.441 36.0975 128.877 35.8609C127.314 35.6243 125.716 35.7946 124.237 36.3552C122.759 36.9159 121.45 37.848 120.436 39.0618C119.423 40.2756 118.739 41.73 118.451 43.2849C118.163 44.8397 118.281 46.4425 118.793 47.9387C119.304 49.4348 120.193 50.7739 121.373 51.8268L121.66 52.9084L123.173 53.0897L129.826 53.865L131.345 54.0463L131.87 53.0522C133.171 52.3534 134.284 51.3508 135.115 50.1294C135.945 48.9081 136.469 47.5043 136.64 46.0374Z" fill="white"/>
<path d="M128.9 53.9024C128.9 53.9024 129.857 49.5572 132.201 47.7629L130.326 47.544L129.882 45.4746L128.044 49.0133L127.418 45.6809L126.03 48.807L125.061 44.9307L124.149 46.8438L122.273 46.625C124.149 48.907 124.067 53.3522 124.067 53.3522" stroke="#7A8BEB" stroke-width="0.5" stroke-linecap="round" stroke-linejoin="round"/>
<path d="M129.725 59.1601C129.588 60.348 127.756 61.117 125.636 60.8669C123.517 60.6168 121.885 59.4539 122.054 58.2598C122.223 57.0656 124.023 56.3091 126.143 56.553C128.262 56.7968 129.863 57.9659 129.725 59.1601Z" fill="#263238"/>
<path d="M129.056 59.8546L122.542 59.0918C122.132 59.0461 121.756 58.8447 121.491 58.5294C121.225 58.2141 121.091 57.8088 121.116 57.3975L121.373 52.8835C121.376 52.8418 121.387 52.8012 121.406 52.764C121.425 52.7268 121.452 52.6939 121.484 52.667C121.516 52.6402 121.553 52.6201 121.593 52.6079C121.633 52.5957 121.675 52.5916 121.716 52.5959L131.357 53.7275C131.399 53.732 131.439 53.745 131.475 53.7657C131.512 53.7863 131.543 53.8142 131.569 53.8476C131.594 53.881 131.612 53.9192 131.622 53.9598C131.632 54.0004 131.633 54.0427 131.626 54.0839L130.838 58.5354C130.768 58.9421 130.543 59.3059 130.211 59.5515C129.88 59.7971 129.466 59.9056 129.056 59.8546Z" fill="#7A8BEB"/>
<path opacity="0.3" d="M129.056 59.8546L122.542 59.0918C122.132 59.0461 121.756 58.8447 121.491 58.5294C121.225 58.2141 121.091 57.8088 121.116 57.3975L121.373 52.8835C121.376 52.8418 121.387 52.8012 121.406 52.764C121.425 52.7268 121.452 52.6939 121.484 52.667C121.516 52.6402 121.553 52.6201 121.593 52.6079C121.633 52.5957 121.675 52.5916 121.716 52.5959L131.357 53.7275C131.399 53.732 131.439 53.745 131.475 53.7657C131.512 53.7863 131.543 53.8142 131.569 53.8476C131.594 53.881 131.612 53.9192 131.622 53.9598C131.632 54.0004 131.633 54.0427 131.626 54.0839L130.838 58.5354C130.768 58.9421 130.543 59.3059 130.211 59.5515C129.88 59.7971 129.466 59.9056 129.056 59.8546Z" fill="white"/>
<path d="M121.266 54.1586L131.438 55.3465C131.543 55.3539 131.646 55.3208 131.727 55.254C131.807 55.1873 131.859 55.092 131.871 54.9881C131.883 54.8842 131.855 54.7796 131.791 54.6961C131.728 54.6126 131.636 54.5567 131.532 54.54L121.36 53.3521C121.256 53.3447 121.153 53.3778 121.072 53.4446C120.991 53.5113 120.94 53.6066 120.928 53.7105C120.916 53.8144 120.944 53.919 121.007 54.0025C121.07 54.086 121.163 54.1419 121.266 54.1586Z" fill="#7A8BEB"/>
<path d="M131.195 56.4655L121.241 55.3026C121.187 55.2938 121.132 55.2961 121.079 55.3093C121.025 55.3226 120.975 55.3464 120.931 55.3795C120.888 55.4126 120.851 55.4543 120.824 55.5019C120.796 55.5496 120.779 55.6023 120.773 55.6568C120.766 55.7113 120.771 55.7666 120.787 55.8192C120.802 55.8719 120.828 55.9208 120.864 55.9631C120.899 56.0054 120.942 56.0401 120.991 56.0652C121.039 56.0903 121.093 56.1052 121.148 56.1091L131.101 57.272C131.154 57.279 131.208 57.2752 131.26 57.261C131.311 57.2467 131.359 57.2222 131.401 57.189C131.443 57.1558 131.478 57.1144 131.504 57.0675C131.53 57.0205 131.546 56.9689 131.551 56.9156C131.558 56.8626 131.554 56.8086 131.54 56.757C131.526 56.7054 131.501 56.6572 131.468 56.6152C131.435 56.5732 131.394 56.5384 131.347 56.5126C131.3 56.4869 131.248 56.4709 131.195 56.4655Z" fill="#7A8BEB"/>
<path d="M130.782 58.3913L121.204 57.2721C121.097 57.2598 120.989 57.2904 120.905 57.3572C120.821 57.424 120.766 57.5216 120.754 57.6285C120.741 57.7361 120.772 57.8443 120.838 57.9297C120.905 58.0151 121.003 58.0708 121.11 58.0849L130.688 59.204C130.795 59.2147 130.901 59.1835 130.985 59.117C131.069 59.0505 131.124 58.9539 131.138 58.8477C131.149 58.7403 131.118 58.633 131.052 58.548C130.985 58.463 130.889 58.4068 130.782 58.3913Z" fill="#7A8BEB"/>
<g opacity="0.5">
<path opacity="0.5" d="M121.266 54.1586L131.438 55.3465C131.542 55.3539 131.645 55.3208 131.726 55.254C131.807 55.1873 131.858 55.092 131.87 54.9881C131.882 54.8842 131.854 54.7796 131.791 54.6961C131.728 54.6126 131.635 54.5567 131.532 54.54L121.359 53.3521C121.255 53.3447 121.152 53.3778 121.071 53.4446C120.991 53.5113 120.939 53.6066 120.927 53.7105C120.915 53.8144 120.943 53.919 121.006 54.0025C121.07 54.086 121.162 54.1419 121.266 54.1586Z" fill="white"/>
<path opacity="0.5" d="M131.194 56.4655L121.241 55.3026C121.187 55.2938 121.131 55.2961 121.078 55.3093C121.025 55.3226 120.975 55.3464 120.931 55.3795C120.887 55.4126 120.85 55.4543 120.823 55.5019C120.796 55.5496 120.779 55.6023 120.772 55.6568C120.766 55.7113 120.771 55.7666 120.786 55.8192C120.802 55.8719 120.828 55.9208 120.863 55.9631C120.898 56.0054 120.941 56.0401 120.99 56.0652C121.039 56.0903 121.092 56.1052 121.147 56.1091L131.1 57.272C131.154 57.279 131.207 57.2752 131.259 57.261C131.311 57.2467 131.359 57.2222 131.401 57.189C131.443 57.1558 131.478 57.1144 131.503 57.0675C131.529 57.0205 131.545 56.9689 131.551 56.9156C131.558 56.8626 131.554 56.8086 131.54 56.757C131.525 56.7054 131.501 56.6572 131.468 56.6152C131.434 56.5732 131.393 56.5384 131.346 56.5126C131.299 56.4869 131.248 56.4709 131.194 56.4655Z" fill="white"/>
<path opacity="0.5" d="M130.782 58.3913L121.203 57.2721C121.096 57.2598 120.989 57.2904 120.905 57.3572C120.82 57.424 120.766 57.5216 120.753 57.6285C120.741 57.7361 120.771 57.8443 120.838 57.9297C120.905 58.0151 121.002 58.0708 121.11 58.0849L130.688 59.204C130.794 59.2147 130.901 59.1835 130.985 59.117C131.069 59.0505 131.124 58.9539 131.138 58.8477C131.149 58.7403 131.118 58.633 131.051 58.548C130.985 58.463 130.888 58.4068 130.782 58.3913Z" fill="white"/>
</g>
<path d="M127.75 31.5573L128.043 21.629L130.082 21.4727L127.75 31.5573Z" fill="#7A8BEB"/>
<path d="M135.258 35.4208L142.536 25.48L143.38 26.4303L135.258 35.4208Z" fill="#7A8BEB"/>
<path d="M139.204 42.2548L147.913 40.9419L148.219 41.8547L139.204 42.2548Z" fill="#7A8BEB"/>
<path d="M119.441 34.0391L112.513 26.249L111.576 27.3932L119.441 34.0391Z" fill="#7A8BEB"/>
<path d="M115.389 41.9983L105.911 39.7101L106.224 40.973L115.389 41.9983Z" fill="#7A8BEB"/>
<path d="M239.75 91.2083L231.854 98.3045C230.603 99.4111 222.144 90.5581 222.144 90.5581L219.818 92.5713C219.818 92.5713 227.746 102.406 230.685 102.618C233.623 102.831 241.788 96.3663 241.788 96.3663L239.75 91.2083Z" fill="#FFC2B0"/>
<path d="M234.723 95.0596L237.73 100.168L240.856 98.292L246.083 95.0909V83.562C246.083 83.562 237.868 88.9451 234.723 95.0596Z" fill="#7A8BEB"/>
<path opacity="0.2" d="M240.875 98.2608L246.102 95.0597V94.9847C245.74 93.5967 245.433 92.4838 245.433 92.4838C245.433 92.4838 239.969 95.0784 240.875 98.2608Z" fill="black"/>
<path d="M278.438 97.6544C278.438 97.6544 282.871 102.956 282.295 105.557C281.72 108.158 277.825 109.621 277.825 109.621L273.386 109.221C273.386 109.221 277.137 106.526 277.137 105.557C277.137 104.588 274.355 101.962 274.355 101.962L278.438 97.6544Z" fill="#FFC2B0"/>
<path d="M242.276 123.813L266.909 125.539C266.83 117.681 267.149 109.825 267.866 102C268.003 100.491 268.141 99.0653 268.278 97.7232C269.047 90.4645 269.835 85.7504 269.835 85.7504H269.76L246.071 83.5747C241.132 100.449 242.276 123.813 242.276 123.813Z" fill="#7A8BEB"/>
<path d="M260.145 224.903L255.993 227.292L251.01 218.257L255.162 215.869L260.145 224.903Z" fill="#FFC2B0"/>
<path d="M255.487 226.76L260.101 223.822C260.176 223.769 260.267 223.744 260.359 223.752C260.45 223.76 260.536 223.8 260.601 223.866L263.383 226.76C263.443 226.829 263.488 226.909 263.516 226.996C263.545 227.082 263.556 227.173 263.549 227.264C263.542 227.355 263.517 227.443 263.476 227.524C263.434 227.605 263.377 227.677 263.308 227.736L263.189 227.817C261.582 228.805 260.688 229.249 258.7 230.524C257.45 231.306 252.235 234.119 250.304 234.276C248.372 234.432 248.153 232.581 248.941 232.287C252.911 230.806 254.455 228.917 254.961 227.429C255.055 227.153 255.24 226.917 255.487 226.76Z" fill="#263238"/>
<path opacity="0.2" d="M255.162 215.869L251.01 218.257L253.58 222.915L257.738 220.527L255.162 215.869Z" fill="black"/>
<path d="M242.282 123.819C242.282 123.819 229.972 163.977 230.722 177.369C231.535 192.055 251.279 222.946 251.279 222.946L258.719 218.245C258.719 218.245 244.777 187.81 244.251 176.556C245.02 160.25 260.113 125.107 260.113 125.107L242.282 123.819Z" fill="#263238"/>
<path opacity="0.2" d="M254.355 134.742C250.247 137.243 248.615 147.984 249.484 153.43C251.71 146.552 254.249 139.738 256.28 134.523C255.969 134.388 255.626 134.336 255.288 134.375C254.95 134.413 254.628 134.54 254.355 134.742Z" fill="black"/>
<path d="M250.453 223.665L259.225 218.107L257.787 215.631L248.59 221.246L250.453 223.665Z" fill="#7A8BEB"/>
<path d="M254.536 228.28C254.276 228.474 253.96 228.579 253.636 228.58C253.532 228.569 253.434 228.531 253.35 228.469C253.267 228.408 253.201 228.325 253.161 228.23C253.127 228.175 253.109 228.112 253.109 228.048C253.109 227.984 253.127 227.921 253.161 227.867C253.486 227.361 255.236 227.279 255.436 227.279C255.457 227.277 255.477 227.282 255.495 227.294C255.512 227.305 255.524 227.322 255.53 227.342C255.542 227.359 255.548 227.38 255.548 227.401C255.548 227.422 255.542 227.443 255.53 227.461C255.227 227.767 254.894 228.041 254.536 228.28ZM253.467 227.867C253.422 227.894 253.384 227.93 253.354 227.973C253.34 227.994 253.332 228.02 253.332 228.045C253.332 228.071 253.34 228.096 253.354 228.117C253.379 228.184 253.422 228.242 253.478 228.285C253.535 228.328 253.602 228.355 253.673 228.361C254.253 228.268 254.779 227.968 255.155 227.517C254.576 227.529 254.003 227.648 253.467 227.867Z" fill="#7A8BEB"/>
<path d="M255.499 227.485H255.443C254.899 227.541 253.567 227.21 253.43 226.729C253.405 226.648 253.409 226.562 253.439 226.484C253.47 226.406 253.526 226.34 253.598 226.297C253.664 226.242 253.739 226.201 253.821 226.176C253.903 226.151 253.989 226.144 254.073 226.153C254.761 226.216 255.505 227.266 255.53 227.329C255.542 227.345 255.549 227.365 255.549 227.385C255.549 227.405 255.542 227.425 255.53 227.441C255.523 227.458 255.513 227.473 255.499 227.485ZM253.767 226.454L253.73 226.485C253.611 226.579 253.636 226.635 253.642 226.666C253.736 226.948 254.63 227.254 255.218 227.291C254.98 226.998 254.474 226.435 254.042 226.397C253.946 226.386 253.849 226.408 253.767 226.46V226.454Z" fill="#7A8BEB"/>
<path d="M269.197 230.336H264.577L264.196 219.639H268.822L269.197 230.336Z" fill="#FFC2B0"/>
<path d="M263.939 229.799H269.566C269.658 229.802 269.746 229.834 269.817 229.892C269.888 229.95 269.938 230.029 269.96 230.118L270.873 234.232C270.91 234.408 270.875 234.592 270.777 234.743C270.679 234.895 270.524 235.001 270.348 235.038C270.298 235.044 270.248 235.044 270.198 235.038C268.378 235.038 267.072 234.901 264.777 234.901C263.377 234.901 259.15 235.044 257.2 235.044C255.249 235.044 255.011 233.131 255.805 232.956C259.363 232.181 262.057 231.081 263.183 230.08C263.392 229.898 263.661 229.798 263.939 229.799Z" fill="#263238"/>
<path opacity="0.2" d="M268.822 219.646H264.196L264.396 225.16H269.016L268.822 219.646Z" fill="black"/>
<path d="M262.983 85.3377C261.983 86.2442 256.8 86.8319 256.8 86.8319L254.805 89.8392L253.861 85.5565C253.861 85.5565 252.142 85.1501 252.504 84.6124C253.071 84.5615 253.621 84.3981 254.123 84.1319C254.626 83.8656 255.07 83.5019 255.43 83.0619C256.306 81.8678 256.243 80.1985 255.962 78.5729C255.962 78.5729 255.962 78.5291 255.962 78.5104L259.994 75.5344L262.77 73.4712C261.87 76.7973 260.776 82.9244 262.983 85.3377Z" fill="#FFC2B0"/>
<path opacity="0.2" d="M261.632 76.3348C260.776 80.2424 257.256 82.5119 255.43 83.0621C256.305 81.8679 256.243 80.1986 255.962 78.5731C255.965 78.5503 255.965 78.5271 255.962 78.5043L259.994 75.5283C260.082 76.1348 261.757 75.7346 261.632 76.3348Z" fill="black"/>
<path d="M251.016 124.426C251.016 124.426 253.629 163.977 255.58 177.369C257.712 192.055 262.276 224.09 262.276 224.09H270.723C270.723 224.09 268.997 193.455 268.222 178.994C267.303 162.545 266.934 125.539 266.934 125.539L251.016 124.426Z" fill="#263238"/>
<path d="M261.257 224.272H271.223V221.296L260.882 221.102L261.257 224.272Z" fill="#7A8BEB"/>
<path d="M256.643 59.5228C255.827 59.3155 254.967 59.3611 254.178 59.6536C253.389 59.9462 252.707 60.4718 252.223 61.1609C250.279 63.6242 251.704 65.2623 251.704 65.2623C251.839 64.5605 252.147 63.9032 252.598 63.3491C252.598 63.3491 251.46 65.85 253.924 68.8072C256.387 71.7645 263.639 75.1531 263.639 75.1531C263.639 75.1531 268.053 73.4213 269.329 69.4762C270.604 65.5311 270.579 62.7239 265.959 60.1668C261.339 57.6097 256.768 56.872 256.643 59.5228Z" fill="#263238"/>
<path d="M264.696 69.0196C264.177 73.0397 264.014 75.603 262.27 77.6412C262.036 77.913 261.781 78.1659 261.507 78.3977C257.793 81.6863 252.31 79.198 251.504 74.5652C251.368 73.724 251.305 72.8726 251.316 72.0206C251.316 68.0755 252.76 63.3802 256.499 62.1548C257.516 61.8116 258.605 61.7361 259.66 61.9356C260.715 62.1351 261.7 62.6028 262.522 63.2938C263.344 63.9848 263.973 64.8757 264.351 65.8807C264.728 66.8858 264.841 67.9711 264.677 69.0321L264.696 69.0196Z" fill="#FFC2B0"/>
<path d="M253.861 63.768C254.924 63.4178 255.993 64.3932 255.993 64.3932C257.416 64.2702 258.846 64.2702 260.269 64.3932C261.663 64.6308 262.07 66.025 262.189 66.3688C262.307 66.7127 261.638 67.3942 261.638 67.3942C261.638 67.3942 261.789 71.6018 261.845 72.7647L263.564 75.8908C265.473 72.9025 266.506 69.4392 266.546 65.8937C266.603 59.9104 254.805 60.198 254.805 60.198L253.861 63.768Z" fill="#263238"/>
<path d="M266.403 74.1839C265.721 75.1121 264.702 75.7343 263.564 75.9157C262.051 76.1345 261.489 74.7403 262.064 73.4149C262.589 72.2457 264.002 70.6702 265.44 71.0703C266.878 71.4705 267.228 73.0335 266.403 74.1839Z" fill="#EEC1BB"/>
<path d="M262.414 230.612C262.099 230.639 261.785 230.555 261.526 230.374C261.44 230.306 261.373 230.216 261.332 230.114C261.292 230.012 261.279 229.901 261.295 229.793C261.292 229.729 261.309 229.666 261.342 229.611C261.376 229.557 261.424 229.513 261.482 229.486C261.995 229.217 263.483 230.111 263.652 230.243C263.67 230.253 263.685 230.269 263.694 230.288C263.703 230.307 263.706 230.328 263.702 230.349C263.699 230.371 263.69 230.391 263.675 230.408C263.661 230.425 263.642 230.437 263.62 230.443C263.226 230.543 262.821 230.599 262.414 230.612ZM261.726 229.655C261.676 229.649 261.626 229.66 261.582 229.686C261.551 229.686 261.52 229.724 261.514 229.811C261.505 229.884 261.513 229.957 261.538 230.025C261.563 230.094 261.604 230.155 261.657 230.205C262.174 230.444 262.764 230.473 263.302 230.286C262.821 229.978 262.287 229.763 261.726 229.655Z" fill="#7A8BEB"/>
<path d="M263.589 230.449H263.539C263.064 230.186 262.139 229.199 262.233 228.686C262.25 228.604 262.295 228.531 262.36 228.479C262.425 228.426 262.506 228.398 262.589 228.398C262.672 228.387 262.755 228.394 262.835 228.417C262.915 228.441 262.989 228.482 263.052 228.536C263.583 228.974 263.677 230.299 263.677 230.368C263.676 230.387 263.672 230.406 263.663 230.423C263.654 230.441 263.642 230.456 263.627 230.468C263.613 230.464 263.601 230.458 263.589 230.449ZM262.664 228.573H262.608C262.47 228.573 262.458 228.655 262.452 228.686C262.395 228.986 262.983 229.755 263.458 230.111C263.426 229.585 263.234 229.081 262.908 228.667C262.841 228.607 262.754 228.573 262.664 228.573Z" fill="#7A8BEB"/>
<path d="M220.575 93.2405C220.575 93.2405 215.867 92.8341 214.81 92.4465C213.754 92.0588 214.016 88.6952 214.091 88.1388C214.166 87.5823 220.681 88.764 221.7 89.2767C222.719 89.7893 223.282 92.2714 223.282 92.2714L220.575 93.2405Z" fill="#FFC2B0"/>
<path d="M295.366 108.217L240.623 103.995L237.74 141.372L292.483 145.594L295.366 108.217Z" fill="#7A8BEB"/>
<path opacity="0.7" d="M295.366 108.217L240.623 103.995L237.74 141.372L292.483 145.594L295.366 108.217Z" fill="white"/>
<path d="M295.366 108.217L240.623 103.995L237.74 141.372L292.483 145.594L295.366 108.217Z" stroke="black" stroke-width="0.5" stroke-miterlimit="10"/>
<path d="M241.224 103.469L240.108 103.383L240.022 104.499L241.138 104.585L241.224 103.469Z" fill="black"/>
<path d="M238.347 140.843L237.231 140.757L237.145 141.873L238.261 141.959L238.347 140.843Z" fill="black"/>
<path d="M293.084 145.071L291.968 144.985L291.882 146.101L292.998 146.187L293.084 145.071Z" fill="black"/>
<path d="M295.962 107.71L294.846 107.624L294.76 108.74L295.876 108.826L295.962 107.71Z" fill="black"/>
<path d="M291.849 139.272L239.331 135.222L238.93 140.421L291.448 144.471L291.849 139.272Z" fill="#7A8BEB"/>
<path opacity="0.2" d="M286.547 141.925L244.152 138.656C244.027 138.646 243.911 138.587 243.829 138.493C243.747 138.398 243.705 138.274 243.714 138.149C243.719 138.087 243.736 138.026 243.764 137.97C243.793 137.914 243.832 137.864 243.879 137.824C243.927 137.783 243.982 137.752 244.042 137.733C244.101 137.714 244.164 137.706 244.227 137.712L286.616 140.981C286.741 140.991 286.857 141.05 286.939 141.144C287.021 141.239 287.062 141.363 287.054 141.488C287.044 141.613 286.985 141.729 286.89 141.811C286.796 141.893 286.672 141.934 286.547 141.925Z" fill="black"/>
<path d="M260.914 125.589L261.564 117.186L272.311 122.244L260.914 125.589Z" fill="#7A8BEB"/>
<path d="M250.566 138.712C250.551 138.909 250.477 139.097 250.355 139.253C250.232 139.408 250.066 139.524 249.878 139.585C249.69 139.646 249.488 139.65 249.297 139.597C249.107 139.543 248.937 139.434 248.808 139.284C248.68 139.133 248.599 138.948 248.575 138.752C248.552 138.555 248.587 138.356 248.677 138.18C248.767 138.003 248.907 137.858 249.08 137.761C249.252 137.664 249.45 137.621 249.647 137.636C249.911 137.659 250.155 137.784 250.327 137.985C250.499 138.187 250.585 138.448 250.566 138.712Z" fill="#7A8BEB"/>
<path opacity="0.4" d="M250.566 138.712C250.551 138.909 250.477 139.097 250.355 139.253C250.232 139.408 250.066 139.524 249.878 139.585C249.69 139.646 249.488 139.65 249.297 139.597C249.107 139.543 248.937 139.434 248.808 139.284C248.68 139.133 248.599 138.948 248.575 138.752C248.552 138.555 248.587 138.356 248.677 138.18C248.767 138.003 248.907 137.858 249.08 137.761C249.252 137.664 249.45 137.621 249.647 137.636C249.911 137.659 250.155 137.784 250.327 137.985C250.499 138.187 250.585 138.448 250.566 138.712Z" fill="white"/>
<path d="M262.476 83.0621L256.799 85.7568L254.805 89.6518V85.2754C254.805 85.2754 253.998 84.4001 254.805 82.687L251.298 84.025L249.716 88.0513L253.805 86.3445L254.805 90.5459L256.799 87.2198L259.357 90.0895L264.765 85.2629L262.476 83.0621Z" fill="#7A8BEB"/>
<path opacity="0.2" d="M262.476 83.0621L256.799 85.7568L254.805 89.6518V85.2754C254.805 85.2754 253.998 84.4001 254.805 82.687L251.298 84.025L249.716 88.0513L253.805 86.3445L254.805 90.5459L256.799 87.2198L259.357 90.0895L264.765 85.2629L262.476 83.0621Z" fill="black"/>
<path opacity="0.2" d="M266.84 97.5107C266.942 99.0519 267.288 100.567 267.866 102C268.003 100.491 268.141 99.0654 268.278 97.7233L266.84 97.5107Z" fill="black"/>
<path d="M269.835 85.7568C274.637 87.8513 280.889 99.3301 280.889 99.3301L275.35 104.376L266.815 97.4983L269.835 85.7568Z" fill="#7A8BEB"/>
<path d="M271.248 106.757C271.248 106.757 271.873 103.694 272.467 103.631C273.061 103.569 277.594 104.369 277.875 105.207C278.157 106.045 278.394 108.102 277.25 108.22C276.106 108.339 270.885 108.22 271.248 106.757Z" fill="#FFC2B0"/>
<path d="M177.173 92.1029C178.136 91.0338 180.511 89.1457 177.798 86.9575C175.085 84.7692 176.141 80.5928 179.048 80.6741C181.956 80.7554 179.236 78.8672 179.355 75.5286C179.474 72.19 183.731 71.7774 186.176 73.4717C188.62 75.166 190.552 70.7958 193.678 71.5585C196.804 72.3213 195.692 75.0597 196.398 77.9357C197.105 80.8116 201.694 78.4483 203.113 81.6869C204.532 84.9255 202.119 84.738 202.344 88.2516C202.569 91.7653 205.439 92.403 205.163 95.0977C204.888 97.7923 199.13 98.0737 199.537 102.031C199.943 105.989 197.53 109.134 194.297 107.496C191.065 105.858 191.703 110.972 187.42 109.846C183.137 108.721 182.493 105.639 182.418 102.6C182.343 99.5617 179.399 101.862 177.448 100.568C175.497 99.2741 174.091 95.5416 177.173 92.1029Z" fill="#2E353A"/>
<path d="M174.741 125.714L176.279 98.9487L199.611 99.7177L195.298 127.496L174.741 125.714Z" fill="#7A8BEB"/>
<path opacity="0.7" d="M174.741 125.714L176.279 98.9487L199.611 99.7177L195.298 127.496L174.741 125.714Z" fill="white"/>
<path d="M176.954 131.623C176.954 131.623 170.589 165.553 168.889 179.482C166.669 197.657 157.598 224.247 157.598 224.247L161.224 225.185C161.224 225.185 174.016 202.59 176.51 182.265C186.676 161.483 187.495 135.918 187.495 135.918L176.954 131.623Z" fill="#FFC2B0"/>
<path d="M150.845 232.475C151.435 232.201 152.071 232.04 152.721 232C152.721 232 154.953 230.687 157.166 225.585H159.667C160.087 225.589 160.496 225.722 160.838 225.966C161.18 226.21 161.439 226.553 161.58 226.948C161.618 227.06 161.641 227.175 161.649 227.292C161.624 227.894 161.561 228.493 161.461 229.087C161.095 231.065 160.608 233.019 160.004 234.939L159.586 234.832L160.348 231.119C160.605 229.868 159.279 231.075 158.666 232.369C158.054 233.663 157.11 234.92 154.365 234.288C151.126 233.507 149.832 233.05 150.845 232.475Z" fill="#2E353A"/>
<path d="M183.569 131.078C183.569 131.078 184.356 165.596 185.576 179.576C187.164 197.82 183.787 225.71 183.787 225.71L187.539 225.873C187.539 225.873 195.385 201.121 193.622 180.714C199.249 158.288 194.779 133.085 194.779 133.085L183.569 131.078Z" fill="#FFC2B0"/>
<path d="M177.954 233.607C178.511 233.276 179.123 233.05 179.761 232.938C179.761 232.938 181.837 231.387 183.481 226.06L185.982 225.779C186.4 225.737 186.822 225.825 187.189 226.031C187.555 226.237 187.85 226.551 188.033 226.93C188.084 227.036 188.12 227.15 188.139 227.267C188.176 227.867 188.176 228.468 188.139 229.068C187.988 231.072 187.716 233.066 187.326 235.039L186.895 234.982L187.251 231.231C187.37 229.949 186.182 231.306 185.713 232.638C185.244 233.969 184.463 235.339 181.643 235.013C178.354 234.607 177.023 234.288 177.954 233.607Z" fill="#2E353A"/>
<path d="M185.319 102.569C190.096 101.944 191.534 99.9181 191.534 99.9181C188.501 97.0609 191.021 92.103 191.021 92.103L185.269 93.1784C185.4 93.9787 185.475 94.7872 185.494 95.5979C185.538 99.0866 183.956 99.1241 183.956 99.1241C182.949 101.012 185.319 102.569 185.319 102.569Z" fill="#FFC2B0"/>
<path opacity="0.2" d="M185.269 93.1784C185.4 93.9787 185.475 94.7872 185.494 95.5979C189.377 95.5979 191.021 92.103 191.021 92.103L185.269 93.1784Z" fill="black"/>
<path d="M188.445 77.0916C183.444 76.8165 181.693 79.4049 181.043 84.5379C180.23 90.9525 181.412 95.6041 187.739 94.5725C196.329 93.172 196.748 77.548 188.445 77.0916Z" fill="#FFC2B0"/>
<path d="M193.447 85.8198C193.447 85.8198 191.334 81.5809 191.865 78.4298C191.865 78.4298 182.181 73.8408 181.136 83.8692C181.136 83.8692 180.661 74.8849 189.264 75.16C197.867 75.4351 197.148 88.0018 192.503 91.5092C192.503 91.528 194.753 88.4645 193.447 85.8198Z" fill="#2E353A"/>
<path d="M192.578 86.8262C192.616 86.5406 192.711 86.2654 192.856 86.0165C193.001 85.7675 193.194 85.5496 193.423 85.3754C193.653 85.2011 193.914 85.0739 194.193 85.001C194.472 84.928 194.762 84.9109 195.048 84.9505C196.586 85.2006 197.148 88.4205 193.253 88.9769C192.697 89.0644 192.415 88.508 192.578 86.8262Z" fill="#FFC2B0"/>
<path d="M174.778 125.958L162.556 197.757C162.556 197.757 192.128 201.283 202.156 199.22C202.156 199.22 204.613 147.834 194.147 127.559L174.778 125.958Z" fill="#7A8BEB"/>
<path d="M157.597 224.247C157.597 224.247 154.471 230.743 152.702 232C152.702 232 155.097 233.425 157.597 230.249C160.824 226.135 161.611 227.279 161.611 227.279C161.546 226.571 161.416 225.87 161.224 225.185C160.736 223.859 157.597 224.247 157.597 224.247Z" fill="#FFC2B0"/>
<path d="M184.162 224.197C184.162 224.197 183.281 226.598 182.112 229.243C181.573 230.614 180.774 231.868 179.761 232.938C179.761 232.938 181.799 233.6 182.887 232.312C183.975 231.025 185.876 226.41 187.989 226.942C187.874 226.566 187.714 226.205 187.514 225.867C187.213 225.354 184.162 224.197 184.162 224.197Z" fill="#FFC2B0"/>
<path d="M174.741 125.714L174.165 129.553L195.723 131.079L195.385 126.927L174.741 125.714Z" fill="black"/>
<path d="M185.232 126.152C185.001 125.902 179.361 125.452 178.899 125.908C178.899 125.908 178.317 129.722 178.548 130.078C178.78 130.434 184.219 130.478 184.725 130.516C185.232 130.553 185.451 126.402 185.232 126.152ZM184.219 130.084C183.806 130.084 179.336 130.022 179.149 129.728C178.961 129.434 179.436 126.302 179.436 126.302C179.818 125.927 184.438 126.302 184.638 126.502C184.838 126.702 184.607 130.116 184.207 130.084H184.219Z" fill="white"/>
<path d="M184.088 127.578L182.975 127.503C182.873 127.494 182.771 127.524 182.69 127.588C182.61 127.652 182.557 127.745 182.543 127.846C182.534 127.903 182.536 127.961 182.55 128.017C182.565 128.073 182.591 128.125 182.627 128.17C182.663 128.215 182.708 128.252 182.76 128.278C182.811 128.304 182.867 128.319 182.925 128.322L184.044 128.384C184.146 128.379 184.242 128.337 184.315 128.266C184.387 128.194 184.431 128.099 184.437 127.997C184.443 127.895 184.411 127.795 184.348 127.715C184.285 127.636 184.194 127.582 184.094 127.565L184.088 127.578Z" fill="white"/>
<path d="M199.611 99.7178C203.531 102.269 200.806 122.782 184.119 138.481L182.274 136.18C182.274 136.18 193.097 121.219 194.372 114.992C197.242 100.968 199.611 99.7178 199.611 99.7178Z" fill="#FFC2B0"/>
<path d="M176.279 98.9492C174.403 98.4427 170.852 109.653 170.852 119.931C170.852 125.714 172.546 136.856 172.546 136.856L175.497 134.98C175.497 134.98 174.528 118.893 174.741 117.412C174.953 115.93 177.148 106.227 177.148 106.227C177.542 104.846 177.771 103.423 177.829 101.988C177.806 101.399 177.655 100.823 177.388 100.298C177.12 99.7736 176.742 99.3133 176.279 98.9492Z" fill="#FFC2B0"/>
<path d="M209.902 140.667L155.04 138.464L153.536 175.921L208.398 178.125L209.902 140.667Z" fill="#7A8BEB"/>
<path opacity="0.7" d="M209.902 140.667L155.04 138.464L153.536 175.921L208.398 178.125L209.902 140.667Z" fill="white"/>
<path d="M209.902 140.667L155.04 138.464L153.536 175.921L208.398 178.125L209.902 140.667Z" stroke="black" stroke-width="0.5" stroke-miterlimit="10"/>
<path d="M155.618 137.931L154.5 137.886L154.455 139.004L155.573 139.049L155.618 137.931Z" fill="black"/>
<path d="M154.103 175.39L152.985 175.345L152.94 176.463L154.059 176.508L154.103 175.39Z" fill="black"/>
<path d="M208.964 177.597L207.846 177.552L207.801 178.67L208.919 178.715L208.964 177.597Z" fill="black"/>
<path d="M210.485 140.131L209.367 140.086L209.322 141.204L210.44 141.249L210.485 140.131Z" fill="black"/>
<path d="M205.37 145.996L173.934 144.746C173.872 144.743 173.811 144.729 173.755 144.703C173.698 144.676 173.648 144.639 173.606 144.593C173.564 144.547 173.531 144.493 173.511 144.435C173.49 144.376 173.481 144.314 173.484 144.252C173.489 144.127 173.543 144.009 173.634 143.924C173.725 143.838 173.847 143.792 173.972 143.796L205.407 145.046C205.469 145.048 205.53 145.062 205.587 145.087C205.644 145.112 205.695 145.149 205.737 145.194C205.78 145.24 205.813 145.293 205.835 145.351C205.856 145.41 205.866 145.472 205.864 145.534C205.862 145.597 205.848 145.659 205.822 145.716C205.796 145.774 205.759 145.825 205.713 145.868C205.667 145.911 205.613 145.945 205.554 145.967C205.495 145.989 205.433 145.999 205.37 145.996Z" fill="#7A8BEB"/>
<path d="M205.238 149.447L173.797 148.197C173.735 148.194 173.674 148.18 173.619 148.154C173.563 148.128 173.512 148.091 173.47 148.046C173.429 148.001 173.396 147.948 173.375 147.89C173.354 147.832 173.344 147.771 173.346 147.709C173.348 147.646 173.362 147.585 173.388 147.527C173.414 147.47 173.451 147.419 173.497 147.376C173.543 147.334 173.597 147.301 173.656 147.28C173.715 147.258 173.778 147.249 173.84 147.253L205.276 148.503C205.401 148.51 205.518 148.565 205.602 148.658C205.687 148.75 205.731 148.872 205.726 148.997C205.72 149.121 205.665 149.237 205.574 149.321C205.483 149.405 205.362 149.451 205.238 149.447Z" fill="#7A8BEB"/>
<path d="M205.089 152.892L173.653 151.642C173.591 151.639 173.529 151.624 173.472 151.598C173.416 151.572 173.365 151.535 173.322 151.489C173.28 151.443 173.247 151.39 173.225 151.331C173.204 151.272 173.194 151.21 173.197 151.148C173.199 151.085 173.214 151.024 173.24 150.968C173.266 150.912 173.303 150.861 173.349 150.819C173.395 150.777 173.449 150.745 173.508 150.724C173.566 150.703 173.628 150.694 173.69 150.697L205.126 151.948C205.252 151.954 205.369 152.01 205.455 152.102C205.54 152.194 205.586 152.316 205.582 152.442C205.576 152.567 205.52 152.684 205.428 152.768C205.335 152.853 205.214 152.897 205.089 152.892Z" fill="#7A8BEB"/>
<path d="M204.945 156.343L173.509 155.093C173.384 155.086 173.266 155.031 173.18 154.939C173.095 154.846 173.049 154.724 173.053 154.599C173.055 154.536 173.07 154.475 173.096 154.418C173.122 154.362 173.159 154.311 173.205 154.268C173.251 154.226 173.305 154.193 173.363 154.171C173.422 154.15 173.484 154.14 173.547 154.142L204.982 155.393C205.108 155.399 205.226 155.455 205.311 155.547C205.396 155.639 205.442 155.761 205.439 155.887C205.436 155.949 205.422 156.011 205.395 156.067C205.369 156.124 205.332 156.175 205.286 156.217C205.24 156.26 205.187 156.293 205.128 156.314C205.069 156.336 205.007 156.346 204.945 156.343Z" fill="#7A8BEB"/>
<path d="M204.8 159.795L158.866 157.919C158.804 157.917 158.743 157.902 158.686 157.876C158.629 157.85 158.578 157.812 158.536 157.767C158.493 157.721 158.46 157.667 158.439 157.608C158.417 157.55 158.407 157.487 158.41 157.425C158.412 157.363 158.427 157.301 158.453 157.245C158.479 157.188 158.516 157.137 158.562 157.094C158.608 157.052 158.662 157.019 158.721 156.998C158.779 156.976 158.841 156.966 158.904 156.969L204.838 158.844C204.9 158.847 204.962 158.861 205.018 158.888C205.075 158.914 205.126 158.951 205.169 158.997C205.211 159.042 205.244 159.096 205.266 159.155C205.287 159.213 205.297 159.276 205.294 159.338C205.288 159.464 205.233 159.582 205.14 159.667C205.048 159.752 204.926 159.798 204.8 159.795Z" fill="#7A8BEB"/>
<path d="M204.657 163.24L158.723 161.364C158.66 161.361 158.599 161.347 158.542 161.321C158.486 161.295 158.435 161.257 158.392 161.212C158.35 161.166 158.317 161.112 158.295 161.053C158.274 160.995 158.264 160.932 158.266 160.87C158.273 160.745 158.328 160.628 158.421 160.543C158.513 160.459 158.635 160.415 158.76 160.42L204.701 162.295C204.762 162.298 204.823 162.312 204.879 162.338C204.935 162.364 204.985 162.401 205.027 162.446C205.069 162.491 205.101 162.544 205.122 162.602C205.144 162.66 205.153 162.722 205.151 162.783C205.149 162.846 205.135 162.908 205.109 162.965C205.083 163.022 205.046 163.073 205 163.116C204.954 163.158 204.9 163.191 204.841 163.212C204.782 163.234 204.72 163.243 204.657 163.24Z" fill="#7A8BEB"/>
<path d="M204.519 166.69L158.579 164.815C158.453 164.808 158.335 164.753 158.25 164.661C158.165 164.568 158.119 164.446 158.122 164.321C158.129 164.195 158.184 164.077 158.277 163.992C158.369 163.907 158.491 163.861 158.616 163.864L204.557 165.74C204.682 165.747 204.8 165.802 204.886 165.894C204.971 165.986 205.017 166.108 205.013 166.234C205.007 166.36 204.951 166.477 204.859 166.563C204.767 166.648 204.645 166.694 204.519 166.69Z" fill="#7A8BEB"/>
<path d="M204.376 170.136L158.435 168.26C158.374 168.257 158.313 168.243 158.257 168.217C158.201 168.191 158.151 168.155 158.109 168.109C158.067 168.064 158.035 168.011 158.014 167.953C157.992 167.895 157.983 167.834 157.985 167.772C157.987 167.71 158.001 167.649 158.026 167.592C158.052 167.536 158.088 167.484 158.133 167.442C158.179 167.4 158.232 167.366 158.29 167.345C158.349 167.323 158.411 167.313 158.473 167.316L204.413 169.191C204.539 169.198 204.657 169.253 204.742 169.345C204.827 169.438 204.873 169.56 204.87 169.685C204.863 169.81 204.808 169.928 204.715 170.012C204.623 170.096 204.501 170.141 204.376 170.136Z" fill="#7A8BEB"/>
<path d="M204.232 173.586L158.297 171.711C158.235 171.708 158.174 171.694 158.117 171.667C158.06 171.641 158.009 171.604 157.967 171.558C157.924 171.513 157.892 171.459 157.87 171.4C157.848 171.342 157.839 171.279 157.841 171.217C157.848 171.091 157.903 170.973 157.995 170.888C158.087 170.803 158.209 170.757 158.335 170.76L204.269 172.636C204.332 172.638 204.393 172.653 204.45 172.679C204.506 172.705 204.557 172.743 204.6 172.788C204.642 172.834 204.675 172.888 204.697 172.947C204.718 173.005 204.728 173.068 204.726 173.13C204.723 173.192 204.708 173.254 204.682 173.31C204.656 173.367 204.619 173.418 204.573 173.461C204.527 173.503 204.474 173.536 204.415 173.557C204.356 173.579 204.294 173.589 204.232 173.586Z" fill="#7A8BEB"/>
<path d="M163.918 146.059L161.317 145.952L161.355 145.002L167.638 145.265L167.594 146.209L164.994 146.102L164.719 152.755L163.643 152.711L163.918 146.059Z" fill="#7A8BEB"/>
<path d="M170.148 143.587L159.01 143.128L158.551 154.266L169.689 154.725L170.148 143.587Z" stroke="#7A8BEB" stroke-width="0.5" stroke-miterlimit="10"/>
<path d="M182.781 135.493C182.781 135.493 180.905 136.355 180.655 136.856C180.405 137.356 178.317 142.92 178.486 143.652C178.654 144.383 182.043 145.29 182.531 145.108C183.018 144.927 184.95 138.519 184.944 137.712C184.938 136.906 182.781 135.493 182.781 135.493Z" fill="#FFC2B0"/>
<path d="M173.584 133.705C173.584 133.705 171.921 134.892 171.746 135.436C171.571 135.98 170.558 141.82 170.858 142.508C171.158 143.195 174.653 143.47 175.103 143.202C175.553 142.933 176.272 136.28 176.116 135.486C175.96 134.692 173.584 133.705 173.584 133.705Z" fill="#FFC2B0"/>
<path d="M190.477 97.8926C190.477 97.8926 187.639 101.019 185.569 101.994C185.569 101.994 184.413 99.4556 184.944 97.8926C184.944 97.8926 181.349 99.937 181.705 102.569C182.062 105.201 185.307 102.951 185.307 102.951C185.307 102.951 188.064 105.451 190.308 104.045C192.553 102.638 192.053 99.4681 192.053 99.4681L190.477 97.8926Z" fill="#7A8BEB"/>
<path d="M185.35 105.757C185.349 105.884 185.297 106.005 185.207 106.094C185.117 106.183 184.995 106.232 184.869 106.232C184.751 106.219 184.643 106.163 184.564 106.075C184.486 105.986 184.442 105.872 184.442 105.754C184.442 105.636 184.486 105.522 184.564 105.434C184.643 105.345 184.751 105.289 184.869 105.276C184.932 105.276 184.995 105.288 185.053 105.313C185.112 105.337 185.165 105.372 185.209 105.417C185.254 105.462 185.289 105.515 185.314 105.573C185.338 105.631 185.35 105.694 185.35 105.757Z" fill="#7A8BEB"/>
<path d="M184.425 111.535C184.425 111.63 184.397 111.723 184.344 111.802C184.291 111.881 184.216 111.943 184.128 111.979C184.04 112.016 183.943 112.025 183.85 112.007C183.756 111.988 183.671 111.942 183.603 111.875C183.536 111.808 183.49 111.722 183.472 111.629C183.453 111.535 183.462 111.438 183.499 111.35C183.535 111.262 183.597 111.187 183.676 111.134C183.755 111.082 183.848 111.053 183.944 111.053C184.007 111.052 184.07 111.064 184.129 111.088C184.188 111.112 184.241 111.148 184.286 111.192C184.331 111.237 184.366 111.291 184.39 111.349C184.414 111.408 184.426 111.471 184.425 111.535Z" fill="#7A8BEB"/>
<path d="M136.309 86.6255C135.903 85.7252 136.309 80.2796 136.309 80.2796C136.309 80.2796 143.011 76.7659 144.08 75.9031C145.149 75.0403 146.362 78.9229 145.687 79.7294C145.012 80.5359 143.011 83.5619 139.66 83.5619L139.21 87.9884L136.309 86.6255Z" fill="#FFC2B0"/>
<path d="M116.915 86.2632C119.003 86.7696 129.069 93.4656 131.12 93.2405C133.171 93.0154 135.59 83.8624 135.59 83.8624L139.773 85.1128C139.773 85.1128 139.573 101.812 135.747 103.619C131.92 105.426 116.19 101.981 116.19 101.981L116.915 86.2632Z" fill="#263238"/>
<path opacity="0.2" d="M139.767 85.1251C139.767 85.1251 139.573 101.831 135.746 103.638C134.396 104.263 131.583 104.263 128.494 103.975C124.359 103.532 120.25 102.873 116.184 102L116.277 100.086L116.903 86.2693C118.985 86.7632 129.05 93.4654 131.101 93.2341C133.152 93.0028 135.578 83.856 135.578 83.856L139.767 85.1251Z" fill="white"/>
<path opacity="0.2" d="M128.494 103.976C124.359 103.532 120.25 102.873 116.184 102L116.277 100.087C116.696 98.2111 117.084 96.5918 117.084 96.5918C117.084 96.5918 128.431 99.0301 128.494 103.976Z" fill="black"/>
<path d="M96.7459 229.48H90.8251C90.7271 229.479 90.6318 229.512 90.5555 229.574C90.4792 229.635 90.4264 229.722 90.4063 229.817L89.4434 234.194C89.4045 234.381 89.4411 234.576 89.5453 234.737C89.6495 234.897 89.8129 235.01 89.9999 235.05C90.0518 235.057 90.1043 235.057 90.1562 235.05C92.0881 235.019 93.4885 234.9 95.9081 234.9C97.3961 234.9 101.891 235.057 103.948 235.057C106.005 235.057 106.274 233.025 105.436 232.837C101.685 232.018 98.8153 230.874 97.6024 229.792C97.4875 229.686 97.3526 229.604 97.2055 229.55C97.0585 229.497 96.9022 229.473 96.7459 229.48Z" fill="#263238"/>
<path d="M121.998 229.323H116.046C115.948 229.323 115.853 229.356 115.776 229.418C115.7 229.479 115.647 229.565 115.627 229.661L114.658 234.038C114.619 234.226 114.657 234.422 114.762 234.582C114.868 234.743 115.033 234.855 115.221 234.894C115.272 234.904 115.325 234.904 115.377 234.894C117.303 234.863 118.703 234.744 121.123 234.744C122.617 234.744 127.112 234.9 129.169 234.9C131.226 234.9 131.495 232.868 130.651 232.681C126.9 231.862 124.03 230.718 122.823 229.636C122.599 229.429 122.303 229.317 121.998 229.323Z" fill="#263238"/>
<path d="M124.268 230.043H115.458C115.458 230.043 114.646 202.383 117.084 182.571C117.084 182.571 114.664 170.692 112.551 159.513C111.457 153.742 110.444 148.153 109.882 144.47C107.687 173.386 104.336 181.614 104.336 181.614C102.46 211.111 98.5152 230.005 98.5152 230.005H89.5747C88.7432 206.766 93.1697 178.4 93.1697 178.4C90.3312 145.558 90.1812 122.838 90.225 119.424H124.762C127.212 132.929 134.165 175.931 124.268 230.043Z" fill="#7A8BEB"/>
<path d="M124.736 119.424H90.1936V122.544L125.174 122.219L124.736 119.424Z" fill="black"/>
<path d="M101.298 123.557H102.529V118.024H101.298V123.557Z" fill="#7A8BEB"/>
<path d="M118.772 123.557H120.004V118.024H118.772V123.557Z" fill="#7A8BEB"/>
<path d="M108.987 122.369H115.377V118.88H108.987V122.369Z" fill="white"/>
<path d="M124.737 119.424H90.2001C90.0375 117.936 89.9187 115.279 89.8312 112.097C89.7374 108.577 89.6749 104.419 89.6374 100.512C89.5686 93.3531 89.5749 87.0448 89.5749 87.0448C89.5749 87.0448 93.9513 83.0309 104.58 83.0622C108.949 83.158 113.233 84.2848 117.084 86.3508C124.737 105.989 124.737 119.424 124.737 119.424Z" fill="#263238"/>
<path d="M96.8772 84.7252C99.8907 87.5199 105.493 88.414 105.493 88.414C105.493 88.414 109.513 86.3133 110.713 84.6315C108.681 83.0622 108.256 82.9184 107.587 81.7367C107.226 81.0294 107.082 80.231 107.174 79.4422C107.208 79.0022 107.275 78.5654 107.374 78.1355L96.8772 73.5527C98.3714 76.8226 100.091 82.1494 96.8772 84.7252Z" fill="#FFC2B0"/>
<path opacity="0.2" d="M99.3906 76.6538C100.016 80.7177 105.099 81.618 107.587 81.7368C107.226 81.0295 107.082 80.231 107.174 79.4422L99.3906 76.6538Z" fill="black"/>
<path d="M105.268 61.561C105.268 61.561 111.688 63.918 107.768 70.9766C105.668 74.7279 101.591 62.7301 101.591 62.7301L105.268 61.561Z" fill="#263238"/>
<path d="M99.6156 78.9291C100.631 79.7472 101.886 80.2098 103.189 80.246C104.493 80.2821 105.772 79.8898 106.831 79.1292C108.221 78.1739 109.192 76.7216 109.544 75.0716C109.597 74.8427 109.636 74.611 109.663 74.3776C110.125 70.0386 108.587 63.1738 103.761 61.9047C102.696 61.6185 101.577 61.6094 100.508 61.8783C99.4391 62.1472 98.4569 62.6851 97.6548 63.4409C96.8526 64.1966 96.2572 65.1451 95.9252 66.196C95.5933 67.2469 95.5357 68.3653 95.7581 69.4447C96.6396 74.0837 96.9335 76.8472 99.6156 78.9291Z" fill="#FFC2B0"/>
<path d="M108.831 69.9136C109.633 70.2169 110.303 70.7912 110.726 71.5369C111.148 72.2826 111.296 73.1527 111.145 73.9962C110.451 78.6728 105.055 82.3052 99.6157 78.9291C94.7453 75.8968 108.831 69.9136 108.831 69.9136Z" fill="#FFC2B0"/>
<path d="M98.4401 63.168L98.9965 63.9745C97.5523 64.7497 98.1713 66.4753 98.6277 67.2256C99.5967 68.8324 99.0966 71.6771 97.9649 72.9775C97.9649 72.9775 97.7899 72.2398 97.1897 72.5274C96.5895 72.815 97.4585 76.6725 99.0153 78.3043C99.0153 78.3043 96.8583 76.9601 95.0827 73.065C93.4447 69.4701 92.0004 65.9001 93.8323 63.168H98.4401Z" fill="#263238"/>
<path d="M94.2137 73.5464C94.5373 74.0372 94.9547 74.4595 95.4417 74.7888C95.9288 75.1182 96.476 75.3482 97.0521 75.4658C98.5964 75.7721 99.2466 74.3591 98.7215 72.9649C98.24 71.7145 96.8458 70.0389 95.3578 70.3765C93.8698 70.7142 93.4197 72.321 94.2137 73.5464Z" fill="#FFC2B0"/>
<path d="M104.111 63.6618C104.111 63.6618 108.519 60.7545 107.681 58.5288C106.843 56.3031 105.805 59.0977 105.805 59.0977C105.805 59.0977 106.218 57.2721 104.942 57.1846C103.667 57.0971 104.211 58.0911 103.629 58.8477C103.048 59.6042 96.352 59.4729 94.4076 61.0671C92.4632 62.6614 94.6701 66.9816 94.6701 66.9816C94.6701 66.9816 98.0588 62.1425 104.111 63.6618Z" fill="#263238"/>
<path d="M107.887 86.538L106.487 90.2392L110.144 109.189L108.781 111.234L106.487 109.371L105.205 90.6706L101.754 86.7818L105.205 85.894L107.887 86.538Z" fill="#7A8BEB"/>
<path d="M98.2463 81.8052L105.267 85.2251L108.231 82.0803L111.688 84.1747L109.369 89.5515L105.492 86.5943L102.804 89.8641L95.6892 84.131L98.2463 81.8052Z" fill="#263238"/>
<path opacity="0.2" d="M98.2463 81.8052L105.267 85.2251L108.231 82.0803L111.688 84.1747L109.369 89.5515L105.492 86.5943L102.804 89.8641L95.6892 84.131L98.2463 81.8052Z" fill="white"/>
<path opacity="0.2" d="M89.831 112.097C89.7372 108.577 89.6747 104.419 89.6372 100.512L92.5694 98.0108C92.5694 98.0108 92.9946 108.283 89.831 112.097Z" fill="black"/>
<path opacity="0.2" d="M112.551 159.513C111.457 153.742 110.444 148.153 109.881 144.47C111.41 142.813 112.462 140.774 112.926 138.568C112.926 138.568 114.352 149.772 112.551 159.513Z" fill="black"/>
<path d="M73.3631 102.625L68.6615 100.455C68.6615 100.455 67.1422 99.2549 66.1606 99.355C65.1791 99.455 58.9957 100.349 58.6581 100.455C58.3205 100.562 59.2833 104.669 60.4775 104.488C61.6716 104.307 66.2294 104.707 66.8359 104L72.3377 108.258L73.3631 102.625Z" fill="#FFC2B0"/>
<path d="M89.7998 86.8882C87.3364 87.1633 81.2969 101.149 78.9274 102.606C76.5578 104.063 70.8934 100.905 70.8934 100.905L68.3926 107.039C68.3926 107.039 77.7082 113.916 80.9906 113.328C87.3489 112.234 91.5066 103.212 91.5066 103.212C91.5066 103.212 93.9511 95.5974 91.7754 89.8267C91.3156 88.7273 90.6443 87.7289 89.7998 86.8882Z" fill="#263238"/>
<path opacity="0.2" d="M89.7998 86.8882C87.3364 87.1633 81.2969 101.149 78.9274 102.606C76.5578 104.063 70.8934 100.905 70.8934 100.905L68.3926 107.039C68.3926 107.039 77.7082 113.916 80.9906 113.328C87.3489 112.234 91.5066 103.212 91.5066 103.212C91.5066 103.212 93.9511 95.5974 91.7754 89.8267C91.3156 88.7273 90.6443 87.7289 89.7998 86.8882Z" fill="white"/>
</g>
<defs>
<clipPath id="clip0_39_5593">
<rect width="370" height="250" fill="white"/>
</clipPath>
</defs>
</svg>
