<svg width="370" height="250" viewBox="0 0 370 250" fill="none" xmlns="http://www.w3.org/2000/svg">
<g clip-path="url(#clip0_39_6641)">
<path d="M0 0.09375H370V250.094H0V0.09375Z" fill="#6377EE"/>
<path d="M0 0.09375H370V250.094H0V0.09375Z" fill="#EDF1FE"/>
<g style="mix-blend-mode:multiply">
<path d="M175.552 227.28C237.161 227.28 287.105 195.851 287.105 157.082C287.105 118.312 237.161 86.8828 175.552 86.8828C113.944 86.8828 64 118.312 64 157.082C64 195.851 113.944 227.28 175.552 227.28Z" fill="#F5F5F5"/>
</g>
<path d="M214.364 211.898C227.951 211.898 238.964 205.54 238.964 197.697C238.964 189.854 227.951 183.496 214.364 183.496C200.778 183.496 189.764 189.854 189.764 197.697C189.764 205.54 200.778 211.898 214.364 211.898Z" fill="#E0E0E0"/>
<path opacity="0.3" d="M76.387 95.2045L76.4819 95.2573L76.3606 95.194L76.1339 95.0621L76.387 95.2045Z" fill="black"/>
<path d="M74.6523 93.8854C74.6338 93.9473 74.6338 94.0133 74.6523 94.0752C74.631 94.0137 74.631 93.9468 74.6523 93.8854L75.0003 92.7252L74.6523 93.8854Z" fill="#7A8BEB"/>
<path opacity="0.4" d="M74.6523 93.8854C74.6338 93.9473 74.6338 94.0133 74.6523 94.0752C74.631 94.0137 74.631 93.9468 74.6523 93.8854L75.0003 92.7252L74.6523 93.8854Z" fill="white"/>
<path d="M107.226 87.3467C107.226 87.7738 107.226 88.2062 107.163 88.6545C107.163 88.7156 107.175 88.7761 107.199 88.8325C107.222 88.8889 107.257 88.9399 107.301 88.9827C107.344 89.0254 107.396 89.059 107.453 89.0814C107.51 89.1038 107.571 89.1146 107.632 89.1132L110.432 89.2714C110.504 89.2696 110.574 89.2859 110.638 89.3189L107.226 87.3467Z" fill="#7A8BEB"/>
<path d="M97.7654 105.983C97.6493 105.798 97.3435 105.809 97.0693 105.983C96.7951 106.157 96.4101 106.41 96.0884 106.605L99.5214 108.598C99.4875 108.584 99.4583 108.56 99.437 108.53L97.7654 105.983Z" fill="#7A8BEB"/>
<path d="M88.832 107.781C88.3134 107.585 87.8306 107.305 87.4029 106.953C87.2858 106.886 87.1491 106.862 87.0163 106.885C86.8835 106.908 86.7629 106.977 86.6752 107.079L83.3424 110.127C83.244 110.223 83.1153 110.281 82.9786 110.291L88.2519 113.36C88.1982 113.329 88.1559 113.281 88.1312 113.224C88.1066 113.167 88.1008 113.104 88.1148 113.043L89.1695 108.366C89.1906 108.244 89.1685 108.119 89.1068 108.012C89.0451 107.905 88.9479 107.823 88.832 107.781Z" fill="#7A8BEB"/>
<path d="M98.5356 99.2696C97.407 100.555 95.948 101.507 94.3169 102.022L94.1376 102.065L94.0111 102.096L93.721 102.144L93.3835 102.175H93.0724C92.4119 102.181 91.7651 101.987 91.2166 101.619C90.668 101.252 90.2433 100.727 89.998 100.113C89.7601 99.569 89.6088 98.9907 89.5498 98.3995C89.8029 98.2835 90.0771 98.1464 90.325 97.9988C93.9478 95.8894 96.8797 90.827 96.8797 86.6453C96.8797 86.3289 96.8797 86.0283 96.8428 85.7541C97.5658 85.4126 98.3585 85.2447 99.1578 85.2636H99.3002H99.4162H99.5428C100.111 85.3465 100.647 85.5772 101.098 85.9326C101.548 86.288 101.898 86.7556 102.111 87.2886C103.466 90.3946 101.879 95.7418 98.5356 99.2696Z" fill="#7A8BEB"/>
<path opacity="0.4" d="M98.5356 99.2696C97.407 100.555 95.948 101.507 94.3169 102.022L94.1376 102.065L94.0111 102.096L93.721 102.144L93.3835 102.175H93.0724C92.4119 102.181 91.7651 101.987 91.2166 101.619C90.668 101.252 90.2433 100.727 89.998 100.113C89.7601 99.569 89.6088 98.9907 89.5498 98.3995C89.8029 98.2835 90.0771 98.1464 90.325 97.9988C93.9478 95.8894 96.8797 90.827 96.8797 86.6453C96.8797 86.3289 96.8797 86.0283 96.8428 85.7541C97.5658 85.4126 98.3585 85.2447 99.1578 85.2636H99.3002H99.4162H99.5428C100.111 85.3465 100.647 85.5772 101.098 85.9326C101.548 86.288 101.898 86.7556 102.111 87.2886C103.466 90.3946 101.879 95.7418 98.5356 99.2696Z" fill="black"/>
<path d="M110.664 89.3296C110.603 89.2967 110.534 89.2786 110.464 89.2769L107.664 89.1187C107.603 89.1208 107.542 89.1107 107.485 89.0888C107.428 89.067 107.377 89.0339 107.333 88.9916C107.289 88.9493 107.254 88.8986 107.23 88.8425C107.207 88.7864 107.194 88.7261 107.194 88.6652C107.231 88.2222 107.252 87.7845 107.258 87.3574C107.263 86.8925 107.242 86.4277 107.194 85.9652C107.205 85.6627 107.314 85.372 107.506 85.1373L110.627 81.3564C110.721 81.2528 110.787 81.1279 110.82 80.9926C110.853 80.8574 110.852 80.716 110.817 80.5812L109.335 77.2959C109.316 77.253 109.282 77.2178 109.24 77.1957C109.119 77.1324 108.935 77.1957 108.761 77.3433L105.391 80.3702C105.302 80.4709 105.181 80.5379 105.049 80.56C104.916 80.582 104.78 80.5579 104.663 80.4915C104.235 80.1427 103.754 79.8633 103.239 79.6636C103.124 79.621 103.026 79.5391 102.965 79.4321C102.903 79.3251 102.881 79.1999 102.902 79.0783L103.957 74.4061C103.973 74.3435 103.967 74.2774 103.942 74.2181C103.916 74.1589 103.871 74.11 103.814 74.0791C103.718 74.0302 103.61 74.0101 103.503 74.0211L100.244 74.3481C100.09 74.3674 99.9425 74.426 99.8169 74.5183C99.6914 74.6106 99.5916 74.7336 99.527 74.8754L97.7604 79.6214C97.6078 79.9254 97.3569 80.1688 97.0485 80.3122C96.345 80.6477 95.6696 81.0392 95.0288 81.4829C94.7546 81.6675 94.4488 81.678 94.3275 81.4829L92.6558 78.9306C92.5398 78.7513 92.2709 78.7882 92.0547 79.015L88.4741 82.796C88.3704 82.8968 88.2913 83.0201 88.2429 83.1563C88.1944 83.2925 88.1779 83.4381 88.1946 83.5817L89.1913 86.9619C89.236 87.2455 89.1719 87.5356 89.012 87.774C88.4076 88.6944 87.8565 89.6487 87.3614 90.6322C87.1881 90.9199 86.9104 91.1296 86.5862 91.2175L83.5171 91.9558C83.3654 91.9916 83.224 92.0621 83.1041 92.1618C82.9842 92.2616 82.8891 92.3878 82.8263 92.5306L81.2812 97.7248C81.265 97.7817 81.2628 97.8417 81.2746 97.8997C81.2865 97.9577 81.3121 98.012 81.3493 98.058C81.3865 98.104 81.4343 98.1404 81.4885 98.1641C81.5427 98.1878 81.6019 98.1981 81.6609 98.1941L84.4663 98.3523C84.5272 98.3502 84.5879 98.3604 84.6448 98.3822C84.7016 98.404 84.7535 98.4371 84.7973 98.4794C84.8411 98.5218 84.8759 98.5725 84.8997 98.6285C84.9235 98.6846 84.9357 98.7449 84.9357 98.8058C84.8513 99.7038 84.8513 100.608 84.9357 101.506C84.9311 101.807 84.8231 102.097 84.6298 102.328L81.508 106.115C81.414 106.219 81.3474 106.345 81.3142 106.481C81.2811 106.617 81.2824 106.76 81.3182 106.895L82.8 110.175C82.8181 110.217 82.8496 110.253 82.8896 110.275C82.9244 110.297 82.9647 110.308 83.0056 110.307C83.1446 110.296 83.2753 110.236 83.3748 110.138L86.6759 107.069C86.7654 106.969 86.8862 106.903 87.0185 106.881C87.1507 106.859 87.2865 106.882 87.4036 106.948C87.834 107.297 88.3161 107.576 88.8327 107.776C88.9476 107.819 89.0436 107.902 89.1043 108.009C89.165 108.115 89.1864 108.24 89.1649 108.361L88.1102 113.033C88.095 113.095 88.1001 113.159 88.1248 113.217C88.1496 113.275 88.1926 113.324 88.2473 113.355C88.3401 113.408 88.4482 113.426 88.5532 113.408L91.8121 113.086C91.9637 113.07 92.1088 113.017 92.2342 112.93C92.3595 112.843 92.461 112.727 92.5293 112.59L94.3011 107.844C94.4582 107.544 94.7078 107.302 95.013 107.154C95.3558 106.995 95.7038 106.811 96.0677 106.626C96.4316 106.442 96.7269 106.225 97.0538 106.004C97.3808 105.782 97.6339 105.804 97.7499 106.004L99.4215 108.556C99.443 108.588 99.472 108.613 99.5059 108.63C99.6377 108.714 99.8487 108.656 100.033 108.472L103.619 104.686C103.721 104.585 103.799 104.463 103.847 104.327C103.894 104.192 103.91 104.048 103.893 103.905L102.897 100.525C102.854 100.241 102.92 99.9508 103.081 99.7128C103.688 98.7932 104.238 97.8369 104.727 96.8494C104.903 96.5646 105.183 96.3587 105.507 96.2746L108.571 95.5364C108.724 95.5012 108.866 95.4303 108.986 95.3294C109.106 95.2286 109.201 95.1007 109.262 94.9563L110.812 89.762C110.845 89.6844 110.848 89.5974 110.821 89.5177C110.793 89.4379 110.738 89.371 110.664 89.3296ZM94.3169 102.017L94.1376 102.065L94.0058 102.091C93.9101 102.112 93.8133 102.128 93.7158 102.139L93.3783 102.175H93.0724C92.4115 102.18 91.7646 101.985 91.2161 101.617C90.6676 101.248 90.2431 100.722 89.9981 100.108C89.7601 99.5658 89.6089 98.9893 89.5498 98.3998C89.5134 98.0847 89.4958 97.7677 89.4971 97.4506C89.4971 94.487 91.0369 90.822 93.547 88.1748C94.2712 87.3918 95.1041 86.7169 96.0202 86.1709C96.2845 86.0116 96.5593 85.8707 96.8429 85.749C97.5667 85.4102 98.3588 85.2424 99.1579 85.2586H99.295H99.4163H99.5428C100.111 85.3425 100.648 85.5741 101.098 85.9304C101.549 86.2867 101.898 86.7552 102.111 87.2889C103.493 90.3527 101.905 95.6946 98.562 99.2224C97.432 100.528 95.9628 101.495 94.3169 102.017Z" fill="#7A8BEB"/>
<path opacity="0.2" d="M87.1553 90.8377C86.9861 91.0096 86.7754 91.1349 86.5436 91.2016L83.4745 91.9399C83.2552 91.9982 83.0586 92.1214 82.9103 92.2932L76.3028 88.4964C76.45 88.309 76.6563 88.1771 76.8881 88.122L79.9519 87.3784C80.1812 87.3216 80.3896 87.2009 80.5531 87.0304L87.1553 90.8377Z" fill="black"/>
<path opacity="0.3" d="M89.1644 87.0305L82.5727 83.2337C82.581 83.1937 82.581 83.1525 82.5727 83.1125L81.5708 79.7375C81.5377 79.6275 81.5377 79.5101 81.5708 79.4L86.6227 82.2845L88.2047 83.181C88.1592 83.3004 88.1482 83.4301 88.173 83.5554L89.1697 86.9304C89.1735 86.9638 89.1717 86.9977 89.1644 87.0305Z" fill="black"/>
<path opacity="0.3" d="M99.664 74.601C99.5872 74.6688 99.5276 74.7537 99.4899 74.8489L97.7181 79.5949L91.1212 75.7875C91.1212 75.7875 91.1212 75.7875 91.1212 75.7559L92.893 71.0099C92.929 70.9181 92.9869 70.8367 93.0617 70.7726L99.664 74.601Z" fill="black"/>
<path opacity="0.3" d="M109.171 77.159C109.087 77.144 109.001 77.1511 108.92 77.1798C108.84 77.2085 108.768 77.2577 108.713 77.3225L105.39 80.3652C105.301 80.4663 105.179 80.5339 105.046 80.5569C104.913 80.5799 104.776 80.557 104.657 80.4918C104.23 80.1421 103.749 79.8626 103.234 79.6639C103.117 79.6211 103.019 79.5384 102.957 79.4303C102.895 79.3222 102.874 79.1957 102.896 79.0733L103.951 74.4116C103.967 74.3483 103.962 74.2813 103.936 74.2212C103.911 74.1611 103.866 74.1112 103.808 74.0794C103.713 74.0267 103.223 73.7472 102.553 73.3517C102.595 73.3522 102.636 73.3612 102.675 73.3781C102.701 73.3884 102.726 73.4026 102.748 73.4202L109.171 77.159Z" fill="black"/>
<path opacity="0.3" d="M110.664 89.319C110.601 89.286 110.53 89.2697 110.458 89.2716L107.658 89.1134C107.597 89.1148 107.536 89.1039 107.48 89.0815C107.423 89.0591 107.371 89.0255 107.327 88.9828C107.283 88.94 107.249 88.889 107.225 88.8326C107.201 88.7763 107.189 88.7157 107.189 88.6546C107.226 88.2064 107.252 87.7739 107.252 87.3468L110.664 89.319Z" fill="black"/>
<path opacity="0.4" d="M99.5214 108.604L96.0884 106.61C96.4101 106.415 96.7423 106.209 97.0693 105.988C97.3962 105.767 97.6493 105.788 97.7654 105.988L99.437 108.54C99.459 108.569 99.4881 108.59 99.5214 108.604Z" fill="black"/>
<path opacity="0.4" d="M89.1646 108.366L88.1099 113.044C88.0959 113.104 88.1017 113.168 88.1264 113.224C88.151 113.281 88.1933 113.329 88.247 113.36L82.9737 110.291C83.1104 110.281 83.2391 110.223 83.3376 110.128L86.6756 107.069C86.7633 106.967 86.8839 106.898 87.0167 106.875C87.1495 106.852 87.2862 106.876 87.4033 106.942C87.831 107.295 88.3138 107.575 88.8324 107.77C88.9494 107.814 89.047 107.898 89.1078 108.007C89.1687 108.116 89.1888 108.244 89.1646 108.366Z" fill="black"/>
<path opacity="0.2" d="M84.8245 101.864C84.7696 102.027 84.6857 102.179 84.5766 102.312L81.4548 106.099C81.3639 106.212 81.2975 106.343 81.2597 106.484L74.668 102.671C74.7028 102.529 74.7696 102.398 74.8631 102.286L77.9902 98.4997C78.0949 98.3672 78.1752 98.2173 78.2275 98.0568L84.8245 101.864Z" fill="black"/>
<path opacity="0.1" d="M97.7069 79.6159C97.5505 79.9069 97.3046 80.1398 97.0056 80.2803C96.3021 80.6139 95.6267 81.0036 94.9859 81.4457C94.7117 81.6356 94.4058 81.6514 94.2845 81.4457L92.6182 78.8934C92.5967 78.8621 92.5677 78.8368 92.5338 78.8196H92.5074L89.3751 77.0108C89.7174 76.8173 90.0694 76.6412 90.4297 76.4835L90.551 76.415C90.6736 76.3388 90.7869 76.2486 90.8885 76.146C90.9317 76.1028 90.9722 76.057 91.0098 76.0089C91.0377 75.9812 91.0609 75.9492 91.0784 75.914L91.1258 75.8243L97.7069 79.6159Z" fill="black"/>
<path opacity="0.4" d="M84.8879 101.485C84.8945 101.614 84.8748 101.743 84.8299 101.864L78.233 98.0571C78.2793 97.9361 78.3009 97.807 78.2963 97.6774C78.2528 97.2147 78.2334 96.75 78.2382 96.2853L81.4022 98.1046C81.4701 98.1428 81.546 98.1644 81.6237 98.1679L84.4291 98.3261C84.4905 98.3239 84.5516 98.3342 84.6088 98.3564C84.666 98.3786 84.7181 98.4121 84.762 98.455C84.8059 98.4979 84.8406 98.5492 84.8641 98.6059C84.8875 98.6626 84.8992 98.7235 84.8985 98.7848C84.8125 99.6826 84.809 100.586 84.8879 101.485Z" fill="black"/>
<path opacity="0.1" d="M89.1647 87.0301C89.1731 87.28 89.105 87.5266 88.9696 87.7368C88.363 88.6558 87.8118 89.6102 87.319 90.5949C87.2762 90.6751 87.2211 90.7481 87.1555 90.8111L80.5586 87.0301C80.5961 86.9966 80.6281 86.9575 80.6535 86.9141C80.686 86.884 80.7128 86.8483 80.7326 86.8087C81.2195 85.8201 81.7691 84.8637 82.3779 83.9452C82.4105 83.8977 82.4371 83.8464 82.457 83.7923C82.4773 83.76 82.4916 83.7242 82.4992 83.6868C82.503 83.6695 82.503 83.6515 82.4992 83.6341C82.4992 83.6341 82.4992 83.6341 82.4992 83.6025C82.5147 83.5562 82.5253 83.5085 82.5308 83.4601C82.5461 83.3906 82.5461 83.3186 82.5308 83.2491L89.1647 87.0301Z" fill="black"/>
<path opacity="0.3" d="M80.6536 86.9147C80.6281 86.958 80.5961 86.9972 80.5587 87.0307C80.5932 86.9945 80.6249 86.9557 80.6536 86.9147Z" fill="black"/>
<path opacity="0.4" d="M82.8361 110.26L81.4914 109.484L81.2382 109.337L79.0762 108.087C78.8758 107.971 78.6807 107.85 78.4908 107.744L76.2707 106.463C76.25 106.453 76.232 106.439 76.218 106.421C76.2015 106.401 76.1874 106.38 76.1758 106.357L74.6887 103.072C74.6611 102.983 74.6611 102.887 74.6887 102.798C74.6887 102.761 74.6887 102.719 74.6887 102.682L81.2804 106.494C81.235 106.622 81.235 106.762 81.2804 106.89L82.7622 110.165C82.7774 110.203 82.803 110.236 82.8361 110.26Z" fill="black"/>
<path opacity="0.3" d="M76.3031 88.4957C76.2543 88.5552 76.2168 88.6231 76.1924 88.6961L76.0025 89.3447L74.9953 92.7355L74.6526 93.8956C74.6377 93.9438 74.6332 93.9946 74.6396 94.0446C74.646 94.0947 74.663 94.1428 74.6895 94.1857C74.7101 94.2186 74.737 94.2473 74.7686 94.27L74.8213 94.307L75.3486 94.6023L75.491 94.6866L75.9023 94.9239L76.1238 95.0558L76.3769 95.1981L76.4719 95.2509L76.7408 95.4091L78.2332 96.2686L81.3972 98.0879C81.3326 98.0488 81.2833 97.9887 81.2575 97.9178C81.2316 97.8469 81.2306 97.7692 81.2548 97.6977L82.61 93.131L82.7999 92.4982C82.8266 92.4165 82.8696 92.3412 82.9264 92.2767L76.3031 88.4957Z" fill="black"/>
<path opacity="0.5" d="M89.3753 77.0114L85.9529 75.0234C85.9074 74.9994 85.8567 74.9868 85.8053 74.9865C85.7319 74.9907 85.6602 75.0103 85.5948 75.0439C85.5294 75.0775 85.4718 75.1244 85.4256 75.1816L83.2846 77.4491L81.845 78.9678C81.727 79.0956 81.6404 79.2491 81.5919 79.4161L86.6226 82.2848L88.2046 83.1812C88.256 83.0276 88.3406 82.8871 88.4525 82.7699L88.4999 82.7172L92.0331 78.9836C92.0898 78.9096 92.1669 78.8537 92.255 78.8228C92.343 78.7919 92.4382 78.7873 92.5288 78.8096L89.3753 77.0114Z" fill="white"/>
<path opacity="0.5" d="M103.75 74.0634C103.66 74.0281 103.562 74.0154 103.466 74.0265L100.201 74.3535C100.003 74.3758 99.8179 74.4629 99.6742 74.6013L93.0772 70.794C93.2221 70.6554 93.4063 70.5652 93.6045 70.5356L96.8687 70.2086C96.98 70.195 97.0926 70.2172 97.1904 70.2719C97.1904 70.2719 97.5543 70.4776 98.0711 70.7992L98.5035 71.0471L101.298 72.666L101.989 73.072L102.516 73.3515C103.165 73.7312 103.656 74.0107 103.75 74.0634Z" fill="white"/>
<path d="M183.324 31.8663C183.182 30.8116 182.328 30.4214 181.31 31.012L125.159 63.4272C124.566 63.816 124.072 64.3387 123.718 64.9533C123.363 65.5679 123.158 66.2572 123.119 66.9656V190.889C123.119 192.091 123.894 192.635 124.901 192.197C124.292 192.454 123.634 192.575 122.973 192.553C122.312 192.532 121.664 192.367 121.073 192.07L118.736 190.72C118.14 190.334 117.643 189.812 117.288 189.197C116.932 188.582 116.727 187.892 116.69 187.182V63.2637C116.727 62.5542 116.932 61.8635 117.288 61.2484C117.643 60.6333 118.14 60.1113 118.736 59.7253L174.876 27.3048C175.51 26.985 176.21 26.8184 176.92 26.8184C177.63 26.8184 178.33 26.985 178.963 27.3048L181.326 28.6548C181.87 29.0155 182.33 29.4889 182.675 30.043C183.019 30.5971 183.241 31.2189 183.324 31.8663Z" fill="#37474F"/>
<path d="M181.325 31.0119L125.159 63.4271C124.565 63.8159 124.072 64.3386 123.717 64.9532C123.363 65.5678 123.157 66.2571 123.118 66.9655V190.889C123.118 192.192 124.036 192.719 125.159 192.07L181.325 159.634C181.918 159.245 182.411 158.722 182.765 158.107C183.118 157.493 183.323 156.804 183.361 156.096V32.1878C183.345 30.8906 182.433 30.3633 181.325 31.0119ZM180.424 144.426C180.424 145.538 179.643 146.25 178.673 146.809L127.622 176.282C126.657 176.841 125.871 176.387 125.871 175.269V78.8042C125.904 78.196 126.08 77.6042 126.384 77.0765C126.688 76.5488 127.112 76.1002 127.622 75.7667L178.673 46.2993C179.643 45.7351 180.424 46.1886 180.424 47.3012V144.426Z" fill="#455A64"/>
<path d="M124.901 192.176C124.292 192.433 123.634 192.554 122.973 192.532C122.312 192.511 121.664 192.346 121.073 192.049L118.736 190.699C118.14 190.313 117.644 189.791 117.288 189.176C116.933 188.561 116.728 187.87 116.69 187.161V63.2638C116.714 62.5501 116.921 61.8545 117.292 61.2441L123.72 64.9355C123.353 65.5455 123.146 66.2384 123.119 66.9499V190.873C123.119 192.07 123.894 192.614 124.901 192.176Z" fill="#263238"/>
<path d="M153.235 50.4974C153.989 50.0597 154.601 50.413 154.601 51.2884C154.575 51.7625 154.437 52.2238 154.2 52.6352C153.963 53.0465 153.632 53.3962 153.235 53.6561C152.475 54.0938 151.864 53.7405 151.864 52.8651C151.889 52.3902 152.027 51.928 152.265 51.5165C152.503 51.1049 152.836 50.7557 153.235 50.4974Z" fill="#263238"/>
<path d="M149.279 57.3309C152.058 55.7963 157.021 52.8433 159.763 51.2296C160.232 50.9554 160.606 51.1453 160.606 51.6515C160.585 51.9356 160.497 52.2107 160.351 52.4551C160.204 52.6995 160.003 52.9064 159.763 53.0595L149.258 59.1238C148.789 59.3928 148.409 59.2029 148.409 58.6967C148.433 58.4157 148.525 58.1446 148.676 57.9068C148.828 57.6689 149.035 57.4713 149.279 57.3309Z" fill="#263238"/>
<path d="M146.627 58.8657C147.049 58.6231 147.392 58.8182 147.392 59.3086C147.381 59.5789 147.306 59.8428 147.173 60.0784C147.04 60.314 146.853 60.5147 146.627 60.6639C146.2 60.9065 145.857 60.7114 145.857 60.2209C145.869 59.9501 145.944 59.6858 146.078 59.4501C146.212 59.2144 146.4 59.014 146.627 58.8657Z" fill="#263238"/>
<path d="M152.28 172.864C151.938 172.868 151.602 172.78 151.305 172.611C150.614 172.211 150.25 171.388 150.25 170.296C150.316 169.134 150.654 168.003 151.238 166.995C151.821 165.988 152.634 165.131 153.609 164.496C154.553 163.968 155.455 163.868 156.151 164.269C156.847 164.67 157.206 165.492 157.206 166.584C157.139 167.746 156.802 168.876 156.219 169.883C155.637 170.891 154.826 171.748 153.852 172.385C153.378 172.678 152.837 172.843 152.28 172.864ZM155.154 164.533C154.692 164.553 154.243 164.693 153.852 164.939C152.949 165.525 152.197 166.315 151.656 167.246C151.116 168.177 150.802 169.222 150.74 170.296C150.74 171.193 151.03 171.878 151.553 172.153C152.075 172.427 152.797 172.374 153.572 171.926C154.47 171.338 155.218 170.547 155.755 169.618C156.291 168.688 156.602 167.645 156.662 166.573C156.662 165.677 156.372 165.018 155.85 164.712C155.635 164.6 155.396 164.544 155.154 164.548V164.533Z" fill="#E6E6E6"/>
<path d="M180.408 47.3016V144.431C180.375 145.038 180.199 145.628 179.895 146.154C179.591 146.68 179.167 147.127 178.657 147.458L127.606 176.931C126.641 177.458 125.855 177.042 125.855 175.924V169.865L172.213 143.102C173.184 142.543 173.964 141.837 173.964 140.724V49.0102L178.657 46.2997C179.628 45.7407 180.408 46.1942 180.408 47.3016Z" fill="#37474F"/>
<path d="M178.657 46.2997L173.943 49.0102V140.724C173.927 141.133 173.809 141.532 173.6 141.884C173.391 142.235 173.097 142.529 172.746 142.739L179.527 146.657C180.043 146.025 180.344 145.246 180.387 144.431V47.3016C180.408 46.1942 179.627 45.7407 178.657 46.2997Z" fill="#263238"/>
<path d="M130.522 145.781L127.601 144.093C127.543 144.069 127.495 144.027 127.464 143.972L126.937 143.033L128.671 142.031L128.619 142.184L130.522 145.781Z" fill="#E0E0E0"/>
<path d="M128.397 142.174L130.422 145.675C130.453 145.72 130.495 145.756 130.544 145.78C130.593 145.803 130.648 145.812 130.702 145.807C130.756 145.801 130.808 145.781 130.851 145.749C130.895 145.716 130.929 145.673 130.95 145.622L133.091 139.453L128.397 142.174Z" fill="#EBEBEB"/>
<path d="M137.937 123.49C137.908 122.998 137.763 122.519 137.514 122.094C137.265 121.668 136.918 121.308 136.502 121.043L135.353 120.379C134.914 120.159 134.43 120.045 133.94 120.045C133.449 120.045 132.965 120.159 132.526 120.379L109.645 133.562C109.234 133.83 108.891 134.191 108.645 134.616C108.4 135.041 108.258 135.518 108.232 136.009V147.61C108.259 148.1 108.401 148.577 108.646 149.002C108.892 149.427 109.234 149.789 109.645 150.057L110.8 150.721C111.237 150.942 111.721 151.058 112.211 151.058C112.701 151.058 113.184 150.942 113.621 150.721L136.634 137.427C137.905 136.705 137.916 135.977 137.916 135.075L137.937 123.49Z" fill="#EBEBEB"/>
<path d="M108.259 147.61C108.285 148.1 108.426 148.577 108.67 149.002C108.915 149.427 109.256 149.788 109.667 150.057L110.822 150.721C111.22 150.922 111.656 151.035 112.101 151.055C112.546 151.075 112.991 151.001 113.406 150.837C112.741 151.09 112.235 150.711 112.235 149.904V138.303C112.252 137.811 112.393 137.332 112.646 136.91L108.67 134.617C108.415 135.037 108.273 135.517 108.259 136.009V147.61Z" fill="#E0E0E0"/>
<path d="M137.889 123.089C137.726 122.488 137.177 122.298 136.523 122.673L113.642 135.856C113.226 136.116 112.884 136.479 112.651 136.911L108.675 134.617C108.911 134.186 109.255 133.823 109.671 133.562L132.542 120.379C132.982 120.159 133.466 120.044 133.958 120.044C134.449 120.044 134.934 120.159 135.374 120.379L136.502 121.043C136.861 121.271 137.169 121.571 137.408 121.922C137.647 122.274 137.81 122.672 137.889 123.089Z" fill="#FAFAFA"/>
<path d="M116.031 139.157L132.379 129.665C132.848 129.391 133.233 129.517 133.233 129.945C133.199 130.207 133.103 130.458 132.955 130.678C132.807 130.898 132.61 131.08 132.379 131.21L116.031 140.702C115.557 140.976 115.172 140.85 115.172 140.423C115.207 140.16 115.303 139.908 115.453 139.689C115.602 139.469 115.8 139.287 116.031 139.157Z" fill="#455A64"/>
<path d="M116.031 143.038L132.379 133.546C132.848 133.272 133.233 133.393 133.233 133.82C133.198 134.083 133.102 134.335 132.954 134.555C132.806 134.776 132.609 134.959 132.379 135.091L116.031 144.583C115.557 144.857 115.172 144.731 115.172 144.304C115.207 144.04 115.303 143.789 115.453 143.57C115.602 143.35 115.8 143.168 116.031 143.038Z" fill="#455A64"/>
<path d="M93.124 150.057L90.2026 148.37C90.1446 148.346 90.0963 148.303 90.0655 148.248L89.5381 147.31L91.2731 146.308L91.2203 146.461L93.124 150.057Z" fill="#7A8BEB"/>
<path opacity="0.2" d="M93.124 150.057L90.2026 148.37C90.1446 148.346 90.0963 148.303 90.0655 148.248L89.5381 147.31L91.2731 146.308L91.2203 146.461L93.124 150.057Z" fill="black"/>
<path d="M90.999 146.45L93.0187 149.952C93.05 149.995 93.0923 150.03 93.1412 150.052C93.1902 150.074 93.2441 150.083 93.2976 150.078C93.351 150.072 93.4021 150.053 93.4457 150.021C93.4893 149.99 93.5239 149.948 93.546 149.899L95.6553 143.729L90.999 146.45Z" fill="#7A8BEB"/>
<path d="M114.982 117.642C114.956 117.152 114.814 116.674 114.569 116.249C114.323 115.824 113.981 115.463 113.569 115.195L112.419 114.531C111.982 114.307 111.497 114.19 111.006 114.19C110.515 114.19 110.03 114.307 109.593 114.531L82.4299 130.219C82.0182 130.486 81.6756 130.848 81.43 131.273C81.1844 131.698 81.0428 132.175 81.0166 132.666V145.997C81.0428 146.487 81.1844 146.964 81.43 147.389C81.6756 147.815 82.0182 148.176 82.4299 148.443L83.5794 149.108C84.017 149.331 84.5013 149.448 84.9927 149.448C85.4841 149.448 85.9684 149.331 86.406 149.108L113.701 133.325C114.972 132.602 114.982 131.875 114.982 130.973V117.642Z" fill="#7A8BEB"/>
<path opacity="0.2" d="M81.0166 145.997C81.0428 146.487 81.1844 146.964 81.43 147.389C81.6756 147.815 82.0182 148.176 82.4299 148.443L83.5794 149.108C83.9773 149.309 84.4132 149.424 84.8585 149.445C85.3038 149.466 85.7484 149.392 86.1634 149.229C85.4989 149.477 84.9927 149.097 84.9927 148.291V134.96C85.0098 134.467 85.1532 133.988 85.4093 133.567L81.4332 131.273C81.1772 131.694 81.0337 132.173 81.0166 132.666V145.997Z" fill="black"/>
<path opacity="0.4" d="M114.935 117.241C114.771 116.64 114.223 116.45 113.569 116.825L86.4059 132.518C85.9853 132.774 85.6411 133.138 85.4092 133.573L81.4331 131.274C81.6712 130.844 82.014 130.481 82.4298 130.219L109.609 114.531C110.048 114.311 110.533 114.196 111.024 114.196C111.516 114.196 112.001 114.311 112.44 114.531L113.59 115.195C113.941 115.427 114.241 115.728 114.472 116.08C114.704 116.432 114.861 116.827 114.935 117.241Z" fill="white"/>
<path d="M88.7893 138.709L103.476 130.203C103.95 129.929 104.335 130.055 104.335 130.483C104.3 130.746 104.204 130.997 104.054 131.217C103.905 131.436 103.707 131.618 103.476 131.748L88.7893 140.249C88.32 140.523 87.9351 140.396 87.9351 139.969C87.9711 139.708 88.0669 139.458 88.2151 139.239C88.3632 139.021 88.5597 138.839 88.7893 138.709Z" fill="white"/>
<path d="M88.7893 142.585L109.419 130.614C109.888 130.34 110.273 130.467 110.273 130.894C110.238 131.156 110.143 131.408 109.995 131.627C109.847 131.847 109.649 132.029 109.419 132.159L88.7893 144.13C88.32 144.404 87.9351 144.277 87.9351 143.85C87.9703 143.588 88.0658 143.337 88.214 143.117C88.3622 142.898 88.5591 142.716 88.7893 142.585Z" fill="white"/>
<path d="M88.7893 134.633L109.419 122.662C109.888 122.388 110.273 122.514 110.273 122.942C110.238 123.204 110.142 123.455 109.994 123.674C109.846 123.894 109.649 124.076 109.419 124.207L88.7893 136.178C88.32 136.452 87.9351 136.325 87.9351 135.898C87.9695 135.635 88.0647 135.384 88.213 135.165C88.3612 134.945 88.5585 134.763 88.7893 134.633Z" fill="white"/>
<path d="M276.072 48.9987L273.931 47.7648C273.775 47.6925 273.604 47.6632 273.433 47.6799C273.262 47.6965 273.099 47.7586 272.961 47.8597L226.434 74.7221C226.035 74.9816 225.702 75.3318 225.464 75.7442C225.226 76.1566 225.088 76.6195 225.063 77.0951V101.136C225.044 101.309 225.072 101.483 225.146 101.64C225.219 101.798 225.335 101.932 225.48 102.027L227.589 103.256V101.268L272.94 75.086C273.338 74.8255 273.67 74.4751 273.908 74.0629C274.146 73.6507 274.284 73.1883 274.311 72.7129V49.8847L276.072 48.9987Z" fill="#E0E0E0"/>
<path d="M229.346 77.9862L274.332 52.015V49.9056L276.073 49.0197L273.932 47.7858C273.776 47.7135 273.604 47.6842 273.434 47.7008C273.263 47.7175 273.1 47.7796 272.961 47.8807L226.435 74.7431C226.028 74.9941 225.693 75.3466 225.464 75.7661L229.346 77.9862Z" fill="#FAFAFA"/>
<path d="M228.576 75.956L275.102 49.0936C275.862 48.6559 276.473 49.0145 276.473 49.8846V73.931C276.448 74.4065 276.31 74.8692 276.072 75.2816C275.834 75.6939 275.501 76.0442 275.102 76.304L228.576 103.166C227.816 103.599 227.205 103.246 227.205 102.375V78.329C227.232 77.8538 227.37 77.3915 227.608 76.9794C227.846 76.5672 228.177 76.2167 228.576 75.956Z" fill="#F5F5F5"/>
<path d="M230.948 78.2978L244.885 70.2507C245.766 69.7233 246.467 70.1558 246.467 71.1735V87.2677C246.439 87.821 246.282 88.36 246.007 88.8409C245.732 89.3219 245.348 89.7314 244.885 90.0362L230.948 98.1045C230.062 98.6318 229.366 98.1994 229.366 97.1816V81.0663C229.394 80.5131 229.552 79.9743 229.827 79.4934C230.101 79.0125 230.485 78.603 230.948 78.2978Z" fill="#7A8BEB"/>
<path d="M237.798 77.7066C239.275 76.8576 240.472 77.5484 240.472 79.257C240.422 80.1852 240.153 81.0885 239.689 81.8938C239.224 82.6991 238.577 83.3837 237.798 83.8923C236.317 84.7465 235.12 84.0557 235.12 82.3472C235.17 81.4174 235.438 80.5126 235.904 79.7063C236.369 78.8999 237.018 78.2148 237.798 77.7066Z" fill="#FAFAFA"/>
<path d="M243.072 86.8405C243.072 84.0351 241.105 82.7906 238.674 84.2038L237.155 85.0792C234.73 86.4819 232.757 89.8938 232.757 92.6992V93.4533L243.072 87.4997V86.8405Z" fill="#FAFAFA"/>
<path d="M251.91 67.4341L271.047 56.3601C271.675 55.9963 272.186 56.2547 272.186 56.9402C272.159 57.3232 272.041 57.6943 271.843 58.0233C271.646 58.3523 271.373 58.6299 271.047 58.8333L251.91 69.9073C251.277 70.2712 250.771 70.0128 250.771 69.3273C250.798 68.9443 250.916 68.5732 251.114 68.2442C251.312 67.9152 251.584 67.6376 251.91 67.4341Z" fill="#E0E0E0"/>
<path d="M251.91 72.3809L271.047 61.3069C271.675 60.943 272.186 61.2014 272.186 61.887C272.159 62.2708 272.042 62.6428 271.844 62.9727C271.646 63.3026 271.373 63.5811 271.047 63.7854L251.91 74.833C251.277 75.1969 250.771 74.9385 250.771 74.253C250.801 73.8736 250.92 73.5067 251.118 73.1817C251.316 72.8566 251.587 72.5823 251.91 72.3809Z" fill="#E0E0E0"/>
<path d="M251.91 77.3274L271.047 66.2797C271.675 65.9159 272.186 66.1743 272.186 66.8545C272.159 67.2383 272.042 67.6103 271.844 67.9402C271.646 68.2701 271.373 68.5486 271.047 68.7529L251.91 79.8006C251.277 80.1644 250.771 79.906 250.771 79.2205C250.798 78.8375 250.916 78.4664 251.114 78.1374C251.312 77.8084 251.584 77.5308 251.91 77.3274Z" fill="#E0E0E0"/>
<path d="M251.91 82.2844L271.047 71.2104C271.675 70.8465 272.186 71.1049 272.186 71.7852C272.159 72.169 272.042 72.541 271.844 72.8709C271.646 73.2008 271.373 73.4793 271.047 73.6836L251.91 84.7312C251.277 85.0951 250.771 84.8367 250.771 84.1512C250.802 83.7728 250.922 83.4069 251.119 83.0828C251.317 82.7587 251.588 82.4853 251.91 82.2844Z" fill="#E0E0E0"/>
<path opacity="0.2" d="M198.09 141.029C198.09 142.142 197.309 142.854 196.339 143.413L145.288 172.886C144.323 173.439 143.537 172.991 143.537 171.873V75.4289C143.57 74.8207 143.746 74.2289 144.05 73.7012C144.354 73.1736 144.778 72.7249 145.288 72.3915L196.339 42.924C197.309 42.3598 198.09 42.8133 198.09 43.926V141.029Z" fill="#7A8BEB"/>
<path d="M144.508 173.386C144.301 173.39 144.096 173.337 143.917 173.233C143.697 173.086 143.522 172.881 143.408 172.642C143.295 172.402 143.249 172.137 143.274 171.873V75.4288C143.304 74.7739 143.491 74.1357 143.818 73.5678C144.146 72.9998 144.605 72.5187 145.156 72.1646L196.208 42.6919C196.415 42.5215 196.67 42.4183 196.938 42.3961C197.206 42.3739 197.474 42.4338 197.707 42.5677C197.94 42.7017 198.126 42.9033 198.242 43.1459C198.358 43.3885 198.397 43.6606 198.354 43.9259V141.029C198.354 142.4 197.299 143.175 196.471 143.666L145.42 173.139C145.143 173.3 144.828 173.385 144.508 173.386ZM197.146 42.9239C196.914 42.9346 196.689 43.0055 196.492 43.1296L145.441 72.597C144.971 72.9069 144.58 73.3224 144.298 73.8104C144.017 74.2985 143.854 74.8454 143.822 75.4077V171.873C143.777 172.045 143.789 172.227 143.857 172.392C143.926 172.556 144.046 172.694 144.2 172.783C144.354 172.872 144.533 172.908 144.71 172.886C144.886 172.863 145.051 172.784 145.177 172.659L196.229 143.181C197.352 142.537 197.848 141.873 197.848 141.029V43.9048C197.869 43.7344 197.845 43.5614 197.778 43.4032C197.712 43.2449 197.605 43.107 197.468 43.003C197.369 42.9493 197.258 42.922 197.146 42.9239Z" fill="#7A8BEB"/>
<path d="M225.865 135.967C226.234 122.256 225.137 118.939 221.477 116.424L220.064 124.381C220.064 124.381 221.73 133.763 221.551 136.884C221.393 139.632 221.124 143.065 220.496 145.28C220.378 145.673 220.119 146.009 219.769 146.223C218.841 146.804 218.461 147.405 217.76 148.138C217.232 148.712 216.747 148.855 216.816 149.039C216.923 149.24 217.101 149.394 217.316 149.469C217.531 149.544 217.767 149.536 217.976 149.445C218.443 149.262 218.886 149.021 219.294 148.728C218.973 149.57 218.517 150.354 217.944 151.049C216.636 152.631 216.578 153.633 219.215 153.659C220.871 153.659 222.184 152.652 223.434 149.013C223.917 147.68 224.305 146.314 224.594 144.926C225.2 141.346 225.807 138.182 225.865 135.967Z" fill="#FFC2B0"/>
<path d="M218.403 115.379C219.525 115.183 220.681 115.355 221.697 115.87C222.713 116.386 223.535 117.216 224.04 118.237C225.575 120.974 225.949 125.689 226.149 130.366C226.149 130.366 223.107 132.908 219.458 131.658L218.403 115.379Z" fill="#37474F"/>
<path d="M223.539 190.915C223.813 191.021 223.882 191.548 223.924 192.598C223.956 193.389 224.13 194.776 223.196 195.055C222.263 195.335 220.903 195.192 220.307 194.443C219.587 193.437 218.816 192.469 217.997 191.543C217.079 190.557 216.083 189.634 215.708 188.247C215.376 186.992 215.656 186.449 216.51 186.085C217.686 185.584 219.532 187.219 220.454 187.477C221.245 187.709 223.26 190.821 223.539 190.915Z" fill="#263238"/>
<path d="M223.539 189.95V191.242C223.055 191.55 222.496 191.721 221.922 191.736C221.347 191.751 220.78 191.609 220.28 191.326C220.222 191.205 219.943 189.486 219.943 189.486L223.539 189.95Z" fill="#FFA8A7"/>
<path d="M213.098 198.351C213.325 199.043 213.515 199.747 213.668 200.46C213.826 201.235 214.053 202.538 213.784 203.123C213.515 203.708 212.439 204.099 210.794 204.099C209.739 204.099 208.062 204.816 206.918 205.454C205.774 206.092 203.295 206.371 202.045 206.224C200.579 206.05 199.061 205.201 198.823 204.594C198.586 203.988 198.897 203.355 202.357 201.878C202.388 201.878 207.171 200.296 208.843 198.467L213.098 198.351Z" fill="#263238"/>
<path d="M213.098 196.958V198.461C213.098 198.989 212.46 199.822 210.789 199.764C209.618 199.722 208.795 199.405 208.843 198.44V197.043L213.098 196.958Z" fill="#FFA8A7"/>
<path d="M224.378 172.849C224.091 170.565 223.581 168.314 222.854 166.13C222.854 166.13 223.312 160.33 223.534 154.851C223.771 148.918 223.534 141.467 223.634 139.985C223.634 139.985 204.497 136.115 204.154 142.97C203.812 149.825 204.914 167.275 205.135 170.291C205.357 173.307 205.884 175.965 206.506 180.838C207.129 185.71 208.842 197.032 208.842 197.032C209.504 197.37 210.238 197.539 210.981 197.524C211.723 197.51 212.451 197.312 213.098 196.948C213.098 196.948 214.448 183.237 214.306 179.762C214.196 177.188 213.753 174.639 212.987 172.179C212.987 172.179 213.351 166.526 213.673 161.632C213.994 156.739 214.332 154.35 214.406 152.214L214.817 152.008C214.817 152.008 215.239 160.493 215.46 163.504C215.682 166.515 216.167 169.4 217.042 174.995C217.802 179.852 220.054 190.119 220.054 190.119C222.237 191.3 223.544 189.961 223.544 189.961C223.544 189.961 224.963 177.062 224.378 172.849Z" fill="#37474F"/>
<path d="M214.406 152.204C214.406 152.204 219.046 149.915 221.372 147.854C221.372 147.854 219.215 150.891 216.383 152.241C216.383 152.241 215.376 162.788 215.381 162.566L214.796 152.188L214.406 152.204Z" fill="#263238"/>
<path d="M210.271 113.213L211.405 119.446L217.037 119.035L215.856 111.968L210.271 113.213Z" fill="#FFC2B0"/>
<path d="M222.985 118.575C222.427 116.883 220.28 115.037 218.129 115.438C214.932 115.98 211.782 116.766 208.705 117.79C206.738 118.491 204.94 120.194 204.777 126.675C204.777 126.675 204.117 141.778 204.107 144.7C208.218 146.312 212.696 146.754 217.042 145.976C222.959 144.684 223.671 142.226 223.671 142.226C223.671 142.226 223.75 131.369 223.571 126.675C223.418 122.689 223.365 119.725 222.985 118.575Z" fill="#7A8BEB"/>
<path d="M205.931 105.629C205.931 105.629 204.502 107.907 204.676 108.124C204.85 108.34 205.942 108.514 205.942 108.514L205.931 105.629Z" fill="#FFC2B0"/>
<path d="M209.892 99.3332C206.918 100.029 206.084 101.363 205.91 106.125C205.726 111.093 206.269 112.643 206.934 113.297C207.387 113.74 209.834 113.766 211.063 113.397C212.597 112.938 216.062 111.62 217.638 109.089C219.495 106.104 219.911 102.112 217.818 100.525C214.865 98.2891 211.105 99.0484 209.892 99.3332Z" fill="#FFC2B0"/>
<path d="M205.942 100.572C206.625 101.567 207.589 102.337 208.711 102.782C209.28 103.43 208.969 105.946 209.971 106.373C209.971 106.373 210.404 104.522 211.954 104.722C213.504 104.923 213.773 106.895 212.819 108.124C211.864 109.352 210.942 108.909 210.942 108.909C210.942 108.909 211.047 111.546 212.244 112.991C212.244 112.991 213.573 113.392 215.999 112.817C217.486 112.464 219.558 110.549 220.402 108.551C222.184 104.332 222.232 100.551 219.537 99.4806C219.205 97.5611 217.665 96.728 215.925 96.3694C212.175 95.5942 209.76 97.9514 206.876 97.7299C205.225 97.6139 204.919 98.8162 205.942 100.572Z" fill="#263238"/>
<path d="M219.595 100.124L221.361 99.0325C221.305 98.8892 221.217 98.76 221.105 98.6542C220.993 98.5483 220.859 98.4683 220.713 98.4198C220.566 98.3713 220.411 98.3554 220.258 98.3734C220.105 98.3913 219.958 98.4426 219.826 98.5237C219.695 98.6047 219.584 98.7135 219.499 98.8424C219.414 98.9714 219.359 99.1172 219.337 99.2698C219.315 99.4224 219.327 99.578 219.371 99.7256C219.416 99.8732 219.492 100.009 219.595 100.124Z" fill="#263238"/>
<path d="M184.896 129.012C185.819 129.423 196.73 137.481 198.428 136.542C200.126 135.603 208.853 125.41 208.853 125.41C209.59 124.271 209.983 122.943 209.983 121.587C209.983 120.23 209.59 118.902 208.853 117.764C208.853 117.764 206.058 118.291 204.592 120.495C203.126 122.7 196.809 130.636 196.809 130.636C195.248 129.855 193.69 129.064 192.137 128.263C190.86 127.598 189.579 126.939 188.329 126.227C187.978 126.064 187.647 125.861 187.343 125.621C186.726 125.009 186.816 123.512 186.847 122.731C186.847 122.357 186.847 121.982 186.9 121.608C186.953 121.149 187.042 120.026 186.215 120.385C186.058 120.459 185.922 120.572 185.819 120.711C185.692 120.883 185.592 121.073 185.524 121.276C185.371 121.761 185.418 122.293 185.276 122.784C185.259 122.856 185.224 122.923 185.176 122.979C185.102 123.036 185.01 123.064 184.917 123.058C183.715 123.021 182.576 121.339 182.022 120.421C181.831 119.986 181.513 119.619 181.11 119.367C180.456 119.061 179.665 119.499 179.238 120.089C178.723 120.866 178.513 121.804 178.647 122.726C178.759 123.987 179.32 125.167 180.229 126.048C181.603 127.297 183.182 128.299 184.896 129.012Z" fill="#FFC2B0"/>
<path d="M209.744 117.436C208.542 117.573 206.544 117.663 204.582 119.883C202.293 122.472 199.277 126.707 199.277 126.707C199.586 127.953 200.248 129.085 201.183 129.966C202.118 130.846 203.287 131.44 204.55 131.674C204.55 131.674 208.679 127.455 209.824 125.119C210.968 122.783 211.163 119.007 209.744 117.436Z" fill="#37474F"/>
<path d="M230.791 63.7172V47.0903L240.61 53.5818C237.752 58.0536 234.54 61.3811 230.791 63.7172Z" fill="#455A64"/>
<path d="M230.79 47.0903L226.861 44.8228V61.4496L230.79 63.7171V47.0903Z" fill="#37474F"/>
<path d="M246.31 34.498L231.592 45.0816L227.663 42.8193L242.381 32.2305L246.31 34.498Z" fill="#7A8BEB"/>
<path opacity="0.5" d="M246.31 34.498L231.592 45.0816L227.663 42.8193L242.381 32.2305L246.31 34.498Z" fill="black"/>
<path d="M246.31 34.4976C246.711 39.8658 245.129 45.7983 241.707 51.7677L235.568 47.7126L231.592 45.0759L246.31 34.4976Z" fill="#7A8BEB"/>
<path opacity="0.3" d="M246.31 34.4976C246.711 39.8658 245.129 45.7983 241.707 51.7677L235.568 47.7126L231.592 45.0759L246.31 34.4976Z" fill="black"/>
<path d="M241.706 51.7677L237.777 49.5002L227.663 42.8188L231.592 45.0811L241.706 51.7677Z" fill="#7A8BEB"/>
<path opacity="0.7" d="M241.706 51.7677L237.777 49.5002L227.663 42.8188L231.592 45.0811L241.706 51.7677Z" fill="black"/>
<path d="M225.702 37.8197L222.896 26.4451C223.292 26.1234 223.666 25.8334 224.125 25.5065C229.304 21.7782 234.229 21.1085 237.662 23.0913L241.548 25.3324C242.703 26.7404 241.822 28.2592 242.197 30.6058L226.83 41.6798L226.677 41.7905L225.702 37.8197Z" fill="#7A8BEB"/>
<path opacity="0.7" d="M225.702 37.8197L222.896 26.4451C223.292 26.1234 223.666 25.8334 224.125 25.5065C229.304 21.7782 234.229 21.1085 237.662 23.0913L241.548 25.3324C242.703 26.7404 241.822 28.2592 242.197 30.6058L226.83 41.6798L226.677 41.7905L225.702 37.8197Z" fill="white"/>
<path d="M229.631 40.0977L226.825 28.7231C227.215 28.4014 227.595 28.1114 228.049 27.7844C236.729 21.5408 244.681 23.8716 246.126 32.8943L230.759 43.9683L230.606 44.079L229.631 40.0977Z" fill="#7A8BEB"/>
<path opacity="0.5" d="M229.631 40.0977L226.825 28.7231C227.215 28.4014 227.595 28.1114 228.049 27.7844C236.729 21.5408 244.681 23.8716 246.126 32.8943L230.759 43.9683L230.606 44.079L229.631 40.0977Z" fill="white"/>
<path d="M222.896 26.4448L226.82 28.7124L230.606 44.0472L226.677 41.7797L222.896 26.4448Z" fill="#7A8BEB"/>
<path opacity="0.1" d="M222.896 26.4448L226.82 28.7124L230.606 44.0472L226.677 41.7797L222.896 26.4448Z" fill="black"/>
<path d="M225.364 62.3147C222.823 63.6541 220.618 65.505 218.535 65.4259L214.612 63.1584C212.555 61.9877 211.037 59.8309 210.277 56.7618C209.223 52.4852 209.882 47.0431 212.123 41.4322C214.187 36.2348 217.368 31.5543 221.441 27.7216L225.37 29.9891L223.914 37.7356L225.364 43.6154V62.3147Z" fill="#7A8BEB"/>
<path opacity="0.2" d="M225.364 62.3147C222.823 63.6541 220.618 65.505 218.535 65.4259L214.612 63.1584C212.555 61.9877 211.037 59.8309 210.277 56.7618C209.223 52.4852 209.882 47.0431 212.123 41.4322C214.187 36.2348 217.368 31.5543 221.441 27.7216L225.37 29.9891L223.914 37.7356L225.364 43.6154V62.3147Z" fill="black"/>
<path d="M229.314 64.5819C222.026 68.4261 216.015 66.2588 214.232 59.0291C213.178 54.7524 213.837 49.3103 216.078 43.6995C218.141 38.501 221.322 33.82 225.396 29.9888L227.864 40.0081L229.314 45.8668V64.5819Z" fill="#7A8BEB"/>
<path d="M238.105 108.497C238.117 108.26 238.186 108.03 238.305 107.824C238.424 107.619 238.59 107.445 238.79 107.316L273.657 87.1826C273.869 87.0759 274.103 87.0204 274.34 87.0204C274.577 87.0204 274.811 87.0759 275.023 87.1826L275.788 87.6255C275.987 87.7543 276.153 87.9285 276.272 88.1338C276.392 88.3391 276.46 88.5697 276.473 88.8068V115.537C276.46 115.774 276.392 116.005 276.272 116.21C276.153 116.416 275.987 116.59 275.788 116.719L240.915 136.847C240.704 136.956 240.47 137.013 240.232 137.013C239.995 137.013 239.761 136.956 239.549 136.847L238.785 136.404C238.585 136.276 238.419 136.101 238.3 135.896C238.18 135.691 238.112 135.46 238.099 135.223L238.105 108.497Z" fill="#7A8BEB"/>
<path opacity="0.4" d="M238.105 108.497C238.117 108.26 238.186 108.03 238.305 107.824C238.424 107.619 238.59 107.445 238.79 107.316L273.657 87.1826C273.869 87.0759 274.103 87.0204 274.34 87.0204C274.577 87.0204 274.811 87.0759 275.023 87.1826L275.788 87.6255C275.987 87.7543 276.153 87.9285 276.272 88.1338C276.392 88.3391 276.46 88.5697 276.473 88.8068V115.537C276.46 115.774 276.392 116.005 276.272 116.21C276.153 116.416 275.987 116.59 275.788 116.719L240.915 136.847C240.704 136.956 240.47 137.013 240.232 137.013C239.995 137.013 239.761 136.956 239.549 136.847L238.785 136.404C238.585 136.276 238.419 136.101 238.3 135.896C238.18 135.691 238.112 135.46 238.099 135.223L238.105 108.497Z" fill="white"/>
<path d="M241.3 109.557L238.305 107.822C238.183 108.027 238.115 108.259 238.105 108.497V135.222C238.117 135.46 238.186 135.69 238.305 135.896C238.424 136.101 238.59 136.275 238.79 136.404L239.555 136.847C239.766 136.956 240 137.013 240.238 137.013C240.475 137.013 240.709 136.956 240.921 136.847L241.3 136.625V109.557Z" fill="#7A8BEB"/>
<path opacity="0.3" d="M241.3 109.557L238.305 107.822C238.183 108.027 238.115 108.259 238.105 108.497V135.222C238.117 135.46 238.186 135.69 238.305 135.896C238.424 136.101 238.59 136.275 238.79 136.404L239.555 136.847C239.766 136.956 240 137.013 240.238 137.013C240.475 137.013 240.709 136.956 240.921 136.847L241.3 136.625V109.557Z" fill="black"/>
<path d="M276.473 88.8065V115.537C276.462 115.781 276.39 116.019 276.262 116.228C276.16 116.401 276.024 116.552 275.862 116.671L275.819 116.703L240.915 136.847C240.848 136.893 240.771 136.923 240.69 136.932C240.609 136.941 240.527 136.93 240.451 136.899C240.378 136.851 240.32 136.784 240.283 136.705C240.245 136.626 240.231 136.538 240.24 136.451V109.705C240.233 109.609 240.249 109.513 240.288 109.425C240.327 109.337 240.387 109.26 240.462 109.2C240.538 109.141 240.627 109.101 240.721 109.084C240.816 109.067 240.913 109.074 241.005 109.104L255.681 112.61L257.6 113.064C257.826 113.106 258.06 113.085 258.276 113.005C258.491 112.924 258.681 112.786 258.824 112.605L261.049 109.51L276.025 88.6589C276.247 88.3056 276.473 88.3741 276.473 88.8065Z" fill="#7A8BEB"/>
<path d="M275.794 116.718L275.836 116.686C275.998 116.567 276.134 116.417 276.236 116.243C276.362 116.038 276.434 115.804 276.447 115.563L261.012 109.525L271.348 119.281L275.794 116.718Z" fill="#7A8BEB"/>
<path opacity="0.2" d="M275.794 116.718L275.836 116.686C275.998 116.567 276.134 116.417 276.236 116.243C276.362 116.038 276.434 115.804 276.447 115.563L261.012 109.525L271.348 119.281L275.794 116.718Z" fill="black"/>
<path d="M240.24 136.456C240.231 136.543 240.245 136.631 240.283 136.71C240.32 136.789 240.378 136.857 240.451 136.905C240.527 136.935 240.609 136.946 240.69 136.937C240.771 136.928 240.848 136.899 240.915 136.852L252.923 129.923L255.665 112.616L240.235 136.013L240.24 136.456Z" fill="#7A8BEB"/>
<path opacity="0.2" d="M240.24 136.456C240.231 136.543 240.245 136.631 240.283 136.71C240.32 136.789 240.378 136.857 240.451 136.905C240.527 136.935 240.609 136.946 240.69 136.937C240.771 136.928 240.848 136.899 240.915 136.852L252.923 129.923L255.665 112.616L240.235 136.013L240.24 136.456Z" fill="black"/>
<path d="M276.247 116.228C276.144 116.401 276.008 116.552 275.846 116.671L240.915 136.847C240.848 136.894 240.771 136.923 240.69 136.932C240.609 136.941 240.527 136.93 240.451 136.9L257.147 110.232C257.483 109.699 258 109.305 258.603 109.12C259.205 108.935 259.854 108.973 260.432 109.225L276.247 116.228Z" fill="#7A8BEB"/>
<path d="M240.24 108.94L256.277 116.033C256.855 116.285 257.504 116.322 258.107 116.136C258.71 115.95 259.226 115.554 259.562 115.021L276.4 88.0844L240.24 108.94Z" fill="#7A8BEB"/>
<path opacity="0.3" d="M240.24 108.94L256.277 116.033C256.855 116.285 257.504 116.322 258.107 116.136C258.71 115.95 259.226 115.554 259.562 115.021L276.4 88.0844L240.24 108.94Z" fill="black"/>
<path d="M240.24 108.94L256.387 114.978C256.946 115.185 257.558 115.196 258.124 115.01C258.69 114.824 259.176 114.453 259.504 113.955L276.379 88.0682L240.24 108.94Z" fill="#7A8BEB"/>
</g>
<defs>
<clipPath id="clip0_39_6641">
<rect width="370" height="250" fill="white" transform="translate(0 -0.319336)"/>
</clipPath>
</defs>
</svg>
