<svg width="370" height="250" viewBox="0 0 370 250" fill="none" xmlns="http://www.w3.org/2000/svg">
<path d="M0 0.09375H370V250.094H0V0.09375Z" fill="#6377EE"/>
<path d="M0 0.09375H370V250.094H0V0.09375Z" fill="#EDF1FE"/>
<path d="M318.071 199.878H51V200.012H318.071V199.878Z" fill="#EBEBEB"/>
<path d="M291.311 208.473H273.62V208.606H291.311V208.473Z" fill="#EBEBEB"/>
<path d="M227.919 209.925H223.277V210.059H227.919V209.925Z" fill="#EBEBEB"/>
<path d="M273.086 203.516H262.835V203.649H273.086V203.516Z" fill="#EBEBEB"/>
<path d="M102.091 204.413H79.0211V204.546H102.091V204.413Z" fill="#EBEBEB"/>
<path d="M110.231 204.413H106.85V204.546H110.231V204.413Z" fill="#EBEBEB"/>
<path d="M171.262 206.667H121.224V206.801H171.262V206.667Z" fill="#EBEBEB"/>
<path d="M177.592 176.055H74.4542C73.6462 176.054 72.8718 175.732 72.301 175.16C71.7301 174.588 71.4095 173.813 71.4095 173.005V28.0232C71.4166 27.2199 71.7403 26.4518 72.3103 25.8857C72.8804 25.3197 73.6508 25.0014 74.4542 25H177.592C178.401 25 179.176 25.3213 179.748 25.8933C180.32 26.4653 180.642 27.2411 180.642 28.05V173.005C180.642 173.814 180.32 174.59 179.748 175.162C179.176 175.734 178.401 176.055 177.592 176.055ZM74.4542 25.1068C73.6816 25.1082 72.9412 25.4161 72.3954 25.9629C71.8496 26.5097 71.5431 27.2507 71.5431 28.0232V173.005C71.5431 173.778 71.8496 174.519 72.3954 175.066C72.9412 175.613 73.6816 175.92 74.4542 175.922H177.592C178.365 175.92 179.106 175.613 179.652 175.066C180.199 174.519 180.507 173.779 180.508 173.005V28.0232C180.507 27.2502 180.199 26.5092 179.652 25.9626C179.106 25.416 178.365 25.1082 177.592 25.1068H74.4542Z" fill="#EBEBEB"/>
<path d="M293.132 176.055H189.989C189.181 176.054 188.406 175.732 187.834 175.161C187.262 174.589 186.94 173.814 186.939 173.005V28.0232C186.948 27.2194 187.272 26.4513 187.843 25.8854C188.414 25.3195 189.185 25.0014 189.989 25H293.132C293.934 25.0028 294.703 25.3217 295.272 25.8876C295.841 26.4535 296.164 27.2208 296.171 28.0232V173.005C296.171 173.813 295.851 174.587 295.282 175.158C294.712 175.73 293.939 176.053 293.132 176.055ZM189.989 25.1068C189.216 25.1082 188.475 25.416 187.928 25.9626C187.382 26.5092 187.074 27.2502 187.073 28.0232V173.005C187.074 173.779 187.382 174.519 187.928 175.066C188.475 175.613 189.216 175.92 189.989 175.922H293.132C293.905 175.92 294.646 175.613 295.193 175.066C295.739 174.519 296.047 173.779 296.048 173.005V28.0232C296.047 27.2502 295.739 26.5092 295.193 25.9626C294.646 25.416 293.905 25.1082 293.132 25.1068H189.989Z" fill="#EBEBEB"/>
<g style="mix-blend-mode:multiply">
<path d="M289.537 189.799H217.172C216.47 189.799 215.9 190.368 215.9 191.07V198.676C215.9 199.378 216.47 199.948 217.172 199.948H289.537C290.239 199.948 290.808 199.378 290.808 198.676V191.07C290.808 190.368 290.239 189.799 289.537 189.799Z" fill="#E0E0E0"/>
</g>
<path d="M225.285 192.534H218.341C218.156 192.534 217.978 192.46 217.847 192.329C217.715 192.198 217.642 192.02 217.642 191.834C217.643 191.649 217.717 191.473 217.849 191.343C217.98 191.213 218.157 191.14 218.341 191.14H225.285C225.469 191.14 225.646 191.213 225.776 191.343C225.907 191.473 225.98 191.65 225.98 191.834C225.98 191.926 225.963 192.017 225.928 192.101C225.894 192.186 225.843 192.263 225.778 192.328C225.714 192.394 225.637 192.445 225.552 192.48C225.468 192.516 225.377 192.534 225.285 192.534Z" fill="#FAFAFA"/>
<path d="M246.651 195.284H218.341C218.157 195.284 217.98 195.212 217.849 195.081C217.717 194.951 217.643 194.775 217.642 194.59C217.642 194.405 217.715 194.227 217.847 194.095C217.978 193.964 218.156 193.89 218.341 193.89H246.651C246.836 193.892 247.012 193.966 247.142 194.097C247.272 194.228 247.345 194.405 247.345 194.59C247.345 194.681 247.327 194.772 247.293 194.856C247.258 194.94 247.206 195.017 247.142 195.081C247.077 195.146 247.001 195.197 246.917 195.232C246.832 195.267 246.742 195.284 246.651 195.284Z" fill="#FAFAFA"/>
<path d="M242.912 197.955H218.341C218.157 197.955 217.98 197.882 217.849 197.752C217.717 197.622 217.643 197.446 217.642 197.261C217.642 197.075 217.715 196.897 217.847 196.766C217.978 196.635 218.156 196.561 218.341 196.561H242.912C243.097 196.563 243.273 196.637 243.403 196.768C243.533 196.899 243.606 197.076 243.606 197.261C243.606 197.445 243.533 197.622 243.403 197.752C243.273 197.882 243.096 197.955 242.912 197.955Z" fill="#FAFAFA"/>
<g style="mix-blend-mode:multiply">
<path d="M282.657 167.194H210.287C209.584 167.194 209.015 167.763 209.015 168.465V176.071C209.015 176.774 209.584 177.343 210.287 177.343H282.657C283.36 177.343 283.929 176.774 283.929 176.071V168.465C283.929 167.763 283.36 167.194 282.657 167.194Z" fill="#E0E0E0"/>
</g>
<path d="M218.4 169.929H211.456C211.272 169.929 211.094 169.856 210.963 169.726C210.832 169.596 210.758 169.419 210.757 169.234C210.757 169.049 210.83 168.871 210.962 168.74C211.093 168.608 211.271 168.535 211.456 168.535H218.4C218.585 168.536 218.761 168.61 218.892 168.741C219.022 168.873 219.095 169.05 219.095 169.234C219.095 169.419 219.021 169.595 218.891 169.725C218.761 169.856 218.584 169.929 218.4 169.929Z" fill="#FAFAFA"/>
<path d="M239.766 172.685H211.456C211.271 172.685 211.093 172.611 210.962 172.48C210.83 172.349 210.757 172.171 210.757 171.985C210.757 171.8 210.83 171.622 210.962 171.49C211.093 171.359 211.271 171.286 211.456 171.286H239.766C239.951 171.287 240.127 171.361 240.257 171.492C240.387 171.623 240.46 171.801 240.46 171.985C240.46 172.17 240.387 172.347 240.257 172.478C240.127 172.609 239.951 172.684 239.766 172.685Z" fill="#FAFAFA"/>
<path d="M236.027 175.356H211.456C211.271 175.356 211.093 175.282 210.962 175.151C210.83 175.019 210.757 174.841 210.757 174.656C210.757 174.47 210.83 174.292 210.962 174.161C211.093 174.03 211.271 173.956 211.456 173.956H236.027C236.212 173.958 236.388 174.032 236.518 174.163C236.648 174.294 236.721 174.471 236.721 174.656C236.721 174.841 236.648 175.018 236.518 175.149C236.388 175.28 236.212 175.354 236.027 175.356Z" fill="#FAFAFA"/>
<g style="mix-blend-mode:multiply">
<path d="M277.743 178.593H205.378C204.676 178.593 204.107 179.162 204.107 179.864V187.47C204.107 188.172 204.676 188.741 205.378 188.741H277.743C278.445 188.741 279.015 188.172 279.015 187.47V179.864C279.015 179.162 278.445 178.593 277.743 178.593Z" fill="#EBEBEB"/>
</g>
<path d="M213.491 181.327H206.548C206.362 181.327 206.184 181.254 206.053 181.122C205.922 180.991 205.848 180.813 205.848 180.628C205.849 180.443 205.924 180.266 206.055 180.136C206.186 180.006 206.363 179.933 206.548 179.933H213.491C213.676 179.933 213.852 180.006 213.982 180.137C214.113 180.267 214.186 180.443 214.186 180.628C214.187 180.719 214.169 180.81 214.135 180.895C214.1 180.98 214.049 181.057 213.984 181.122C213.92 181.187 213.843 181.239 213.758 181.274C213.674 181.309 213.583 181.327 213.491 181.327Z" fill="#FAFAFA"/>
<path d="M234.857 184.078H206.548C206.363 184.078 206.186 184.005 206.055 183.875C205.924 183.745 205.849 183.568 205.848 183.384C205.848 183.198 205.922 183.02 206.053 182.889C206.184 182.758 206.362 182.684 206.548 182.684H234.857C235.042 182.685 235.218 182.76 235.348 182.891C235.479 183.022 235.552 183.199 235.552 183.384C235.552 183.568 235.478 183.745 235.348 183.875C235.218 184.005 235.041 184.078 234.857 184.078Z" fill="#FAFAFA"/>
<path d="M231.118 186.749H206.548C206.363 186.749 206.186 186.676 206.055 186.546C205.924 186.416 205.849 186.239 205.848 186.054C205.848 185.869 205.922 185.691 206.053 185.56C206.184 185.428 206.362 185.355 206.548 185.355H231.118C231.303 185.356 231.479 185.43 231.61 185.562C231.74 185.693 231.813 185.87 231.813 186.054C231.813 186.239 231.739 186.415 231.609 186.545C231.479 186.676 231.302 186.749 231.118 186.749Z" fill="#FAFAFA"/>
<path d="M103.239 162.445H91.7603L90.2594 153.477H101.733L103.239 162.445Z" fill="#EBEBEB"/>
<path d="M116.892 162.264H105.418L103.912 153.296H115.391L116.892 162.264Z" fill="#EBEBEB"/>
<path d="M105.093 173.497H93.6192L92.1129 164.529H103.586L105.093 173.497Z" fill="#EBEBEB"/>
<path d="M118.745 173.315H107.272L105.771 164.347H117.244L118.745 173.315Z" fill="#EBEBEB"/>
<path d="M106.946 184.548H95.4726L93.9663 175.585H105.44L106.946 184.548Z" fill="#EBEBEB"/>
<g style="mix-blend-mode:multiply">
<path d="M85.0409 141.32L73.0281 200.012H129.62L85.0409 141.32Z" fill="#E0E0E0"/>
</g>
<g style="mix-blend-mode:multiply">
<path d="M167.288 200.012H94.7942L85.0408 141.32H157.535L167.288 200.012Z" fill="#F5F5F5"/>
</g>
<g style="mix-blend-mode:multiply">
<path d="M130.55 162.077H119.076L117.57 153.114H129.043L130.55 162.077Z" fill="#EBEBEB"/>
</g>
<g style="mix-blend-mode:multiply">
<path d="M144.202 161.895H132.729L131.228 152.932H142.702L144.202 161.895Z" fill="#EBEBEB"/>
</g>
<g style="mix-blend-mode:multiply">
<path d="M157.861 161.714H146.387L144.881 152.751H156.354L157.861 161.714Z" fill="#EBEBEB"/>
</g>
<g style="mix-blend-mode:multiply">
<path d="M132.403 173.134H120.93L119.424 164.166H130.897L132.403 173.134Z" fill="#EBEBEB"/>
</g>
<g style="mix-blend-mode:multiply">
<path d="M146.061 172.952H134.582L133.082 163.984H144.555L146.061 172.952Z" fill="#EBEBEB"/>
</g>
<g style="mix-blend-mode:multiply">
<path d="M159.714 172.77H148.241L146.734 163.802H158.213L159.714 172.77Z" fill="#EBEBEB"/>
</g>
<g style="mix-blend-mode:multiply">
<path d="M120.604 184.367H109.131L107.624 175.404H119.098L120.604 184.367Z" fill="#EBEBEB"/>
</g>
<g style="mix-blend-mode:multiply">
<path d="M134.257 184.185H122.783L121.277 175.222H132.756L134.257 184.185Z" fill="#EBEBEB"/>
</g>
<g style="mix-blend-mode:multiply">
<path d="M147.915 184.003H136.441L134.935 175.035H146.408L147.915 184.003Z" fill="#EBEBEB"/>
</g>
<g style="mix-blend-mode:multiply">
<path d="M161.567 183.822H150.094L148.593 174.854H160.066L161.567 183.822Z" fill="#EBEBEB"/>
</g>
<g style="mix-blend-mode:multiply">
<path d="M108.799 195.6H97.3261L95.8198 186.637H107.299L108.799 195.6Z" fill="#EBEBEB"/>
</g>
<g style="mix-blend-mode:multiply">
<path d="M122.458 195.418H110.984L109.478 186.455H120.951L122.458 195.418Z" fill="#EBEBEB"/>
</g>
<g style="mix-blend-mode:multiply">
<path d="M136.11 195.236H124.637L123.136 186.273H134.609L136.11 195.236Z" fill="#EBEBEB"/>
</g>
<g style="mix-blend-mode:multiply">
<path d="M149.768 195.055H138.295L136.789 186.092H148.262L149.768 195.055Z" fill="#EBEBEB"/>
</g>
<g style="mix-blend-mode:multiply">
<path d="M163.421 194.873H151.948L150.447 185.91H161.92L163.421 194.873Z" fill="#EBEBEB"/>
</g>
<g style="mix-blend-mode:multiply">
<path d="M158.811 148.932H86.3174L85.0408 141.32H157.535L158.811 148.932Z" fill="#E6E6E6"/>
</g>
<path d="M203.268 138.105L202.333 137.239C202.168 137.082 201.967 136.967 201.747 136.903C201.528 136.839 201.297 136.828 201.073 136.871L195.929 137.902C195.714 137.944 195.513 138.04 195.347 138.183C195.18 138.325 195.053 138.508 194.978 138.714L194.572 139.851C194.498 140.057 194.371 140.24 194.204 140.381C194.037 140.522 193.836 140.618 193.621 140.658L190.55 141.277C190.376 141.31 190.211 141.378 190.065 141.479C189.919 141.579 189.796 141.709 189.704 141.86C189.611 142.012 189.552 142.181 189.529 142.356C189.507 142.532 189.522 142.71 189.573 142.88L194.011 159.866C194.104 160.222 194.327 160.53 194.638 160.728C194.948 160.926 195.321 161 195.683 160.934L220.019 156.057C220.192 156.024 220.357 155.955 220.503 155.854C220.648 155.754 220.771 155.624 220.863 155.473C220.955 155.322 221.014 155.153 221.037 154.978C221.06 154.803 221.046 154.624 220.996 154.455L216.584 137.453C216.491 137.098 216.267 136.79 215.957 136.592C215.647 136.394 215.274 136.32 214.912 136.385L204.55 138.463C204.323 138.512 204.088 138.505 203.865 138.442C203.641 138.38 203.436 138.264 203.268 138.105Z" fill="#EBEBEB"/>
<g style="mix-blend-mode:multiply">
<path d="M217.652 137.544L195.357 142.014C194.901 142.113 194.497 142.375 194.22 142.751C193.944 143.126 193.815 143.59 193.856 144.055L195.501 159.203C195.521 159.421 195.587 159.633 195.695 159.823C195.803 160.014 195.951 160.179 196.128 160.308C196.305 160.437 196.507 160.526 196.722 160.571C196.936 160.615 197.157 160.613 197.371 160.565L219.666 156.094C220.121 155.996 220.525 155.735 220.801 155.36C221.077 154.986 221.207 154.523 221.167 154.059L219.522 138.906C219.502 138.688 219.436 138.476 219.328 138.286C219.22 138.095 219.073 137.93 218.896 137.801C218.719 137.672 218.516 137.583 218.302 137.538C218.087 137.494 217.866 137.496 217.652 137.544Z" fill="#F5F5F5"/>
</g>
<path d="M280.606 98.9788L280.072 97.8197C279.976 97.6132 279.832 97.4322 279.653 97.2912C279.474 97.1502 279.265 97.0531 279.041 97.0078L273.882 96.041C273.667 95.9981 273.444 96.012 273.236 96.0813C273.028 96.1506 272.842 96.273 272.696 96.4362L271.889 97.3389C271.744 97.5014 271.558 97.6232 271.351 97.6925C271.144 97.7617 270.923 97.7761 270.709 97.7342L267.627 97.152C267.455 97.1184 267.278 97.1209 267.107 97.1594C266.936 97.1978 266.775 97.2713 266.634 97.3753C266.492 97.4792 266.374 97.6113 266.287 97.7632C266.2 97.9151 266.145 98.0835 266.126 98.2577L263.872 115.665C263.828 116.028 263.922 116.395 264.136 116.692C264.35 116.988 264.667 117.194 265.026 117.268L289.414 121.867C289.586 121.901 289.764 121.899 289.935 121.862C290.106 121.824 290.268 121.751 290.409 121.648C290.551 121.544 290.67 121.412 290.758 121.261C290.846 121.109 290.901 120.941 290.921 120.766L293.175 103.353C293.219 102.99 293.124 102.624 292.91 102.327C292.697 102.03 292.379 101.825 292.021 101.751L281.632 99.78C281.41 99.7358 281.202 99.6402 281.024 99.5011C280.846 99.362 280.703 99.1831 280.606 98.9788Z" fill="#EBEBEB"/>
<g style="mix-blend-mode:multiply">
<path d="M294.147 103.85L271.804 99.6357C271.348 99.5598 270.879 99.6524 270.486 99.8961C270.093 100.14 269.802 100.518 269.667 100.96L265.506 115.623C265.442 115.832 265.424 116.053 265.453 116.27C265.481 116.487 265.556 116.695 265.672 116.881C265.788 117.067 265.942 117.225 266.125 117.346C266.307 117.467 266.513 117.548 266.729 117.583L289.073 121.803C289.529 121.877 289.998 121.783 290.391 121.539C290.783 121.294 291.074 120.915 291.209 120.473L295.37 105.816C295.434 105.606 295.452 105.385 295.424 105.168C295.395 104.95 295.32 104.742 295.204 104.555C295.089 104.369 294.934 104.21 294.752 104.088C294.57 103.967 294.363 103.885 294.147 103.85Z" fill="#F5F5F5"/>
</g>
<path d="M91.6857 61.797L91.1515 60.6379C91.0563 60.4316 90.9139 60.2505 90.7357 60.1095C90.5575 59.9685 90.3487 59.8713 90.126 59.826L84.9715 58.8539C84.7566 58.8104 84.534 58.824 84.3259 58.8934C84.1179 58.9627 83.9316 59.0854 83.7857 59.2491L82.9792 60.1518C82.832 60.3137 82.6455 60.4348 82.4377 60.5031C82.2298 60.5714 82.0079 60.5848 81.7934 60.5417L78.7167 59.9649C78.545 59.9305 78.3681 59.9322 78.1971 59.97C78.0261 60.0077 77.8649 60.0807 77.7237 60.1842C77.5825 60.2877 77.4644 60.4195 77.377 60.5712C77.2895 60.7229 77.2346 60.8911 77.2158 61.0652L74.9617 78.4782C74.9167 78.8416 75.0106 79.2085 75.2245 79.5056C75.4384 79.8027 75.7566 80.0081 76.1154 80.0807L100.504 84.685C100.676 84.7185 100.853 84.7162 101.024 84.6782C101.195 84.6401 101.356 84.5671 101.498 84.4638C101.639 84.3605 101.758 84.2291 101.846 84.0778C101.934 83.9265 101.99 83.7586 102.011 83.5846L104.259 66.1716C104.305 65.809 104.211 65.4428 103.999 65.1458C103.786 64.8488 103.469 64.6429 103.111 64.5692L92.7166 62.6035C92.4931 62.5603 92.2832 62.4647 92.1039 62.3245C91.9247 62.1842 91.7814 62.0034 91.6857 61.797Z" fill="#EBEBEB"/>
<g style="mix-blend-mode:multiply">
<path d="M105.231 66.6631L82.8883 62.4434C82.4316 62.3702 81.9639 62.4644 81.5713 62.7088C81.1787 62.9533 80.8876 63.3313 80.7517 63.7734L76.5747 78.4142C76.5109 78.6236 76.4926 78.8442 76.5208 79.0612C76.5491 79.2782 76.6233 79.4868 76.7386 79.6728C76.8538 79.8589 77.0075 80.0182 77.1893 80.1401C77.371 80.262 77.5767 80.3438 77.7926 80.3799L100.141 84.6156C100.597 84.6915 101.066 84.5989 101.459 84.3552C101.852 84.1115 102.143 83.7333 102.278 83.291L106.433 68.6287C106.498 68.4205 106.518 68.2009 106.491 67.9845C106.464 67.7681 106.391 67.5599 106.277 67.3739C106.164 67.1878 106.011 67.0282 105.831 66.9056C105.651 66.7831 105.446 66.7004 105.231 66.6631Z" fill="#F5F5F5"/>
</g>
<path d="M169.494 81.0209L168.25 79.4826C168.029 79.2074 167.747 78.988 167.426 78.8423C167.105 78.6966 166.754 78.6287 166.401 78.644L158.261 79.0926C157.921 79.1072 157.591 79.2105 157.303 79.3923C157.016 79.5741 156.78 79.8281 156.621 80.1289L155.74 81.7901C155.58 82.0902 155.345 82.3435 155.057 82.5252C154.77 82.7069 154.44 82.8107 154.1 82.8263L149.245 83.0934C148.973 83.1066 148.707 83.176 148.463 83.2971C148.219 83.4183 148.003 83.5886 147.829 83.7974C147.654 84.0061 147.525 84.2488 147.449 84.51C147.372 84.7713 147.351 85.0455 147.386 85.3154L150.468 112.412C150.535 112.977 150.812 113.496 151.245 113.866C151.678 114.235 152.234 114.428 152.802 114.405L191.298 112.268C191.57 112.256 191.836 112.187 192.081 112.066C192.325 111.945 192.541 111.775 192.716 111.566C192.89 111.357 193.02 111.114 193.096 110.852C193.172 110.591 193.192 110.316 193.157 110.046L190.08 82.9492C190.012 82.3837 189.733 81.8647 189.3 81.4955C188.866 81.1262 188.309 80.9339 187.74 80.9568L171.348 81.8648C170.994 81.8795 170.642 81.8107 170.32 81.6641C169.998 81.5175 169.715 81.2972 169.494 81.0209Z" fill="#EBEBEB"/>
<path d="M191.736 83.3337L156.482 85.2887C155.761 85.3385 155.082 85.6505 154.574 86.1661C154.067 86.6816 153.765 87.3651 153.726 88.0876L152.909 111.745C152.89 112.084 152.945 112.424 153.068 112.74C153.191 113.057 153.381 113.344 153.625 113.581C153.868 113.818 154.159 114.001 154.479 114.116C154.799 114.231 155.139 114.277 155.478 114.25L190.732 112.3C191.454 112.25 192.134 111.937 192.641 111.421C193.149 110.904 193.45 110.219 193.488 109.496L194.305 85.8388C194.323 85.4997 194.268 85.1606 194.144 84.8443C194.02 84.528 193.831 84.2418 193.587 84.0047C193.344 83.7676 193.053 83.5851 192.734 83.4694C192.415 83.3537 192.074 83.3074 191.736 83.3337Z" fill="#F5F5F5"/>
<path d="M183.008 32.729L182.041 31.8957C181.869 31.7466 181.664 31.6403 181.443 31.5855C181.222 31.5307 180.992 31.529 180.77 31.5806L175.669 32.8144C175.456 32.8651 175.26 32.9699 175.1 33.1188C174.94 33.2676 174.821 33.4553 174.755 33.6637L174.387 34.8175C174.323 35.0288 174.206 35.2198 174.045 35.3716C173.885 35.5234 173.688 35.6307 173.474 35.6828L170.429 36.4199C170.261 36.4604 170.103 36.5348 169.965 36.6387C169.827 36.7425 169.711 36.8735 169.626 37.0237C169.54 37.1738 169.486 37.3398 169.467 37.5116C169.448 37.6833 169.465 37.8571 169.516 38.0223L174.627 54.8157C174.735 55.1655 174.971 55.4616 175.288 55.6448C175.605 55.828 175.98 55.8848 176.337 55.8039L200.458 49.9604C200.627 49.9205 200.785 49.8465 200.924 49.7429C201.063 49.6393 201.179 49.5084 201.265 49.3582C201.351 49.208 201.405 49.0417 201.425 48.8697C201.444 48.6977 201.428 48.5235 201.377 48.358L196.287 31.5485C196.179 31.1988 195.943 30.9027 195.626 30.7195C195.309 30.5363 194.934 30.4794 194.577 30.5603L184.301 33.0441C184.076 33.0992 183.841 33.0994 183.616 33.0445C183.391 32.9896 183.182 32.8814 183.008 32.729Z" fill="#EBEBEB"/>
<g style="mix-blend-mode:multiply">
<path d="M197.355 31.5966L175.252 36.9381C174.802 37.0575 174.412 37.3375 174.154 37.7252C173.896 38.1128 173.789 38.5814 173.853 39.0426L176.096 54.1161C176.124 54.3331 176.197 54.5417 176.312 54.7279C176.427 54.9141 176.581 55.0735 176.762 55.1954C176.944 55.3174 177.15 55.399 177.366 55.4349C177.581 55.4707 177.802 55.46 178.014 55.4034L200.117 50.0619C200.565 49.9427 200.954 49.6646 201.213 49.2793C201.471 48.8941 201.581 48.4281 201.521 47.9681L199.278 32.8946C199.252 32.676 199.179 32.4657 199.064 32.2778C198.95 32.0899 198.796 31.9289 198.613 31.8057C198.431 31.6826 198.224 31.6001 198.007 31.5641C197.79 31.528 197.567 31.5391 197.355 31.5966Z" fill="#F5F5F5"/>
</g>
<g style="mix-blend-mode:multiply">
<path d="M184.536 224C241.733 224 288.1 221.293 288.1 217.954C288.1 214.614 241.733 211.907 184.536 211.907C127.338 211.907 80.9708 214.614 80.9708 217.954C80.9708 221.293 127.338 224 184.536 224Z" fill="#F5F5F5"/>
</g>
<path d="M275.756 42.2528V134.066C275.755 134.783 275.47 135.47 274.963 135.976C274.457 136.483 273.77 136.768 273.054 136.769H93.4323C92.7159 136.768 92.0292 136.483 91.5227 135.976C91.0161 135.47 90.7309 134.783 90.7295 134.066V42.2528C90.7295 41.536 91.0142 40.8485 91.5211 40.3417C92.028 39.8348 92.7154 39.55 93.4323 39.55H273.054C273.77 39.55 274.458 39.8348 274.965 40.3417C275.472 40.8485 275.756 41.536 275.756 42.2528Z" fill="#6277EE"/>
<path opacity="0.7" d="M275.756 52.9624V134.067C275.755 134.783 275.47 135.47 274.963 135.976C274.457 136.483 273.77 136.768 273.054 136.769H93.4323C92.7159 136.768 92.0292 136.483 91.5227 135.976C91.0161 135.47 90.7309 134.783 90.7295 134.067V52.9624H275.756Z" fill="white"/>
<path opacity="0.1" d="M109.953 52.9624V136.769H93.4323C92.7159 136.768 92.0292 136.483 91.5227 135.976C91.0161 135.47 90.7309 134.783 90.7295 134.067V52.9624H109.953Z" fill="black"/>
<path opacity="0.1" d="M146.51 52.9624H127.286V136.769H146.51V52.9624Z" fill="black"/>
<path opacity="0.1" d="M183.067 52.9624H163.843V136.769H183.067V52.9624Z" fill="black"/>
<path opacity="0.1" d="M219.623 52.9624H200.4V136.769H219.623V52.9624Z" fill="black"/>
<path opacity="0.1" d="M256.18 52.9624H236.956V136.769H256.18V52.9624Z" fill="black"/>
<path opacity="0.7" d="M275.756 52.9624H90.7295V60.6594H275.756V52.9624Z" fill="white"/>
<g opacity="0.3">
<path opacity="0.3" d="M97.9029 55.4889H98.2768L97.9083 57.8658H97.5664L97.3635 56.5572L97.1712 57.8658H96.8293L96.4287 55.4889H96.8026L96.9949 56.7601L97.1658 55.4889H97.5397L97.7267 56.7601L97.9029 55.4889Z" fill="black"/>
<path opacity="0.3" d="M98.5813 57.8658V55.4889H99.6069V55.8468H98.9392V56.5144H99.4199V56.8723H98.9392V57.5186H99.6069V57.8818L98.5813 57.8658Z" fill="black"/>
<path opacity="0.3" d="M99.8473 57.8658V55.4889H100.868V55.8468H100.205V56.5144H100.675V56.8723H100.189V57.5186H100.851V57.8818L99.8473 57.8658Z" fill="black"/>
<path opacity="0.3" d="M101.471 57.1127V57.8658H101.113V55.4889H101.471V56.3328L101.909 55.4889H102.278L101.786 56.4557L102.363 57.8658H101.957L101.578 56.899L101.471 57.1127Z" fill="black"/>
<path opacity="0.3" d="M103.175 57.8658V56.0337H102.87V55.7827C102.959 55.7717 103.044 55.7386 103.116 55.6865C103.19 55.6383 103.247 55.5696 103.282 55.4889H103.533V57.8658H103.175Z" fill="black"/>
<path opacity="0.3" d="M116.101 55.4889H116.475L116.107 57.8658H115.765L115.556 56.5572L115.37 57.8658H115.022L114.627 55.4889H115.001L115.188 56.7601L115.364 55.4889H115.738L115.925 56.7601L116.101 55.4889Z" fill="black"/>
<path opacity="0.3" d="M116.78 57.8658V55.4889H117.8V55.8468H117.138V56.5144H117.618V56.8723H117.138V57.5186H117.8V57.8818L116.78 57.8658Z" fill="black"/>
<path opacity="0.3" d="M118.046 57.8658V55.4889H119.066V55.8468H118.403V56.5144H118.884V56.8723H118.403V57.5186H119.066V57.8818L118.046 57.8658Z" fill="black"/>
<path opacity="0.3" d="M119.669 57.1127V57.8658H119.312V55.4889H119.669V56.3328L120.107 55.4889H120.492L120.001 56.4557L120.577 57.8658H120.155L119.776 56.899L119.669 57.1127Z" fill="black"/>
<path opacity="0.3" d="M121.074 56.1565C121.064 56.0596 121.075 55.9617 121.106 55.8695C121.138 55.7772 121.189 55.6929 121.256 55.6223C121.309 55.5679 121.373 55.5254 121.444 55.4977C121.515 55.4701 121.591 55.458 121.667 55.4621C121.743 55.4608 121.819 55.4758 121.889 55.5062C121.959 55.5366 122.022 55.5817 122.073 55.6384C122.179 55.7492 122.238 55.8964 122.239 56.0497C122.239 56.213 122.2 56.3741 122.126 56.5197C122.048 56.6715 121.957 56.8162 121.854 56.9524L121.678 57.2087L121.614 57.3049L121.517 57.4598C121.514 57.4702 121.514 57.4814 121.517 57.4918H122.217V57.8444H121.079V57.5132C121.102 57.4664 121.129 57.4218 121.16 57.3797L121.24 57.2622L121.331 57.1286L121.587 56.7707C121.684 56.6387 121.768 56.4974 121.838 56.3488C121.878 56.2595 121.9 56.1633 121.902 56.0657C121.903 55.9986 121.883 55.933 121.843 55.8787C121.823 55.8535 121.796 55.8332 121.767 55.8193C121.737 55.8054 121.705 55.7984 121.672 55.7986C121.623 55.7995 121.575 55.8168 121.536 55.8477C121.498 55.8786 121.47 55.9215 121.459 55.9695C121.45 56.0154 121.45 56.0625 121.459 56.1084V56.1992H121.106L121.074 56.1565Z" fill="black"/>
<path opacity="0.3" d="M134.551 55.4889H134.93L134.556 57.8658H134.214L134.011 56.5572L133.819 57.8658H133.477L133.076 55.4889H133.456L133.642 56.7601L133.813 55.4889H134.187L134.38 56.7601L134.551 55.4889Z" fill="black"/>
<path opacity="0.3" d="M135.229 57.8658V55.4889H136.249V55.8468H135.587V56.5144H136.073V56.8723H135.587V57.5186H136.249V57.8818L135.229 57.8658Z" fill="black"/>
<path opacity="0.3" d="M136.495 57.8658V55.4889H137.531V55.8468H136.869V56.5144H137.355V56.8723H136.869V57.5186H137.531V57.8818L136.495 57.8658Z" fill="black"/>
<path opacity="0.3" d="M138.119 57.1127V57.8658H137.761V55.4889H138.119V56.3328L138.562 55.4889H138.941L138.45 56.4557L139.027 57.8658H138.599L138.225 56.899L138.119 57.1127Z" fill="black"/>
<path opacity="0.3" d="M140.079 57.5239C140.239 57.5239 140.325 57.4491 140.325 57.2942V57.1554C140.325 56.9097 140.196 56.7868 139.94 56.7868V56.4824C139.996 56.4879 140.053 56.4801 140.106 56.4597C140.159 56.4393 140.206 56.4068 140.245 56.3648C140.311 56.284 140.343 56.1807 140.335 56.0764V56.0176C140.335 55.8627 140.271 55.788 140.132 55.788C140.099 55.7853 140.067 55.7919 140.037 55.807C140.008 55.8221 139.984 55.8451 139.967 55.8734C139.937 55.9254 139.922 55.9845 139.924 56.0444V56.1085H139.577V56.0497C139.571 55.9019 139.616 55.7566 139.705 55.6384C139.754 55.5776 139.817 55.5294 139.889 55.4978C139.96 55.4662 140.038 55.4522 140.116 55.4568C140.191 55.4555 140.266 55.4701 140.335 55.4996C140.404 55.529 140.466 55.5727 140.517 55.6277C140.564 55.6796 140.601 55.7402 140.625 55.8062C140.648 55.8722 140.659 55.9422 140.656 56.0123V56.1138C140.659 56.2523 140.612 56.3872 140.522 56.493C140.486 56.5403 140.44 56.5802 140.389 56.6105C140.5 56.6695 140.587 56.766 140.634 56.883C140.669 56.9525 140.685 57.0297 140.682 57.1073V57.2942C140.687 57.3754 140.673 57.4566 140.642 57.5316C140.61 57.6066 140.562 57.6734 140.501 57.7269C140.389 57.835 140.24 57.8945 140.084 57.8925C139.934 57.8897 139.791 57.8284 139.685 57.7217C139.579 57.615 139.519 57.4712 139.518 57.321V57.2622L139.86 57.2355V57.321C139.86 57.3481 139.866 57.3748 139.877 57.3995C139.888 57.4243 139.904 57.4466 139.924 57.4652C139.944 57.4862 139.968 57.5025 139.995 57.5126C140.021 57.5228 140.05 57.5267 140.079 57.5239Z" fill="black"/>
<path opacity="0.3" d="M152.973 55.4889H153.347L152.973 57.8658H152.631L152.428 56.5572L152.241 57.8658H151.894L151.499 55.4889H151.873L152.06 56.7601L152.236 55.4889H152.61L152.797 56.7601L152.973 55.4889Z" fill="black"/>
<path opacity="0.3" d="M153.646 57.8658V55.4889H154.672V55.8468H154.009V56.5144H154.49V56.8723H154.009V57.5186H154.672V57.8818L153.646 57.8658Z" fill="black"/>
<path opacity="0.3" d="M154.917 57.8658V55.4889H155.938V55.8468H155.275V56.5144H155.756V56.8723H155.275V57.5186H155.938V57.8818L154.917 57.8658Z" fill="black"/>
<path opacity="0.3" d="M156.541 57.1127V57.8658H156.183V55.4889H156.541V56.3328L156.979 55.4889H157.364L156.872 56.4557L157.444 57.8658H157.027L156.648 56.899L156.541 57.1127Z" fill="black"/>
<path opacity="0.3" d="M157.941 56.9898L158.571 55.4835H158.929V56.9898H159.159V57.353H158.929V57.8872H158.571V57.353H157.941V56.9898ZM158.571 56.9898V56.2473L158.277 56.9898H158.571Z" fill="black"/>
<path opacity="0.3" d="M171.476 55.4889H171.85L171.481 57.8658H171.139L170.936 56.5572L170.744 57.8658H170.402L170.002 55.4889H170.381L170.568 56.7601L170.739 55.4889H171.113L171.3 56.7601L171.476 55.4889Z" fill="black"/>
<path opacity="0.3" d="M172.154 57.8658V55.4889H173.174V55.8468H172.512V56.5144H172.998V56.8723H172.512V57.5186H173.174V57.8818L172.154 57.8658Z" fill="black"/>
<path opacity="0.3" d="M173.42 57.8658V55.4889H174.44V55.8468H173.778V56.5144H174.264V56.8723H173.778V57.5186H174.44V57.8818L173.42 57.8658Z" fill="black"/>
<path opacity="0.3" d="M175.044 57.1127V57.8658H174.686V55.4889H175.044V56.3328L175.482 55.4889H175.866L175.375 56.4557L175.952 57.8658H175.53L175.156 56.899L175.044 57.1127Z" fill="black"/>
<path opacity="0.3" d="M176.839 55.8467V56.3809C176.869 56.3369 176.91 56.3011 176.957 56.2769C177.005 56.2526 177.058 56.2406 177.111 56.242C177.178 56.2382 177.245 56.2515 177.306 56.2804C177.366 56.3093 177.419 56.3531 177.458 56.4076C177.529 56.5306 177.563 56.6717 177.554 56.8135V57.321C177.557 57.4004 177.543 57.4796 177.515 57.5538C177.486 57.6281 177.443 57.696 177.389 57.7536C177.337 57.8084 177.274 57.8514 177.204 57.88C177.134 57.9085 177.058 57.9219 176.983 57.9192C176.91 57.919 176.837 57.9037 176.77 57.8743C176.703 57.8449 176.643 57.802 176.593 57.7483C176.542 57.6954 176.502 57.6325 176.476 57.5636C176.45 57.4947 176.439 57.4211 176.443 57.3477V57.2943H176.785V57.3744C176.784 57.4143 176.795 57.4537 176.816 57.4878C176.836 57.5219 176.867 57.5493 176.903 57.5667H176.967C177.111 57.5667 177.186 57.4919 177.186 57.337V56.7548C177.186 56.7221 177.179 56.6898 177.165 56.6602C177.151 56.6307 177.131 56.6046 177.106 56.5838C177.093 56.5722 177.077 56.5634 177.061 56.5579C177.044 56.5524 177.027 56.5503 177.009 56.5518C176.981 56.5508 176.953 56.5572 176.928 56.5703C176.902 56.5834 176.881 56.6028 176.865 56.6266C176.84 56.6664 176.827 56.7129 176.828 56.7601V56.8295H176.47V55.5262H177.538V55.8895L176.839 55.8467Z" fill="black"/>
<path opacity="0.3" d="M189.941 55.4889H190.315L189.941 57.8658H189.599L189.396 56.5572L189.209 57.8658H188.862L188.467 55.4889H188.841L189.028 56.7601L189.204 55.4889H189.578L189.765 56.7601L189.941 55.4889Z" fill="black"/>
<path opacity="0.3" d="M190.614 57.8658V55.4889H191.634V55.8468H190.977V56.5144H191.458V56.8723H190.977V57.5186H191.634V57.8818L190.614 57.8658Z" fill="black"/>
<path opacity="0.3" d="M191.885 57.8658V55.4889H192.906V55.8468H192.243V56.5144H192.724V56.8723H192.243V57.5186H192.906V57.8818L191.885 57.8658Z" fill="black"/>
<path opacity="0.3" d="M193.509 57.1127V57.8658H193.151V55.4889H193.509V56.3328L193.947 55.4889H194.332L193.84 56.4557L194.412 57.8658H193.995L193.616 56.899L193.509 57.1127Z" fill="black"/>
<path opacity="0.3" d="M195.614 56.0764V56.0176C195.616 55.9653 195.599 55.914 195.565 55.8734C195.552 55.8525 195.532 55.8356 195.51 55.8243C195.487 55.8131 195.462 55.8079 195.437 55.8093C195.411 55.808 195.386 55.8132 195.362 55.8244C195.339 55.8356 195.319 55.8524 195.304 55.8734C195.271 55.914 195.254 55.9653 195.256 56.0176V56.5144C195.329 56.4442 195.426 56.4042 195.528 56.4022C195.597 56.3986 195.665 56.4118 195.728 56.4406C195.79 56.4695 195.844 56.5131 195.886 56.5678C195.961 56.6874 195.996 56.8275 195.987 56.9684V57.3744C195.982 57.5188 195.923 57.656 195.822 57.7589C195.722 57.8576 195.588 57.9133 195.448 57.9138C195.374 57.9157 195.301 57.9013 195.234 57.8718C195.167 57.8422 195.107 57.7982 195.058 57.7429C195.007 57.69 194.967 57.6272 194.941 57.5582C194.916 57.4893 194.904 57.4158 194.909 57.3423V56.0497C194.906 55.9386 194.935 55.829 194.994 55.7345C195.049 55.6411 195.131 55.5666 195.229 55.5209C195.299 55.4929 195.373 55.4784 195.448 55.4781C195.521 55.4784 195.594 55.4937 195.661 55.5231C195.728 55.5525 195.788 55.5954 195.838 55.6491C195.889 55.7019 195.929 55.7648 195.955 55.8338C195.98 55.9027 195.991 55.9762 195.987 56.0497V56.0978L195.614 56.0764ZM195.256 57.3156C195.254 57.3679 195.271 57.4193 195.304 57.4598C195.319 57.4808 195.339 57.4977 195.362 57.5089C195.386 57.5201 195.411 57.5252 195.437 57.5239C195.463 57.5248 195.489 57.5194 195.512 57.5082C195.535 57.4971 195.555 57.4805 195.571 57.4598C195.6 57.4174 195.615 57.367 195.614 57.3156V56.8776C195.614 56.8455 195.607 56.8136 195.594 56.7842C195.581 56.7548 195.563 56.7284 195.539 56.7067C195.52 56.6935 195.499 56.6841 195.477 56.6791C195.455 56.6741 195.432 56.6736 195.41 56.6776C195.387 56.6815 195.366 56.6899 195.347 56.7023C195.328 56.7146 195.311 56.7306 195.298 56.7494C195.271 56.7885 195.256 56.8351 195.256 56.8829V57.3156Z" fill="black"/>
<path opacity="0.3" d="M208.39 55.4889H208.764L208.396 57.8658H208.038L207.835 56.5572L207.643 57.8658H207.301L206.9 55.4889H207.274L207.466 56.7601L207.637 55.4889H208.011L208.198 56.7601L208.39 55.4889Z" fill="black"/>
<path opacity="0.3" d="M209.069 57.8658V55.4889H210.089V55.8468H209.427V56.5144H209.907V56.8723H209.427V57.5186H210.089V57.8818L209.069 57.8658Z" fill="black"/>
<path opacity="0.3" d="M210.335 57.8658V55.4889H211.355V55.8468H210.709V56.5144H211.195V56.8723H210.709V57.5186H211.371V57.8818L210.335 57.8658Z" fill="black"/>
<path opacity="0.3" d="M211.958 57.1127V57.8658H211.601V55.4889H211.958V56.3328L212.396 55.4889H212.781L212.29 56.4557L212.867 57.8658H212.445L212.065 56.899L211.958 57.1127Z" fill="black"/>
<path opacity="0.3" d="M214.447 55.4835V55.8467L213.945 57.8658H213.593L214.095 55.8467H213.379V55.4835H214.447Z" fill="black"/>
<path opacity="0.3" d="M226.797 55.4889H227.171L226.802 57.8658H226.46L226.252 56.5572L226.065 57.8658H225.718L225.323 55.4889H225.697L225.883 56.7601L226.06 55.4889H226.434L226.621 56.7601L226.797 55.4889Z" fill="black"/>
<path opacity="0.3" d="M227.475 57.8658V55.4889H228.495V55.8468H227.833V56.5144H228.314V56.8723H227.833V57.5186H228.495V57.8818L227.475 57.8658Z" fill="black"/>
<path opacity="0.3" d="M228.741 57.8658V55.4889H229.761V55.8468H229.099V56.5144H229.58V56.8723H229.099V57.5186H229.761V57.8818L228.741 57.8658Z" fill="black"/>
<path opacity="0.3" d="M230.365 57.1127V57.8658H230.007V55.4889H230.365V56.3328L230.803 55.4889H231.188L230.696 56.4557L231.273 57.8658H230.851L230.472 56.899L230.365 57.1127Z" fill="black"/>
<path opacity="0.3" d="M232.929 57.321C232.93 57.3963 232.915 57.4709 232.887 57.5406C232.858 57.6102 232.816 57.6735 232.763 57.7267C232.71 57.7799 232.647 57.822 232.577 57.8505C232.507 57.879 232.433 57.8933 232.357 57.8925C232.282 57.8938 232.208 57.8792 232.139 57.8498C232.07 57.8203 232.008 57.7767 231.957 57.7216C231.903 57.6701 231.86 57.6079 231.832 57.5389C231.803 57.4699 231.789 57.3957 231.791 57.321V57.1074C231.788 56.9669 231.839 56.8306 231.935 56.7281C231.978 56.6803 232.028 56.6405 232.085 56.6106C231.986 56.5547 231.907 56.4686 231.861 56.3649C231.83 56.2941 231.816 56.2175 231.818 56.1406V56.0124C231.815 55.9423 231.825 55.8722 231.849 55.8063C231.873 55.7403 231.91 55.6796 231.957 55.6278C232.008 55.5727 232.07 55.5291 232.139 55.4996C232.208 55.4702 232.282 55.4556 232.357 55.4569C232.433 55.4548 232.509 55.4691 232.579 55.4985C232.649 55.528 232.712 55.5721 232.763 55.6278C232.811 55.6796 232.847 55.7403 232.871 55.8063C232.895 55.8722 232.905 55.9423 232.902 56.0124V56.1406C232.906 56.2759 232.858 56.4076 232.769 56.5091C232.729 56.5492 232.684 56.5833 232.635 56.6106C232.744 56.6726 232.83 56.7681 232.881 56.883C232.915 56.9526 232.932 57.0297 232.929 57.1074V57.321ZM232.582 56.1085C232.582 55.9429 232.528 55.8414 232.427 55.804C232.4 55.7979 232.373 55.7979 232.347 55.804C232.291 55.8021 232.237 55.819 232.192 55.8521C232.159 55.8799 232.137 55.9174 232.128 55.9589C232.116 56.0135 232.116 56.07 232.128 56.1245C232.127 56.2019 232.144 56.2785 232.176 56.3489C232.196 56.379 232.224 56.4033 232.257 56.4193C232.29 56.4352 232.326 56.4422 232.363 56.4397C232.4 56.4422 232.437 56.4346 232.47 56.4177C232.503 56.4007 232.53 56.3751 232.55 56.3435C232.591 56.2722 232.611 56.1908 232.608 56.1085H232.582ZM232.582 57.1768C232.589 57.1246 232.584 57.0715 232.567 57.0215C232.55 56.9715 232.522 56.926 232.486 56.8884C232.447 56.8653 232.402 56.8542 232.357 56.8563C232.316 56.8527 232.275 56.8628 232.24 56.885C232.206 56.9072 232.179 56.9403 232.165 56.9792C232.141 57.0421 232.13 57.1094 232.133 57.1768V57.289C232.131 57.3241 232.136 57.3592 232.148 57.3923C232.16 57.4254 232.178 57.4557 232.202 57.4813C232.246 57.5187 232.3 57.5412 232.357 57.5454C232.402 57.5448 232.445 57.5307 232.481 57.5049C232.518 57.4791 232.545 57.4429 232.56 57.4011C232.566 57.364 232.566 57.3261 232.56 57.289L232.582 57.1768Z" fill="black"/>
<path opacity="0.3" d="M245.284 55.4889H245.663L245.289 57.8658H244.947L244.744 56.5572L244.552 57.8658H244.21L243.815 55.4889H244.189L244.376 56.7601L244.546 55.4889H244.926L245.113 56.7601L245.284 55.4889Z" fill="black"/>
<path opacity="0.3" d="M245.962 57.8658V55.4889H246.982V55.8468H246.32V56.5144H246.806V56.8723H246.32V57.5186H246.982V57.8818L245.962 57.8658Z" fill="black"/>
<path opacity="0.3" d="M247.233 57.8658V55.4889H248.253V55.8468H247.591V56.5144H248.072V56.8723H247.591V57.5186H248.253V57.8818L247.233 57.8658Z" fill="black"/>
<path opacity="0.3" d="M248.857 57.1127V57.8658H248.499V55.4889H248.857V56.3328L249.295 55.4889H249.701L249.215 56.4557L249.786 57.8658H249.364L248.99 56.899L248.857 57.1127Z" fill="black"/>
<path opacity="0.3" d="M250.796 55.4462C250.869 55.4464 250.942 55.4617 251.009 55.4911C251.076 55.5205 251.136 55.5634 251.186 55.6171C251.236 55.6693 251.276 55.7313 251.301 55.7993C251.327 55.8673 251.339 55.9398 251.335 56.0124V57.3103C251.338 57.4606 251.283 57.606 251.18 57.7163C251.131 57.7684 251.071 57.8099 251.005 57.8383C250.939 57.8668 250.868 57.8816 250.796 57.8819C250.722 57.8837 250.649 57.8693 250.582 57.8398C250.515 57.8102 250.454 57.7662 250.406 57.7109C250.355 57.6581 250.315 57.5952 250.289 57.5262C250.264 57.4573 250.252 57.3838 250.256 57.3103V57.2623H250.625V57.321C250.623 57.3733 250.64 57.4247 250.673 57.4652C250.689 57.4846 250.71 57.4999 250.733 57.5101C250.756 57.5203 250.781 57.525 250.807 57.524C250.831 57.5246 250.855 57.5196 250.877 57.5095C250.9 57.4993 250.919 57.4841 250.935 57.4652C250.968 57.4247 250.985 57.3733 250.983 57.321V56.8456C250.909 56.9158 250.812 56.9558 250.71 56.9578C250.643 56.961 250.575 56.9476 250.514 56.9187C250.452 56.8899 250.399 56.8464 250.358 56.7922C250.282 56.6708 250.247 56.5289 250.256 56.3863V55.9803C250.261 55.8746 250.292 55.7718 250.347 55.6812C250.405 55.5957 250.487 55.5289 250.582 55.4889C250.65 55.461 250.723 55.4464 250.796 55.4462ZM250.983 56.0177C250.985 55.9654 250.968 55.914 250.935 55.8735C250.92 55.8533 250.901 55.8369 250.878 55.8257C250.856 55.8146 250.831 55.809 250.807 55.8094C250.781 55.8081 250.755 55.8132 250.732 55.8244C250.708 55.8356 250.688 55.8525 250.673 55.8735C250.64 55.914 250.623 55.9654 250.625 56.0177V56.461C250.625 56.4932 250.631 56.525 250.644 56.5544C250.657 56.5839 250.676 56.6103 250.7 56.632C250.729 56.6543 250.765 56.6656 250.801 56.664C250.843 56.6657 250.883 56.6518 250.915 56.6251C250.946 56.5984 250.967 56.5608 250.972 56.5198C250.974 56.4967 250.974 56.4735 250.972 56.4504L250.983 56.0177Z" fill="black"/>
<path opacity="0.3" d="M263.22 55.4889H263.594L263.22 57.8658H262.884L262.675 56.5572L262.488 57.8658H262.141L261.746 55.4889H262.12L262.307 56.7601L262.483 55.4889H262.857L263.044 56.7601L263.22 55.4889Z" fill="black"/>
<path opacity="0.3" d="M263.898 57.8658V55.4889H264.919V55.8468H264.256V56.5144H264.737V56.8723H264.256V57.5186H264.919V57.8818L263.898 57.8658Z" fill="black"/>
<path opacity="0.3" d="M265.191 57.8658V55.4889H266.211V55.8468H265.549V56.5144H266.03V56.8723H265.549V57.5186H266.211V57.8818L265.191 57.8658Z" fill="black"/>
<path opacity="0.3" d="M266.794 57.1127V57.8658H266.436V55.4889H266.794V56.3328L267.232 55.4889H267.616L267.125 56.4557L267.702 57.8658H267.28L266.9 56.899L266.794 57.1127Z" fill="black"/>
<path opacity="0.3" d="M268.492 57.8658V56.0337H268.188V55.7827C268.276 55.7717 268.361 55.7386 268.433 55.6865C268.505 55.6368 268.563 55.5685 268.599 55.4889H268.85V57.8658H268.492Z" fill="black"/>
<path opacity="0.3" d="M270.303 57.321C270.305 57.3969 270.291 57.4724 270.261 57.5424C270.232 57.6124 270.188 57.6753 270.132 57.7269C270.081 57.7803 270.02 57.8226 269.952 57.8511C269.883 57.8796 269.81 57.8937 269.737 57.8925C269.661 57.893 269.587 57.8786 269.517 57.8502C269.447 57.8218 269.384 57.7799 269.331 57.7269C269.276 57.6748 269.233 57.6117 269.204 57.5417C269.176 57.4717 269.162 57.3965 269.165 57.321V56.0283C269.165 55.9159 269.199 55.806 269.261 55.7125C269.324 55.619 269.413 55.546 269.516 55.5026C269.62 55.4593 269.734 55.4475 269.845 55.4688C269.955 55.4901 270.057 55.5436 270.137 55.6224C270.19 55.6758 270.232 55.7392 270.26 55.8089C270.289 55.8785 270.303 55.9531 270.303 56.0283V57.321ZM269.929 56.0177C269.929 55.9909 269.924 55.9643 269.914 55.9395C269.904 55.9147 269.889 55.8923 269.87 55.8734C269.851 55.853 269.828 55.8368 269.802 55.8258C269.776 55.8147 269.749 55.8091 269.721 55.8093C269.693 55.8096 269.667 55.8153 269.642 55.8264C269.617 55.8374 269.595 55.8534 269.576 55.8734C269.557 55.8923 269.542 55.9147 269.532 55.9395C269.522 55.9643 269.517 55.9909 269.518 56.0177V57.3156C269.517 57.3711 269.538 57.4246 269.576 57.4652C269.615 57.5022 269.667 57.5232 269.721 57.5239C269.748 57.5247 269.775 57.5198 269.801 57.5096C269.827 57.4994 269.85 57.4841 269.869 57.4646C269.889 57.4451 269.904 57.4218 269.914 57.3962C269.925 57.3706 269.93 57.3432 269.929 57.3156V56.0177Z" fill="black"/>
</g>
<g opacity="0.4">
<path opacity="0.4" d="M96.7226 47.1242L95.5688 43.8019H96.5143L97.1499 45.8316L97.7855 43.7805H98.7363L97.5826 47.1029V49.4905H96.7226V47.1242Z" fill="white"/>
<path opacity="0.4" d="M99.4253 49.5119V43.8019H101.872V44.6672H100.269V46.2269H101.428V47.0922H100.285V48.6465H101.888V49.5119H99.4253Z" fill="white"/>
<path opacity="0.4" d="M103.57 48.2032L103.346 49.5119H102.465L103.437 43.8073H104.617L105.573 49.5119H104.671L104.468 48.2032H103.57ZM104.024 45.1159L103.704 47.3646H104.339L104.024 45.1159Z" fill="white"/>
<path opacity="0.4" d="M107.657 43.8073C107.853 43.7888 108.051 43.8147 108.236 43.8832C108.421 43.9516 108.588 44.0608 108.725 44.2026C108.938 44.4781 109.044 44.8216 109.024 45.1694V45.9973C109.027 46.1913 108.987 46.3836 108.907 46.5607C108.828 46.7379 108.711 46.8955 108.565 47.0228L109.2 49.5119H108.271L107.737 47.3754H107.165V49.5119H106.305V43.8073H107.657ZM108.191 45.1854C108.2 45.1184 108.194 45.05 108.173 44.9857C108.152 44.9214 108.116 44.8629 108.069 44.8148C108.021 44.7666 107.963 44.7302 107.899 44.7083C107.835 44.6864 107.766 44.6797 107.699 44.6886H107.165V46.5101H107.699C107.764 46.5101 107.829 46.4972 107.889 46.4722C107.949 46.4471 108.003 46.4104 108.049 46.3642C108.094 46.318 108.13 46.2632 108.155 46.203C108.179 46.1428 108.191 46.0783 108.191 46.0133V45.1854Z" fill="white"/>
</g>
<path d="M184.813 83.056H112.448C111.746 83.056 111.177 83.6252 111.177 84.3273V91.9335C111.177 92.6356 111.746 93.2047 112.448 93.2047H184.813C185.515 93.2047 186.085 92.6356 186.085 91.9335V84.3273C186.085 83.6252 185.515 83.056 184.813 83.056Z" fill="#6277EE"/>
<path opacity="0.2" d="M184.813 83.056H112.448C111.746 83.056 111.177 83.6252 111.177 84.3273V91.9335C111.177 92.6356 111.746 93.2047 112.448 93.2047H184.813C185.515 93.2047 186.085 92.6356 186.085 91.9335V84.3273C186.085 83.6252 185.515 83.056 184.813 83.056Z" fill="white"/>
<path opacity="0.7" d="M120.561 85.7907H113.617C113.432 85.7907 113.254 85.717 113.123 85.5858C112.991 85.4546 112.918 85.2766 112.918 85.091C112.919 84.9063 112.993 84.7297 113.125 84.5997C113.256 84.4696 113.433 84.3966 113.617 84.3966H120.561C120.745 84.3966 120.922 84.4698 121.052 84.6C121.183 84.7302 121.256 84.9068 121.256 85.091C121.256 85.2757 121.183 85.4528 121.053 85.5839C120.923 85.715 120.746 85.7893 120.561 85.7907Z" fill="white"/>
<path opacity="0.7" d="M141.927 88.5629H113.617C113.433 88.5629 113.256 88.49 113.125 88.3599C112.993 88.2298 112.919 88.0532 112.918 87.8685C112.918 87.683 112.991 87.505 113.123 87.3738C113.254 87.2425 113.432 87.1688 113.617 87.1688H141.927C142.019 87.1688 142.109 87.187 142.194 87.2222C142.279 87.2574 142.355 87.309 142.42 87.3741C142.484 87.4391 142.535 87.5163 142.57 87.6012C142.605 87.686 142.622 87.7769 142.621 87.8685C142.621 88.0527 142.548 88.2293 142.418 88.3596C142.288 88.4898 142.111 88.5629 141.927 88.5629Z" fill="white"/>
<path opacity="0.7" d="M138.188 91.2337H113.617C113.433 91.2337 113.256 91.1607 113.125 91.0307C112.993 90.9006 112.919 90.724 112.918 90.5393C112.918 90.3537 112.991 90.1758 113.123 90.0445C113.254 89.9133 113.432 89.8396 113.617 89.8396H138.188C138.28 89.8396 138.37 89.8577 138.455 89.893C138.54 89.9282 138.616 89.9798 138.681 90.0449C138.745 90.1099 138.796 90.1871 138.831 90.272C138.866 90.3568 138.883 90.4477 138.882 90.5393C138.882 90.7235 138.809 90.9001 138.679 91.0303C138.549 91.1605 138.372 91.2337 138.188 91.2337Z" fill="white"/>
<path d="M231.898 94.9513H159.532C158.83 94.9513 158.261 95.5205 158.261 96.2225V103.829C158.261 104.531 158.83 105.1 159.532 105.1H231.898C232.6 105.1 233.169 104.531 233.169 103.829V96.2225C233.169 95.5205 232.6 94.9513 231.898 94.9513Z" fill="white"/>
<path opacity="0.3" d="M167.646 97.6861H160.702C160.517 97.6861 160.34 97.6131 160.209 97.4831C160.078 97.353 160.004 97.1764 160.002 96.9917C160.002 96.8061 160.076 96.6282 160.207 96.4969C160.338 96.3657 160.516 96.292 160.702 96.292H167.646C167.831 96.2934 168.007 96.3677 168.137 96.4988C168.267 96.6299 168.34 96.8071 168.34 96.9917C168.34 97.0829 168.322 97.1732 168.287 97.2574C168.253 97.3417 168.201 97.4182 168.137 97.4827C168.072 97.5472 167.996 97.5984 167.912 97.6332C167.827 97.6681 167.737 97.6861 167.646 97.6861Z" fill="black"/>
<path opacity="0.3" d="M189.012 100.442H160.702C160.516 100.442 160.338 100.369 160.207 100.237C160.076 100.106 160.002 99.9282 160.002 99.7426C160.004 99.5579 160.078 99.3813 160.209 99.2513C160.34 99.1212 160.517 99.0482 160.702 99.0482H189.012C189.103 99.0482 189.193 99.0662 189.277 99.1011C189.362 99.136 189.438 99.1871 189.503 99.2516C189.567 99.3161 189.618 99.3926 189.653 99.4769C189.688 99.5611 189.706 99.6514 189.706 99.7426C189.706 99.9273 189.633 100.104 189.503 100.236C189.373 100.367 189.196 100.441 189.012 100.442Z" fill="black"/>
<path opacity="0.3" d="M185.273 103.113H160.702C160.516 103.113 160.338 103.039 160.207 102.908C160.076 102.777 160.002 102.599 160.002 102.413C160.004 102.229 160.078 102.052 160.209 101.922C160.34 101.792 160.517 101.719 160.702 101.719H185.273C185.457 101.719 185.633 101.792 185.764 101.922C185.894 102.052 185.967 102.229 185.967 102.413C185.967 102.598 185.894 102.775 185.764 102.906C185.634 103.037 185.457 103.112 185.273 103.113Z" fill="black"/>
<path d="M188.029 204.402C184.22 201.475 184.082 196.924 188.029 194.371C191.976 191.818 194.086 182.118 194.086 182.118H169.847C169.847 182.118 171.983 191.839 175.904 194.371C179.824 196.903 179.707 201.475 175.904 204.402C172.101 207.329 169.847 217.11 169.847 217.11H194.086C194.086 217.11 191.832 207.335 188.029 204.402Z" fill="#6277EE"/>
<path opacity="0.7" d="M188.029 204.402C184.22 201.475 184.082 196.924 188.029 194.371C191.976 191.818 194.086 182.118 194.086 182.118H169.847C169.847 182.118 171.983 191.839 175.904 194.371C179.824 196.903 179.707 201.475 175.904 204.402C172.101 207.329 169.847 217.11 169.847 217.11H194.086C194.086 217.11 191.832 207.335 188.029 204.402Z" fill="white"/>
<path d="M194.102 183.667H169.831C169.42 183.667 169.026 183.504 168.735 183.213C168.445 182.923 168.282 182.529 168.282 182.118C168.282 181.707 168.445 181.313 168.735 181.023C169.026 180.732 169.42 180.569 169.831 180.569H194.102C194.513 180.569 194.907 180.732 195.197 181.023C195.488 181.313 195.651 181.707 195.651 182.118C195.651 182.529 195.488 182.923 195.197 183.213C194.907 183.504 194.513 183.667 194.102 183.667Z" fill="#6277EE"/>
<path d="M194.102 218.92H169.831C169.42 218.92 169.026 218.757 168.735 218.467C168.445 218.176 168.282 217.782 168.282 217.371C168.282 216.96 168.445 216.566 168.735 216.276C169.026 215.985 169.42 215.822 169.831 215.822H194.102C194.513 215.822 194.907 215.985 195.197 216.276C195.488 216.566 195.651 216.96 195.651 217.371C195.651 217.782 195.488 218.176 195.197 218.467C194.907 218.757 194.513 218.92 194.102 218.92Z" fill="#6277EE"/>
<path d="M171.615 215.294H191.479C191.479 215.294 185.999 212.249 182.746 211.229V203.596C182.763 200.06 184.149 196.667 186.613 194.131C187.443 193.259 188.178 192.301 188.803 191.273L174.435 190.584C175.172 191.727 176.012 192.8 176.945 193.789C179.321 196.293 180.641 199.615 180.631 203.067V210.994C177.373 211.416 171.615 215.294 171.615 215.294Z" fill="#6277EE"/>
<path opacity="0.4" d="M171.615 215.294H191.479C191.479 215.294 185.999 212.249 182.746 211.229V203.596C182.763 200.06 184.149 196.667 186.613 194.131C187.443 193.259 188.178 192.301 188.803 191.273L174.435 190.584C175.172 191.727 176.012 192.8 176.945 193.789C179.321 196.293 180.641 199.615 180.631 203.067V210.994C177.373 211.416 171.615 215.294 171.615 215.294Z" fill="white"/>
<path d="M261.076 76.8512L189.445 66.529C188.75 66.4288 188.105 66.911 188.005 67.6059L186.92 75.1343C186.82 75.8293 187.302 76.4738 187.997 76.5739L259.628 86.8961C260.323 86.9962 260.968 86.5141 261.068 85.8192L262.153 78.2907C262.253 77.5958 261.771 76.9513 261.076 76.8512Z" fill="#6277EE"/>
<path opacity="0.1" d="M261.076 76.8512L189.445 66.529C188.75 66.4288 188.105 66.911 188.005 67.6059L186.92 75.1343C186.82 75.8293 187.302 76.4738 187.997 76.5739L259.628 86.8961C260.323 86.9962 260.968 86.5141 261.068 85.8192L262.153 78.2907C262.253 77.5958 261.771 76.9513 261.076 76.8512Z" fill="black"/>
<path opacity="0.7" d="M197.082 70.4021L190.208 69.4139C190.025 69.3874 189.859 69.2894 189.748 69.1412C189.637 68.993 189.589 68.8068 189.615 68.6234C189.643 68.441 189.742 68.277 189.89 68.1669C190.038 68.0569 190.223 68.0098 190.406 68.0358L197.28 69.024C197.371 69.037 197.458 69.0679 197.536 69.1148C197.615 69.1616 197.684 69.2236 197.738 69.297C197.793 69.3705 197.832 69.454 197.855 69.5428C197.877 69.6317 197.881 69.724 197.868 69.8145C197.855 69.9049 197.825 69.9919 197.779 70.0705C197.732 70.1491 197.671 70.2177 197.598 70.2724C197.525 70.327 197.442 70.3666 197.353 70.3889C197.265 70.4112 197.173 70.4156 197.082 70.4021Z" fill="white"/>
<path opacity="0.7" d="M217.834 76.1707L189.813 72.1326C189.722 72.1196 189.635 72.0887 189.556 72.0419C189.478 71.995 189.409 71.933 189.355 71.8596C189.3 71.7861 189.26 71.7026 189.238 71.6137C189.216 71.5249 189.212 71.4326 189.225 71.3421C189.238 71.2515 189.269 71.1644 189.316 71.0857C189.363 71.0071 189.425 70.9385 189.498 70.8839C189.572 70.8293 189.655 70.7898 189.744 70.7676C189.833 70.7454 189.925 70.7409 190.016 70.7545L218.032 74.7927C218.123 74.8051 218.21 74.8355 218.29 74.8821C218.369 74.9286 218.438 74.9905 218.493 75.064C218.548 75.1376 218.588 75.2213 218.611 75.3105C218.633 75.3996 218.638 75.4923 218.624 75.5832C218.611 75.6738 218.581 75.7609 218.534 75.8396C218.487 75.9182 218.425 75.9868 218.351 76.0414C218.278 76.096 218.194 76.1355 218.106 76.1577C218.017 76.1799 217.924 76.1844 217.834 76.1707Z" fill="white"/>
<path opacity="0.7" d="M213.753 78.2807L189.434 74.7768C189.343 74.7637 189.256 74.7328 189.177 74.686C189.099 74.6391 189.03 74.5772 188.975 74.5037C188.921 74.4302 188.881 74.3467 188.859 74.2579C188.837 74.1691 188.832 74.0767 188.846 73.9862C188.858 73.8958 188.889 73.8088 188.935 73.7302C188.981 73.6516 189.043 73.583 189.116 73.5283C189.189 73.4737 189.272 73.4341 189.36 73.4118C189.449 73.3896 189.541 73.3851 189.631 73.3987L213.951 76.9026C214.042 76.9151 214.129 76.9455 214.209 76.992C214.288 77.0386 214.357 77.1005 214.412 77.174C214.467 77.2476 214.507 77.3313 214.53 77.4204C214.553 77.5095 214.557 77.6023 214.544 77.6932C214.516 77.8755 214.417 78.0396 214.269 78.1496C214.121 78.2596 213.936 78.3068 213.753 78.2807Z" fill="white"/>
<path d="M243.468 214.668L238.836 215.155L238.601 212.468L237.971 205.166L242.602 204.675L243.302 212.746L243.468 214.668Z" fill="#FFC2B0"/>
<path d="M266.58 214.081H262.093L262.056 213.066L262.05 212.938L261.821 206.427L261.815 206.298L261.724 203.804H266.217L266.58 214.081Z" fill="#FFC2B0"/>
<path opacity="0.2" d="M242.602 204.675L243.302 212.746L238.601 212.468L237.971 205.166L242.602 204.675Z" fill="black"/>
<path opacity="0.2" d="M266.553 213.509H266.548L262.056 212.938H262.05L261.815 206.656H261.821L266.318 207.014L266.548 213.312L266.553 213.509Z" fill="black"/>
<path d="M261.452 213.808H266.906C266.995 213.809 267.081 213.84 267.15 213.896C267.219 213.953 267.267 214.031 267.285 214.118L268.172 218.114C268.189 218.2 268.189 218.29 268.172 218.377C268.155 218.463 268.12 218.546 268.07 218.619C268.02 218.692 267.957 218.755 267.882 218.803C267.808 218.851 267.725 218.883 267.637 218.899H267.493C265.73 218.872 264.443 218.76 262.227 218.76C260.864 218.76 256.746 218.904 254.861 218.904C252.975 218.904 252.724 217.045 253.504 216.869C256.965 216.116 259.566 215.074 260.678 214.081C260.782 213.987 260.905 213.914 261.038 213.867C261.17 213.821 261.311 213.801 261.452 213.808Z" fill="#263238"/>
<path d="M238.345 213.67H243.825C243.914 213.67 244 213.701 244.07 213.756C244.139 213.811 244.189 213.888 244.21 213.974L245.091 217.975C245.11 218.06 245.112 218.147 245.096 218.233C245.081 218.319 245.049 218.4 245.001 218.473C244.954 218.546 244.893 218.609 244.821 218.658C244.75 218.708 244.669 218.742 244.584 218.76H244.434C242.671 218.76 241.39 218.626 239.173 218.626C237.805 218.626 233.693 218.765 231.807 218.765C229.922 218.765 229.67 216.906 230.445 216.735C233.906 215.982 236.513 214.935 237.619 213.942C237.818 213.763 238.077 213.666 238.345 213.67Z" fill="#263238"/>
<path d="M237.544 211.795H244.13C244.13 211.795 243.596 162.777 250.71 143.638C251.213 149.962 251.779 156.527 252.313 161.997C252.66 165.383 253.002 166.692 253.328 168.903C255.4 183.181 260.629 212.366 260.629 212.366H267.135C267.135 212.366 266.366 184.655 265.592 170.623C264.742 155.395 264.379 123.522 264.342 120.665H240.519C238.276 132.656 232.464 172.957 237.544 211.795Z" fill="#263238"/>
<path opacity="0.2" d="M237.544 211.795H244.13C244.13 211.795 243.596 162.777 250.71 143.638C251.213 149.962 251.779 156.527 252.313 161.997C252.66 165.383 253.002 166.692 253.328 168.903C255.4 183.181 260.629 212.366 260.629 212.366H267.135C267.135 212.366 266.366 184.655 265.592 170.623C264.742 155.395 264.379 123.522 264.342 120.665H240.519C238.276 132.656 232.464 172.957 237.544 211.795Z" fill="white"/>
<path d="M267.157 82.8689C270.452 85.0055 278.053 100.987 274.971 104.192C269.598 109.779 263.754 94.2301 263.754 94.2301L267.157 82.8689Z" fill="#6277EE"/>
<path opacity="0.3" d="M274.971 104.197C273.721 105.495 272.445 105.65 271.232 105.121C267.21 103.375 263.786 94.2301 263.786 94.2301L265.725 87.7189L267.173 82.8689C270.452 84.9788 278.053 100.987 274.971 104.197Z" fill="black"/>
<path opacity="0.2" d="M271.221 105.121C267.199 103.375 263.776 94.2301 263.776 94.2301L265.725 87.7189C265.725 87.7189 272.135 95.3624 271.221 105.121Z" fill="black"/>
<path d="M249.193 71.9457C249.246 72.161 249.31 72.3732 249.386 72.5813C249.807 73.7711 250.583 74.8037 251.608 75.5404C251.865 75.729 252.136 75.8969 252.42 76.0425C253.503 76.6202 254.746 76.8284 255.959 76.6356C257.171 76.4428 258.288 75.8595 259.139 74.9742C261.388 72.7041 261.329 70.0815 261.58 65.6428C261.653 64.6887 261.498 63.731 261.126 62.8492C260.82 62.1121 260.372 61.4425 259.807 60.8786C259.243 60.3148 258.572 59.8678 257.835 59.5632C257.097 59.2586 256.306 59.1024 255.508 59.1035C254.71 59.1046 253.92 59.263 253.184 59.5696C248.825 61.3216 248.232 67.9503 249.193 71.9457Z" fill="#FFC2B0"/>
<path opacity="0.2" d="M251.608 75.5405C251.865 75.729 252.136 75.8969 252.42 76.0426C253.162 76.439 253.985 76.664 254.826 76.701C255.667 76.738 256.506 76.586 257.28 76.2562C257.082 75.7223 256.817 75.2161 256.49 74.7499C254.82 74.5406 253.126 74.815 251.608 75.5405Z" fill="black"/>
<path d="M260.539 81.2985C258.354 83.2855 252.997 82.5537 252.997 82.5537C252.997 82.5537 249.653 81.635 250.353 80.5934C252.324 80.2676 253.28 79.3488 253.67 78.1684C253.887 77.44 253.956 76.6753 253.873 75.9196C253.838 75.4987 253.783 75.0798 253.707 74.6644L260.33 69.761C259.46 72.9979 258.402 78.9482 260.539 81.2985Z" fill="#FFC2B0"/>
<path d="M251.608 67.9022L250.652 68.2654L251.127 66.3105C251.127 66.3105 249.722 64.1739 251.127 62.3204C251.127 62.3204 247.26 61.1453 249.445 59.1156C250.256 58.3571 251.266 59.1156 253.931 57.9511C255.384 57.3209 259.908 57.2728 260.138 59.1156C260.138 59.1156 263.402 59.1156 263.749 64.6707C263.853 66.2978 263.597 67.9279 263.001 69.4454C262.405 70.9629 261.482 72.3307 260.298 73.452C260.298 73.452 256.356 74.3814 254.423 72.8003C252.489 71.2192 251.608 67.9022 251.608 67.9022Z" fill="#263238"/>
<path d="M254.129 68.2226C254.045 68.6406 253.868 69.0345 253.612 69.3755C253.356 69.7165 253.027 69.996 252.649 70.1936C251.747 70.5782 251.154 69.3069 251.282 67.9716C251.41 66.7858 252.019 65.1193 252.986 65.3436C253.953 65.5679 254.444 67.0262 254.129 68.2226Z" fill="#FFC2B0"/>
<path opacity="0.2" d="M250.71 143.611C251.213 149.936 251.779 156.516 252.313 161.986C253.125 154.086 254.118 148.456 254.118 148.456C254.118 148.456 255.048 147.692 257.606 143.611C260.165 139.531 257.606 131.903 257.606 131.903C257.713 138.986 250.71 143.611 250.71 143.611Z" fill="black"/>
<path d="M236.807 209.941L237.127 211.795H244.904V210.08L236.807 209.941Z" fill="#6277EE"/>
<path d="M259.908 210.652L260.651 212.366H267.178L267.605 210.652H259.908Z" fill="#6277EE"/>
<path d="M264.577 124.575V128.073L239.616 126.321V123.218L264.577 124.575Z" fill="#6277EE"/>
<path opacity="0.2" d="M264.577 124.575V128.073L239.616 126.321V123.218L264.577 124.575Z" fill="white"/>
<path d="M251.266 80.1287C251.266 80.1287 254.001 77.7357 258.744 78.9108C263.487 80.0859 262.899 83.4297 262.899 83.4297L251.266 80.1287Z" fill="#6277EE"/>
<path d="M216.915 82.6872L212.776 79.8188C212.182 79.1079 211.498 78.4776 210.741 77.944C209.838 77.4099 204.267 76.5178 203.962 76.8757C203.658 77.2336 203.663 80.0806 204.267 80.7322C204.87 81.3839 209.608 82.0729 209.838 82.0729C210.177 82.0362 210.514 81.9809 210.847 81.9073L214.96 85.2297L216.915 82.6872Z" fill="#FFC2B0"/>
<path d="M216.386 82.1958L213.828 80.0859L211.269 82.6872L213.828 85.5021L216.386 82.1958Z" fill="#6277EE"/>
<path opacity="0.2" d="M251.266 80.1287C251.266 80.1287 254.001 77.7357 258.744 78.9108C263.487 80.0859 262.899 83.4297 262.899 83.4297L251.266 80.1287Z" fill="white"/>
<path opacity="0.2" d="M216.386 82.1958L213.828 80.0859L211.269 82.6872L213.828 85.5021L216.386 82.1958Z" fill="white"/>
<path d="M238.398 121.68C238.376 121.994 238.417 122.31 238.518 122.608C238.619 122.906 238.779 123.182 238.988 123.417C239.197 123.653 239.451 123.845 239.735 123.981C240.019 124.118 240.327 124.196 240.642 124.212L264.069 125.355C264.248 125.364 264.427 125.337 264.594 125.275C264.762 125.214 264.916 125.118 265.046 124.995C265.175 124.873 265.279 124.725 265.35 124.56C265.421 124.396 265.458 124.219 265.458 124.041C265.608 109.779 270.49 85.4488 267.157 82.8689C263.706 80.1982 246.79 78.8041 246.79 78.8041C245.997 80.6705 245.305 82.5784 244.717 84.5194C244.643 84.7651 244.562 85.0108 244.493 85.2619C243.521 88.4667 242.704 91.928 242.004 95.4373C241.951 95.6723 241.908 95.9073 241.86 96.1423C240.218 104.581 239.062 113.108 238.398 121.68Z" fill="#6277EE"/>
<path opacity="0.3" d="M265.458 124.041C265.458 124.22 265.421 124.397 265.349 124.562C265.278 124.726 265.174 124.874 265.044 124.997C264.913 125.12 264.759 125.216 264.591 125.277C264.422 125.338 264.243 125.365 264.064 125.355L240.621 124.212C240.306 124.196 239.997 124.118 239.713 123.981C239.429 123.845 239.175 123.653 238.966 123.417C238.757 123.182 238.598 122.906 238.496 122.608C238.395 122.31 238.355 121.994 238.377 121.68C239.041 113.108 240.197 104.581 241.838 96.1423C241.886 95.9073 241.929 95.6723 241.983 95.4373C242.214 94.2871 242.458 93.1458 242.714 92.0134C243.248 89.6899 243.82 87.4198 244.472 85.2619C244.541 85.0108 244.621 84.7651 244.696 84.5194C244.771 84.2737 244.856 83.9853 244.931 83.7502C245.497 81.9983 246.111 80.3317 246.768 78.8041C246.768 78.8041 263.685 80.2035 267.135 82.8689C270.49 85.4488 265.608 109.779 265.458 124.041Z" fill="black"/>
<path opacity="0.2" d="M242.757 92.0135C243.291 89.69 243.863 87.4199 244.514 85.2619C244.584 85.0109 244.664 84.7652 244.739 84.5195C244.813 84.2738 244.899 83.9853 244.974 83.7503L246.314 83.4298C246.314 83.4298 246.72 88.611 242.757 92.0135Z" fill="black"/>
<path d="M246.79 78.8041C249.626 78.5637 243.638 88.2904 243.638 88.2904C243.638 88.2904 230.242 94.4651 226.199 94.5826C222.994 94.6734 216.103 88.4774 213.283 85.8067C213.121 85.6534 212.992 85.4687 212.904 85.2639C212.816 85.0591 212.77 84.8385 212.77 84.6155C212.77 84.3926 212.816 84.1719 212.904 83.9671C212.992 83.7623 213.121 83.5776 213.283 83.4244L214.885 81.9074C215.152 81.6523 215.496 81.4941 215.863 81.4583C216.231 81.4224 216.599 81.511 216.91 81.7098C219.255 83.2214 224.767 86.672 226.199 86.6933C227.983 86.7147 242.399 79.1726 246.79 78.8041Z" fill="#6277EE"/>
<path opacity="0.3" d="M246.79 78.8041C249.626 78.5637 243.638 88.2904 243.638 88.2904C243.638 88.2904 230.242 94.4651 226.199 94.5826C222.994 94.6734 216.103 88.4774 213.283 85.8067C213.121 85.6534 212.992 85.4687 212.904 85.2639C212.816 85.0591 212.77 84.8385 212.77 84.6155C212.77 84.3926 212.816 84.1719 212.904 83.9671C212.992 83.7623 213.121 83.5776 213.283 83.4244L214.885 81.9074C215.152 81.6523 215.496 81.4941 215.863 81.4583C216.231 81.4224 216.599 81.511 216.91 81.7098C219.255 83.2214 224.767 86.672 226.199 86.6933C227.983 86.7147 242.399 79.1726 246.79 78.8041Z" fill="black"/>
<path d="M94.7569 79.755C94.7569 79.755 96.3059 76.7317 101.578 77.8053C106.85 78.879 108.933 82.2868 108.522 86.3943C108.11 90.5019 106.828 92.8521 107.667 94.8071C108.089 95.7792 110.546 95.0742 110.546 95.0742C110.546 95.0742 109.398 96.4843 105.269 97.0558C100.889 97.6541 94.8957 98.8399 92.3639 95.4107C89.8321 91.9815 94.7569 79.755 94.7569 79.755Z" fill="#263238"/>
<path d="M125.347 214.14L122.137 214.706L120.818 210.326L119.616 206.304L123.317 205.006L124.396 209.84L125.347 214.14Z" fill="#FFC2B0"/>
<path opacity="0.2" d="M124.412 209.941L120.834 210.411L119.621 206.347L123.323 205.033L124.412 209.941Z" fill="black"/>
<path d="M103.891 215.619H100.627L100.093 211.026L99.6069 206.827L103.485 206.186L103.704 211.181L103.891 215.619Z" fill="#FFC2B0"/>
<path opacity="0.2" d="M103.704 211.218L100.093 211.063L99.6069 206.849L103.485 206.197L103.704 211.218Z" fill="black"/>
<path d="M124.712 207.393L119.429 208.323C114.087 195.039 110.306 178.609 107.624 169.411C106.182 164.443 104.954 160.031 104.115 156.11L104.275 170.57V208.494H99.0727C86.0183 146.33 95.2696 126.823 95.2696 126.823L110.883 124.222C111.5 127.118 111.937 130.049 112.191 132.998L112.896 138.174L118.996 169.688L124.712 207.393Z" fill="#263238"/>
<g opacity="0.2">
<path opacity="0.2" d="M124.712 207.393L119.429 208.323C114.087 195.039 110.306 178.609 107.624 169.411C106.182 164.443 104.954 160.031 104.115 156.11L104.275 170.57V208.494H99.0727C86.0183 146.33 95.2696 126.823 95.2696 126.823L110.883 124.222C111.5 127.118 111.937 130.049 112.191 132.998L112.896 138.174L118.996 169.688L124.712 207.393Z" fill="black"/>
</g>
<path d="M141.27 95.9768L148.032 92.9482C148.032 92.9482 148.695 91.7036 149.309 91.522C149.923 91.3404 153.769 91.3724 154.079 91.7998C154.389 92.2271 153.945 95.1809 153.176 95.464C152.407 95.7471 149.09 95.2396 148.796 95.0634L141.083 99.4059L141.27 95.9768Z" fill="#FFC2B0"/>
<path opacity="0.2" d="M107.619 169.411C106.177 164.443 105.055 160.031 104.19 156.11C104.262 151.466 104.599 146.829 105.199 142.223C105.199 142.223 107.496 160.138 107.619 169.411Z" fill="black"/>
<path d="M90.8951 150.774L78.1504 153.408C78.079 153.424 78.0117 153.454 77.9525 153.497C77.8934 153.54 77.8438 153.595 77.8067 153.658C77.7697 153.721 77.746 153.792 77.7371 153.864C77.7282 153.937 77.7344 154.011 77.7552 154.081L80.303 162.274C80.3435 162.397 80.4269 162.501 80.5378 162.566C80.6488 162.632 80.7798 162.656 80.9066 162.632L93.5765 160.197C93.6477 160.182 93.715 160.152 93.7745 160.11C93.834 160.069 93.8842 160.015 93.9222 159.953C93.9603 159.891 93.9852 159.822 93.9955 159.75C94.0059 159.678 94.0014 159.604 93.9824 159.534L91.5093 151.127C91.4677 151.003 91.3822 150.899 91.269 150.834C91.1559 150.769 91.0229 150.748 90.8951 150.774Z" fill="#6277EE"/>
<path opacity="0.6" d="M90.8951 150.774L78.1504 153.408C78.079 153.424 78.0117 153.454 77.9525 153.497C77.8934 153.54 77.8438 153.595 77.8067 153.658C77.7697 153.721 77.746 153.792 77.7371 153.864C77.7282 153.937 77.7344 154.011 77.7552 154.081L80.303 162.274C80.3435 162.397 80.4269 162.501 80.5378 162.566C80.6488 162.632 80.7798 162.656 80.9066 162.632L93.5765 160.197C93.6477 160.182 93.715 160.152 93.7745 160.11C93.834 160.069 93.8842 160.015 93.9222 159.953C93.9603 159.891 93.9852 159.822 93.9955 159.75C94.0059 159.678 94.0014 159.604 93.9824 159.534L91.5093 151.127C91.4677 151.003 91.3822 150.899 91.269 150.834C91.1559 150.769 91.0229 150.748 90.8951 150.774Z" fill="white"/>
<path d="M90.66 151.09L77.9153 153.728C77.8439 153.744 77.7766 153.775 77.7174 153.818C77.6583 153.861 77.6087 153.916 77.5716 153.979C77.5345 154.042 77.5108 154.112 77.502 154.185C77.4931 154.257 77.4993 154.331 77.5201 154.401L80.0679 162.606C80.1074 162.729 80.1903 162.834 80.3014 162.901C80.4124 162.968 80.544 162.992 80.6715 162.969L93.3467 160.533C93.4185 160.518 93.4864 160.489 93.5463 160.447C93.6062 160.404 93.6568 160.35 93.6949 160.288C93.7329 160.225 93.7577 160.155 93.7677 160.083C93.7776 160.01 93.7725 159.936 93.7527 159.865L91.2742 151.458C91.2357 151.331 91.1515 151.224 91.038 151.156C90.9246 151.088 90.7898 151.064 90.66 151.09Z" fill="#6277EE"/>
<path opacity="0.7" d="M90.66 151.09L77.9153 153.728C77.8439 153.744 77.7766 153.775 77.7174 153.818C77.6583 153.861 77.6087 153.916 77.5716 153.979C77.5345 154.042 77.5108 154.112 77.502 154.185C77.4931 154.257 77.4993 154.331 77.5201 154.401L80.0679 162.606C80.1074 162.729 80.1903 162.834 80.3014 162.901C80.4124 162.968 80.544 162.992 80.6715 162.969L93.3467 160.533C93.4185 160.518 93.4864 160.489 93.5463 160.447C93.6062 160.404 93.6568 160.35 93.6949 160.288C93.7329 160.225 93.7577 160.155 93.7677 160.083C93.7776 160.01 93.7725 159.936 93.7527 159.865L91.2742 151.458C91.2357 151.331 91.1515 151.224 91.038 151.156C90.9246 151.088 90.7898 151.064 90.66 151.09Z" fill="white"/>
<path opacity="0.2" d="M85.9115 158.22C85.6651 158.277 85.4075 158.259 85.1713 158.168C84.9352 158.078 84.7312 157.92 84.5851 157.714C84.439 157.507 84.3575 157.262 84.3508 157.01C84.3441 156.757 84.4126 156.508 84.5476 156.294C84.6826 156.081 84.878 155.912 85.109 155.809C85.3401 155.707 85.5963 155.675 85.8454 155.718C86.0944 155.761 86.3251 155.878 86.508 156.052C86.6909 156.227 86.8179 156.451 86.8729 156.698C86.8754 156.714 86.8754 156.73 86.8729 156.746C86.6004 156.855 86.3742 157.055 86.2329 157.312C86.0916 157.57 86.0441 157.868 86.0984 158.156C86.0377 158.182 85.9752 158.203 85.9115 158.22Z" fill="black"/>
<path d="M84.3785 142.201L86.2053 149.38C86.2053 149.38 87.3163 150.246 87.3911 150.881C87.4659 151.517 86.7715 155.299 86.3228 155.534C85.8741 155.769 83.0165 154.818 82.8669 154.017C82.7173 153.215 83.7963 150.027 84.0153 149.743L81.0348 141.443L84.3785 142.201Z" fill="#FFC2B0"/>
<path d="M111.262 123.282C111.903 112.065 111.615 105.896 111.326 102.814C111.006 99.5289 110.504 99.4061 110.504 99.4061C110.504 99.4061 106.941 99.0589 103.843 99.0856C101.444 99.1653 99.0536 99.417 96.6906 99.8387C94.4523 100.212 92.244 100.748 90.0833 101.441C90.4465 102.472 90.7723 103.45 91.0768 104.374C91.4827 105.591 91.8459 106.718 92.145 107.771C92.7593 109.736 93.2133 111.44 93.6193 112.968C94.5947 116.785 95.1693 120.692 95.3339 124.628C95.3339 124.628 91.4133 134.873 90.6494 142.388C90.6494 142.388 101.135 144.589 105.269 144.114C108.439 143.662 111.534 142.781 114.467 141.496L111.262 123.282Z" fill="#263238"/>
<path opacity="0.1" d="M111.262 123.282C111.903 112.065 111.615 105.896 111.326 102.814C111.006 99.5289 110.504 99.4061 110.504 99.4061C110.504 99.4061 106.941 99.0589 103.843 99.0856C101.444 99.1653 99.0536 99.417 96.6906 99.8387C94.4523 100.212 92.244 100.748 90.0833 101.441C90.4465 102.472 90.7723 103.45 91.0768 104.374C91.4827 105.591 91.8459 106.718 92.145 107.771C92.7593 109.736 93.2133 111.44 93.6193 112.968C94.5947 116.785 95.1693 120.692 95.3339 124.628C95.3339 124.628 91.4133 134.873 90.6494 142.388C90.6494 142.388 101.135 144.589 105.269 144.114C108.439 143.662 111.534 142.781 114.467 141.496L111.262 123.282Z" fill="white"/>
<path d="M103.661 99.7425C103.507 99.6595 103.346 99.5899 103.18 99.5341C102.812 99.2457 102.363 98.546 102.384 96.8634C102.401 96.1958 102.464 95.5302 102.571 94.8711L97.8442 93.9897C97.8442 93.9897 99.4466 97.1946 98.1113 99.5288C97.6519 99.7371 97.3742 100.026 97.4222 100.41C97.7801 103.145 103.645 105.752 103.645 105.752C103.645 105.752 106.513 101.307 103.661 99.7425Z" fill="#FFC2B0"/>
<path opacity="0.2" d="M102.571 94.8551C102.464 95.5142 102.401 96.1798 102.384 96.8474C99.1796 96.8474 97.8442 93.9738 97.8442 93.9738L102.571 94.8551Z" fill="black"/>
<path d="M99.9595 81.6457C104.067 81.4214 105.509 83.5473 106.038 87.7617C106.706 93.0336 105.739 96.8421 100.542 96.0035C93.4857 94.8551 93.1385 82.0196 99.9595 81.6457Z" fill="#FFC2B0"/>
<path d="M95.8679 88.8139C95.8679 88.8139 97.5985 85.3367 97.1658 82.7461C97.1658 82.7461 105.125 78.975 105.979 87.2168C105.979 87.2168 106.369 79.835 99.3024 80.0593C92.2357 80.2837 92.8286 90.6086 96.6317 93.4877C96.6264 93.4877 94.7996 90.9879 95.8679 88.8139Z" fill="#263238"/>
<path d="M96.5676 89.6311C96.5013 89.1581 96.2507 88.7305 95.8706 88.4414C95.4904 88.1522 95.0114 88.025 94.5379 88.0874C93.272 88.2957 92.8073 90.9451 96.0121 91.3991C96.4661 91.4792 96.7012 91.0199 96.5676 89.6311Z" fill="#FFC2B0"/>
<path d="M98.5867 81.619C98.5867 81.619 99.3506 84.5621 95.2697 88.1302C91.1889 91.6983 93.4429 97.1412 95.5955 97.7181C95.5955 97.7181 91.8565 97.232 90.0832 94.9993C87.546 91.7624 90.7242 89.8715 91.1515 86.891C91.5788 83.9105 90.2114 81.8968 92.364 79.7442C94.5166 77.5916 99.2277 78.4142 98.5867 81.619Z" fill="#263238"/>
<path d="M93.224 89.3107C93.1973 89.3103 93.1714 89.302 93.1495 89.2868C93.1276 89.2716 93.1107 89.2501 93.1011 89.2252C93.0888 89.1926 93.0898 89.1565 93.1037 89.1245C93.1177 89.0926 93.1436 89.0674 93.1759 89.0543C95.8466 88.0341 97.5559 86.624 98.325 84.8613C98.8367 83.7127 98.9071 82.4157 98.5227 81.2184C98.5158 81.202 98.5122 81.1843 98.5122 81.1665C98.5123 81.1486 98.5159 81.131 98.5228 81.1145C98.5298 81.0981 98.54 81.0832 98.5528 81.0708C98.5656 81.0584 98.5808 81.0486 98.5975 81.0422C98.6301 81.0299 98.6662 81.0308 98.6981 81.0448C98.7301 81.0587 98.7553 81.0846 98.7684 81.117C99.1844 82.3805 99.1139 83.7538 98.5708 84.9681C97.7695 86.8002 95.9855 88.2584 93.2721 89.3054L93.224 89.3107Z" fill="#263238"/>
<path d="M94.3991 100.25C94.3991 100.25 100.488 110.115 100.462 118.266C100.435 126.418 92.097 133.105 92.097 133.105L93.8436 123.597L90.1046 101.409L94.3991 100.25Z" fill="#6277EE"/>
<path d="M108.404 99.0588C108.404 99.0588 107.085 113.443 107.993 118.288C108.901 123.133 113.436 132.501 113.436 132.501L111.834 122.353C111.834 122.353 112.993 108.016 110.765 99.3847L108.404 99.0588Z" fill="#6277EE"/>
<path d="M110.781 99.3793C110.781 99.3793 125.23 101.254 127.34 101.254C129.45 101.254 145.565 93.7761 145.565 93.7761L147.653 96.1103C147.653 96.1103 133.862 106.441 128.616 107.258C123.371 108.075 110.781 107.958 110.781 107.958V99.3793Z" fill="#6277EE"/>
<path d="M90.0832 101.409C87.2309 102.061 78.4977 124.548 78.4977 127.886C78.4977 131.225 81.9803 147.885 81.9803 147.885L86.3282 146.865C86.3282 146.865 84.0421 129.387 84.8486 127.886C85.6552 126.386 92.9996 110.527 92.9996 110.527C92.8407 108.536 92.5354 106.56 92.0863 104.614C91.3972 101.794 90.0832 101.409 90.0832 101.409Z" fill="#6277EE"/>
<path d="M121.111 212.575C121.111 212.195 125.791 212.575 125.791 212.575C125.791 212.575 128.622 215.539 131.399 216.239C134.177 216.939 132.596 218.589 129.476 218.541L121.763 218.424C119.552 218.359 120.973 216.511 121.111 212.575Z" fill="#263238"/>
<path d="M127.916 213.755C127.362 213.624 126.824 213.428 126.314 213.173L126.277 213.146V213.104C126.277 213.104 126.277 213.104 126.277 213.077C126.274 213.059 126.274 213.041 126.277 213.023C126.277 212.975 126.704 211.896 127.345 211.64C127.44 211.597 127.543 211.574 127.647 211.574C127.751 211.574 127.854 211.597 127.949 211.64C128.157 211.741 128.258 211.875 128.248 212.035C128.248 212.281 127.895 212.521 127.511 212.719C127.872 212.66 128.242 212.704 128.579 212.847C128.699 212.918 128.788 213.033 128.825 213.168C128.856 213.253 128.862 213.346 128.84 213.435C128.818 213.524 128.77 213.604 128.702 213.664C128.584 213.734 128.454 213.778 128.319 213.793C128.183 213.809 128.046 213.796 127.916 213.755ZM126.757 213.098C127.441 213.403 128.296 213.67 128.515 213.493C128.515 213.493 128.595 213.429 128.552 213.248C128.543 213.212 128.527 213.179 128.504 213.15C128.481 213.122 128.452 213.098 128.419 213.082C128.061 212.885 127.259 213.018 126.731 213.098H126.757ZM127.692 211.832C127.602 211.816 127.509 211.828 127.425 211.864C127.053 212.099 126.767 212.448 126.608 212.858C127.302 212.601 127.975 212.249 127.991 212.041C127.991 211.977 127.89 211.912 127.826 211.88C127.774 211.858 127.721 211.842 127.665 211.832H127.692Z" fill="#6277EE"/>
<path d="M99.607 213.093C99.607 212.714 104.286 213.013 104.286 213.013C104.286 213.013 107.16 215.934 109.948 216.591C112.736 217.248 111.176 218.92 108.062 218.92H100.349C98.1327 218.92 99.5161 217.035 99.607 213.093Z" fill="#263238"/>
<path d="M106.743 214.209C106.069 214.125 105.415 213.925 104.809 213.616C104.792 213.61 104.777 213.599 104.767 213.584V213.557C104.76 213.542 104.756 213.526 104.756 213.509C104.756 213.493 104.76 213.476 104.767 213.461C104.767 213.419 105.173 212.329 105.808 212.062C105.903 212.019 106.006 211.996 106.11 211.996C106.214 211.996 106.317 212.019 106.412 212.062C106.626 212.158 106.727 212.292 106.716 212.452C106.716 212.697 106.369 212.943 105.99 213.146C106.35 213.083 106.72 213.122 107.058 213.258C107.181 213.328 107.271 213.443 107.309 213.579C107.343 213.663 107.351 213.756 107.33 213.845C107.31 213.933 107.264 214.014 107.197 214.076C107.069 214.177 106.906 214.225 106.743 214.209ZM105.231 213.552C105.92 213.846 106.775 214.086 106.999 213.921C106.999 213.921 107.074 213.857 106.999 213.675C106.991 213.639 106.974 213.606 106.951 213.577C106.928 213.549 106.899 213.526 106.866 213.509C106.551 213.301 105.76 213.419 105.231 213.552ZM106.07 212.27C106.004 212.27 105.939 212.282 105.878 212.308C105.513 212.551 105.232 212.902 105.077 213.312C105.771 213.05 106.439 212.687 106.449 212.473C106.449 212.409 106.348 212.35 106.284 212.318C106.218 212.282 106.145 212.26 106.07 212.254V212.27Z" fill="#6277EE"/>
</svg>
