<svg width="40" height="39" viewBox="0 0 40 39" fill="none" xmlns="http://www.w3.org/2000/svg">
<path fill-rule="evenodd" clip-rule="evenodd" d="M4.87166 0.110664C4.78508 0.173961 4.64057 0.511636 4.55054 0.860952C4.26561 1.9661 3.71958 2.78369 2.75285 3.55299C2.14543 4.03635 1.99983 4.30655 2.17281 4.62967C2.34123 4.94443 2.68146 5.02464 3.06879 4.84084C3.48385 4.64395 4.79609 3.33818 5.03763 2.88182C5.13658 2.69493 5.23889 2.54405 5.26499 2.54642C5.29118 2.54878 5.45579 2.77923 5.63086 3.05843C5.80593 3.33763 6.1205 3.7105 6.32986 3.88702L6.71064 4.20787L6.32013 4.71643C6.10532 4.99609 5.79438 5.46499 5.62913 5.75838L5.32875 6.29195L5.20188 6.04976C4.94569 5.56094 4.26597 5.56685 4.07863 6.05959C3.99978 6.26703 4.03498 6.41609 4.29953 6.99485C4.4726 7.37345 4.64439 7.844 4.68122 8.04044C4.75634 8.44077 5.07747 8.81719 5.34384 8.81719C5.67588 8.81719 5.90096 8.51626 6.09213 7.81681C6.38451 6.74667 6.94527 5.80776 7.9221 4.7529C8.55162 4.07309 8.51542 3.90157 7.61499 3.2978C6.79722 2.74959 6.30221 2.02294 5.90142 0.782285C5.78974 0.436516 5.63304 0.136401 5.53764 0.0852903C5.30937 -0.0368476 5.06037 -0.0272985 4.87166 0.110664ZM14.1217 0.657055C13.8098 0.836124 9.80747 5.00363 9.7157 5.24491C9.66132 5.38805 9.66768 5.5332 9.73407 5.6628C9.88559 5.95873 19.5572 15.64 19.7958 15.7345C19.9237 15.7851 20.08 15.7795 20.212 15.7194C20.3281 15.6665 22.6402 13.3783 25.35 10.6345C29.3561 6.57806 30.2767 5.60095 30.2767 5.40561C30.2767 5.21644 29.8725 4.74626 28.3761 3.1943C27.3307 2.11034 26.3258 1.08013 26.1429 0.90506L25.8104 0.586756L20.0632 0.566111C15.6585 0.550378 14.2706 0.571568 14.1217 0.657055ZM26.9109 3.45058C27.8944 4.47789 28.4314 5.1024 28.3539 5.12905C27.5938 5.38951 25.4192 5.90589 25.3545 5.84123C25.3093 5.79603 24.9086 5.06584 24.4641 4.2187C24.0197 3.37155 23.5545 2.60253 23.4304 2.50968C23.0608 2.23312 22.5448 2.50849 22.5482 2.98049C22.5492 3.11454 23.0124 4.10402 23.5775 5.17943C24.4076 6.75922 24.6509 7.15082 24.8443 7.21885C25.0276 7.28333 25.3665 7.22558 26.2897 6.97275C26.953 6.79105 27.5059 6.65272 27.5185 6.66527C27.531 6.67782 26.2326 7.99587 24.6331 9.59431L21.7249 12.5004L22.7268 10.0294C23.2778 8.67022 23.7287 7.48231 23.7287 7.38946C23.7287 7.29661 23.665 7.12972 23.5871 7.01859L23.4456 6.81642H20.0015H16.5573L16.3689 7.05606C16.2652 7.18784 16.1804 7.3278 16.1804 7.367C16.1804 7.40628 16.6321 8.55191 17.1842 9.91288C17.7363 11.2739 18.1723 12.4031 18.1532 12.4223C18.134 12.4414 16.8396 11.1644 15.2767 9.58449C13.7138 8.00451 12.4492 6.69765 12.4665 6.68028C12.4838 6.663 13.0091 6.78887 13.6337 6.96002C14.2583 7.13109 14.8596 7.27114 14.97 7.27114C15.2569 7.27114 15.4834 6.92619 16.5454 4.87158C17.5631 2.90274 17.5963 2.75113 17.0743 2.4582C16.618 2.20201 16.4591 2.37908 15.4954 4.21851C15.0087 5.14714 14.5777 5.90698 14.5374 5.90698C14.3542 5.90698 11.6692 5.1536 11.593 5.08085C11.5407 5.03092 12.1241 4.37849 13.0902 3.40675L14.673 1.8145H20.0087H25.3444L26.9109 3.45058ZM33.8527 4.28809C33.6388 4.39049 33.5052 4.66896 33.4189 5.19207C33.2828 6.01748 32.5045 7.09162 31.3449 8.05417C31.1087 8.25025 31.0042 8.41067 31.0042 8.5771C31.0042 8.88422 31.2999 9.18097 31.6059 9.18097C32.0415 9.18097 33.2646 8.10992 33.8648 7.20284C34.0054 6.99031 34.1467 6.81642 34.1786 6.81642C34.2107 6.81642 34.3132 6.9582 34.4066 7.13154C34.4999 7.30488 34.7992 7.67139 35.0717 7.94604C35.4008 8.27771 35.5429 8.48497 35.4951 8.56309C35.4554 8.62784 35.2828 8.86494 35.1115 9.09002C34.94 9.31511 34.6763 9.71808 34.5254 9.98546L34.251 10.4716L34.0307 10.1901C33.7683 9.85477 33.3736 9.81275 33.096 10.0904C32.8583 10.328 32.8665 10.5482 33.1326 11.0733C33.2528 11.3106 33.4412 11.8012 33.5512 12.1635C33.757 12.841 33.9004 13.0006 34.3036 13.0006C34.6158 13.0006 34.7712 12.7776 35.0006 12.0002C35.3253 10.8997 35.915 9.92298 36.8462 8.94333C37.1398 8.63457 37.1967 8.51571 37.1724 8.26189C37.1481 8.00779 37.0658 7.90402 36.6978 7.66384C35.7538 7.0476 35.1242 6.16617 34.7823 4.98244C34.7005 4.69897 34.5843 4.42778 34.5241 4.37967C34.3337 4.22752 34.0577 4.18987 33.8527 4.28809ZM22.1827 8.04489C22.1827 8.13202 20.0727 13.3188 20.0097 13.3864C19.9752 13.4235 19.4502 12.2264 18.843 10.7263L17.7391 7.99869H19.9609C21.1828 7.99869 22.1827 8.01952 22.1827 8.04489ZM10.269 11.9148C9.24361 12.4682 8.03633 13.1094 7.58616 13.3396C7.13598 13.5698 6.69609 13.8192 6.60851 13.8937C6.40225 14.0693 6.40225 14.5678 6.60851 14.7503C6.69609 14.8278 9.40731 16.3949 12.6336 18.233C15.8598 20.0711 18.5492 21.6204 18.61 21.6759C18.6934 21.7522 18.1124 22.1014 16.2485 23.0956C14.8888 23.8208 13.733 24.4256 13.68 24.4396C13.6269 24.4537 11.0269 22.9776 7.90201 21.1596C4.77717 19.3415 2.14097 17.8098 2.04385 17.7557C1.89115 17.6708 2.05812 17.5622 3.27159 16.9566C4.84501 16.1715 5.0852 15.9948 5.0852 15.6222C5.0852 15.3261 4.80263 15.0014 4.54508 15.0014C4.32781 15.0014 0.480064 16.959 0.196955 17.2136C-0.0483208 17.4341 -0.0656911 17.7313 0.151483 17.9904C0.327278 18.2002 13.1929 25.7073 13.5202 25.7911C13.671 25.8296 14.4575 25.4505 16.5213 24.3441L19.3179 22.8448L19.3418 26.2895C19.3549 28.1842 19.3549 31.2835 19.3418 33.1767L19.3179 36.6192L13.812 33.4723C10.7838 31.7415 8.15438 30.2348 7.96885 30.1239L7.63163 29.9223V27.1974C7.63163 24.8918 7.61053 24.4515 7.49467 24.3356C7.25076 24.0916 6.98993 24.0641 6.73401 24.2551L6.49483 24.4336L6.47091 27.4816C6.4489 30.284 6.45991 30.5444 6.60733 30.7119C6.69554 30.8121 9.59147 32.5024 13.0428 34.468C16.4941 36.4336 19.4155 38.1166 19.5348 38.2079C19.6542 38.2992 19.8446 38.374 19.9581 38.374C20.1798 38.374 33.1111 31.0251 33.4143 30.7267C33.5889 30.5549 33.5961 30.4275 33.5961 27.5411V24.5344L33.3814 24.3606C33.0931 24.1271 32.8599 24.1417 32.5917 24.41L32.3684 24.6332V27.308V29.9829L26.5803 33.2918C23.3968 35.1116 20.7569 36.6143 20.7138 36.6311C20.6704 36.6481 20.6459 33.4171 20.6588 29.3657L20.6821 22.0698L26.7753 18.5838C30.1266 16.6664 32.9241 15.0964 32.9919 15.095C33.0597 15.0935 34.2416 15.6709 35.6182 16.3781C37.2829 17.2332 38.0792 17.6877 37.9958 17.7349C37.9269 17.7739 35.2965 19.3029 32.1505 21.1327C29.0045 22.9624 26.404 24.4596 26.3717 24.4596C26.3395 24.4596 25.6648 24.1128 24.8726 23.6889C23.198 22.7929 23.1901 22.7898 22.8793 22.908C22.6205 23.0064 22.4942 23.3299 22.5806 23.6737C22.6528 23.9612 26.17 25.8698 26.4828 25.7913C26.8104 25.7089 39.6746 18.2031 39.8486 17.9928C40.0656 17.7305 40.0484 17.4343 39.8031 17.213C39.6905 17.1115 38.3707 16.4014 36.8701 15.6351C35.3696 14.8688 32.7325 13.4919 31.0099 12.5754C29.2668 11.6479 27.7746 10.9095 27.645 10.9103C27.3592 10.912 27.2437 10.9848 27.1031 11.2517C26.8668 11.7004 27.0786 11.8708 29.4378 13.1309C31.1574 14.0493 31.6188 14.3327 31.5289 14.4152C31.4654 14.4733 28.8479 15.9838 25.7121 17.7716L20.0108 21.0224L14.3231 17.7731C11.1949 15.9859 8.57426 14.4777 8.4996 14.4215C8.39001 14.3391 8.7998 14.088 10.6123 13.1268C13.0614 11.8281 13.1912 11.7187 12.9006 11.1983C12.6331 10.7196 12.3313 10.8019 10.269 11.9148ZM19.505 16.6587C19.3924 16.8193 19.3634 17.1348 19.3634 18.1981C19.3634 19.5345 19.3636 19.5355 19.603 19.7238C19.9008 19.9581 20.1005 19.9619 20.3764 19.7388C20.5773 19.5762 20.5932 19.4935 20.6218 18.4536C20.6679 16.78 20.5596 16.4565 19.9532 16.4565C19.7395 16.4565 19.6037 16.5177 19.505 16.6587Z" fill="#6377EE"/>
</svg>
