<svg width="35" height="33" viewBox="0 0 35 33" fill="none" xmlns="http://www.w3.org/2000/svg">
<mask id="path-1-inside-1_53_20" fill="white">
<path fill-rule="evenodd" clip-rule="evenodd" d="M16.7684 0.0609097C15.8486 0.242738 15.0608 1.00254 14.815 1.94505C14.7142 2.33161 14.7467 3.102 14.8818 3.52861C15.3295 4.94232 16.4013 5.88079 17.4701 5.79497C18.0056 5.75198 18.6851 5.32277 19.1078 4.76049C19.3633 4.42057 19.6645 3.79838 19.7672 3.39846C19.888 2.92759 19.8778 2.18549 19.7449 1.77988C19.4573 0.901891 18.6977 0.226338 17.8063 0.0557903C17.4101 -0.0200039 17.1718 -0.0188325 16.7684 0.0609097ZM18.0132 0.959984C18.3958 1.14784 18.6725 1.42364 18.8611 1.80504C19.0044 2.0949 19.0263 2.18102 19.0392 2.50693C19.0663 3.18903 18.7848 3.91392 18.2818 4.45719C17.6581 5.13087 17.0292 5.16133 16.3998 4.5483C15.6846 3.85166 15.3689 2.71683 15.668 1.91737C15.8294 1.4862 16.2307 1.10346 16.7134 0.920546C17.1078 0.771084 17.6629 0.787917 18.0132 0.959984ZM14.7871 5.80734C14.1732 5.91094 13.7117 6.15477 13.2963 6.59513C12.9479 6.96438 12.6891 7.47173 12.6032 7.95396C12.5268 8.38278 12.5147 10.0639 12.5864 10.2699C12.6839 10.5494 12.4332 10.5353 17.3336 10.5353H21.7861L21.9129 10.4085L22.0397 10.2817V9.17898C22.0397 8.21878 22.0285 8.03248 21.9531 7.73746C21.7085 6.78108 20.909 6.02023 19.9482 5.82938C19.4857 5.73749 18.9366 5.74187 18.7431 5.83897C18.6327 5.89437 18.4304 6.13707 17.9929 6.73912C17.6634 7.1925 17.3703 7.58622 17.3415 7.61403C17.301 7.65312 17.1418 7.46201 16.6417 6.77357C16.1458 6.09095 15.9609 5.86851 15.8513 5.82274C15.6962 5.75792 15.1286 5.74972 14.7871 5.80734ZM23.1644 5.97654C22.907 6.23399 23.0215 6.47734 23.5239 6.74008C25.2919 7.66471 26.9923 9.15573 28.1845 10.8269C29.1516 12.1825 29.8487 13.6805 30.2854 15.3413C30.3895 15.7372 30.4683 15.8283 30.7063 15.8283C30.8918 15.8283 31.0458 15.7257 31.1019 15.5647C31.1386 15.4597 31.1154 15.3236 30.9712 14.7975C30.3116 12.3903 28.9631 10.1349 27.1172 8.3515C26.2448 7.50874 25.0224 6.61335 24.0317 6.0916C23.4944 5.8086 23.3513 5.78964 23.1644 5.97654ZM10.3257 6.23039C8.36855 7.32864 6.59552 9.02071 5.32394 11.0038C4.61229 12.1136 3.97301 13.5482 3.62667 14.8125C3.40171 15.6335 3.3926 15.7369 3.53039 15.9006C3.66823 16.0645 3.86446 16.1117 4.03687 16.0225C4.13362 15.9725 4.17736 15.9046 4.22512 15.7302C4.25935 15.6052 4.35597 15.257 4.43992 14.9564C5.18489 12.2877 6.79683 9.86625 9.00375 8.10064C9.4524 7.74172 10.2918 7.17645 10.7486 6.92572C11.1958 6.68021 11.3106 6.50901 11.1883 6.26987C11.1135 6.12357 10.9679 6.02526 10.8246 6.02435C10.7485 6.02383 10.5415 6.1093 10.3257 6.23039ZM16.2261 7.56813C16.6198 8.10745 16.9972 8.59545 17.0646 8.65263C17.2149 8.77997 17.3923 8.78561 17.5421 8.66778C17.6041 8.61892 17.9807 8.13084 18.3789 7.58314L19.1029 6.58728H19.3371C20.0941 6.58728 20.7223 6.95323 21.0393 7.57889C21.1974 7.89087 21.2572 8.28703 21.2581 9.0277L21.2588 9.71102H17.3107H13.3627V8.96089C13.3627 7.90441 13.462 7.56692 13.9025 7.12643C14.2757 6.75327 14.6508 6.59947 15.2066 6.59179L15.5103 6.58758L16.2261 7.56813ZM15.949 13.5928C15.8839 13.663 15.7841 13.9266 15.6599 14.356L15.4701 15.0119L15.2645 15.1161L15.0588 15.2203L14.336 14.9346C13.647 14.6622 13.6065 14.6516 13.4692 14.7071C13.3648 14.7494 13.1497 14.9849 12.6891 15.5611C11.9157 16.5288 11.8442 16.6324 11.8442 16.7843C11.8442 16.8691 11.9705 17.0689 12.278 17.4706C12.738 18.0713 12.7463 18.093 12.6653 18.4707L12.6188 18.6877L11.9928 18.9971C11.3522 19.3136 11.2368 19.4066 11.2368 19.606C11.2368 19.6686 11.3354 20.1865 11.456 20.7569C11.7357 22.0801 11.6679 21.9996 12.5647 22.0731C12.9201 22.1023 13.2594 22.1407 13.3188 22.1587C13.3782 22.1765 13.4887 22.2775 13.5643 22.383L13.7019 22.5748L13.6204 23.2255C13.5182 24.0412 13.5176 24.0021 13.6338 24.1347C13.7422 24.2583 15.6735 25.2002 15.8139 25.1979C15.9567 25.1956 16.0592 25.1133 16.5275 24.6247L16.9747 24.1583L17.3054 24.1569L17.6361 24.1553L18.1191 24.6656C18.5759 25.1483 18.6113 25.1758 18.7699 25.1741C18.8913 25.1727 19.2138 25.0407 19.9356 24.697C20.7984 24.2861 20.9427 24.2033 21.002 24.0853C21.065 23.9601 21.064 23.8926 20.9899 23.2646L20.9092 22.5803L21.0502 22.3736C21.2102 22.1392 21.1695 22.1514 22.0608 22.0725C22.6966 22.0161 22.7902 21.9907 22.879 21.85C22.9286 21.7714 23.28 20.2064 23.3642 19.6896C23.4049 19.4393 23.3106 19.3516 22.6248 19.0017L21.9747 18.6701L21.9214 18.3731L21.8681 18.0761L22.2871 17.5273C22.7554 16.9139 22.8169 16.7959 22.7477 16.644C22.7055 16.5512 21.8589 15.4729 21.4033 14.9314C21.1273 14.6036 21.0933 14.6038 20.2678 14.9375L19.5652 15.2216L19.349 15.1121C19.2302 15.0518 19.1329 14.9974 19.1329 14.9911C19.1329 14.9849 19.0459 14.6896 18.9394 14.3349C18.819 13.9338 18.7096 13.6514 18.6498 13.5878L18.5538 13.4855H17.3011H16.0484L15.949 13.5928ZM18.1271 14.4617C18.1587 14.5572 18.2342 14.811 18.295 15.0257C18.3557 15.2405 18.4316 15.4582 18.4637 15.5095C18.5232 15.605 19.2495 16.0107 19.4515 16.0614C19.5329 16.0818 19.7432 16.0178 20.2212 15.8269C20.583 15.6824 20.8839 15.57 20.8898 15.577C21.2982 16.0584 21.8246 16.7588 21.8089 16.7999C21.7972 16.8303 21.6294 17.0622 21.4359 17.3152C21.2425 17.5681 21.0731 17.8308 21.0595 17.899C21.0315 18.0389 21.192 19.0081 21.2681 19.1591C21.3 19.2223 21.5317 19.3662 21.9129 19.5596L22.5078 19.8615L22.3672 20.5354C22.2899 20.906 22.2167 21.2192 22.2046 21.2313C22.1925 21.2434 21.8902 21.28 21.5327 21.3126C21.1636 21.3462 20.8411 21.3974 20.7861 21.431C20.7328 21.4635 20.5503 21.6828 20.3804 21.9184L20.0717 22.3466L20.1256 22.8512C20.1552 23.1287 20.1899 23.4249 20.2027 23.5096L20.2258 23.6635L19.5601 23.9804L18.8943 24.2972L18.4821 23.8646C18.2555 23.6267 18.0273 23.4099 17.9752 23.383C17.8537 23.3202 16.7743 23.3178 16.6463 23.3801C16.5941 23.4055 16.3655 23.622 16.1382 23.8614L15.7248 24.2966L15.0644 23.9823C14.3015 23.6191 14.3626 23.729 14.4737 22.9208C14.5216 22.5725 14.5302 22.384 14.501 22.3204C14.4218 22.1476 13.9309 21.5166 13.8184 21.4429C13.74 21.3915 13.5166 21.3524 13.0721 21.3122C12.7231 21.2807 12.4233 21.2395 12.4059 21.2207C12.3698 21.1818 12.0879 19.8647 12.1111 19.8434C12.1194 19.8359 12.3843 19.7007 12.6999 19.543C13.0204 19.3829 13.3013 19.2131 13.3364 19.1585C13.4363 19.0032 13.5917 17.9917 13.5376 17.8495C13.5131 17.7849 13.3271 17.5166 13.1244 17.2531L12.7559 16.7741L12.8408 16.6662C13.4479 15.8943 13.7358 15.5687 13.7922 15.5904C13.8273 15.6038 14.1362 15.7247 14.4787 15.859L15.1014 16.1032L15.5983 15.8559C16.1671 15.5729 16.1442 15.6026 16.3564 14.8739C16.4362 14.5995 16.5205 14.3501 16.5435 14.3197C16.5753 14.2779 16.7663 14.2673 17.3276 14.2763L18.0697 14.2882L18.1271 14.4617ZM16.6383 17.0818C16.113 17.2347 15.7323 17.4959 15.4238 17.9151C14.4136 19.2873 15.1023 21.1845 16.7682 21.6184C17.7802 21.882 18.9331 21.3418 19.4029 20.3838C19.5983 19.9853 19.6511 19.7646 19.6525 19.3408C19.6559 18.2953 18.9229 17.3227 17.9383 17.0663C17.5979 16.9776 16.9702 16.9851 16.6383 17.0818ZM17.691 17.8425C18.1733 17.9709 18.5771 18.3249 18.741 18.7629C18.8609 19.0833 18.8602 19.5603 18.7394 19.8831C18.6274 20.1823 18.3075 20.5396 17.9979 20.711C17.7846 20.8292 17.732 20.8394 17.3324 20.8394C16.9529 20.8394 16.8676 20.8249 16.6515 20.7235C16.3362 20.5757 16.0342 20.2737 15.8864 19.9585C15.7888 19.7503 15.7708 19.6532 15.7718 19.3426C15.7729 19.0382 15.7928 18.9312 15.8861 18.73C16.2187 18.0128 16.9604 17.6481 17.691 17.8425ZM4.23007 17.9118C3.33694 18.0911 2.5619 18.791 2.28736 19.6661C2.15235 20.0965 2.1546 20.7824 2.2927 21.2949C2.40324 21.7052 2.6544 22.2388 2.8846 22.5524C3.1316 22.8888 3.61261 23.3131 3.91119 23.4579C4.48886 23.7379 5.03769 23.7316 5.59766 23.4384C6.28354 23.0793 6.81588 22.4052 7.11979 21.5109C7.23611 21.1686 7.26283 21.0159 7.27915 20.5996C7.31273 19.7431 7.10812 19.2044 6.52984 18.6267C6.14592 18.2432 5.80348 18.0453 5.33062 17.9339C5.03695 17.8646 4.51702 17.8542 4.23007 17.9118ZM29.2004 17.954C28.0359 18.2693 27.2182 19.4214 27.3064 20.6224C27.4313 22.322 28.8105 23.8293 30.0836 23.6576C31.0537 23.5268 31.9892 22.5324 32.327 21.2732C32.468 20.7476 32.4615 20.0759 32.3112 19.6534C32.026 18.8516 31.4481 18.2559 30.7048 17.9978C30.304 17.8586 29.6256 17.8389 29.2004 17.954ZM5.3147 18.7641C5.89767 18.9663 6.35994 19.5417 6.46871 20.2003C6.5383 20.6216 6.44198 21.0939 6.17481 21.642C6.01338 21.9732 5.90899 22.1193 5.64334 22.3858C5.37128 22.6587 5.27123 22.7297 5.07808 22.7871C4.94901 22.8254 4.77373 22.8566 4.68856 22.8563C4.43689 22.8556 4.0921 22.6647 3.80125 22.365C3.48762 22.0418 3.29034 21.7239 3.13285 21.2877C3.03307 21.0114 3.01775 20.9009 3.01662 20.4489C3.01537 19.9585 3.02261 19.9138 3.14175 19.6786C3.28592 19.3939 3.66727 19.0086 3.94516 18.8668C4.35441 18.658 4.89256 18.6177 5.3147 18.7641ZM30.4891 18.7873C31.1346 19.0262 31.6291 19.7549 31.6272 20.4643C31.6254 21.1634 31.1621 22.1317 30.6264 22.5559C30.0561 23.0077 29.4905 22.9389 28.9072 22.347C28.3969 21.8291 28.0813 20.9933 28.1274 20.2818C28.2012 19.1422 29.3995 18.3839 30.4891 18.7873ZM1.9611 23.7254C1.49836 23.8466 1.14923 24.048 0.799071 24.3956C0.433463 24.7586 0.205343 25.1482 0.0866405 25.6122C0.0112803 25.907 0 26.0935 0 27.048V28.1449L0.104689 28.2667L0.209421 28.3884L4.70219 28.3998L9.195 28.4113L9.33734 28.2842L9.47969 28.1571L9.49292 27.1928C9.50681 26.1814 9.47123 25.7923 9.32732 25.383C9.06736 24.6433 8.44157 24.0288 7.6792 23.7645C7.32865 23.643 6.34189 23.5952 6.16115 23.691C6.10171 23.7225 5.76942 24.1368 5.42264 24.6117C5.07591 25.0865 4.77308 25.4809 4.74974 25.4881C4.7264 25.4953 4.42422 25.1128 4.07822 24.6382C3.73222 24.1636 3.39733 23.7443 3.33399 23.7065C3.165 23.6056 2.37713 23.6164 1.9611 23.7254ZM27.1665 23.7042C26.226 23.9084 25.4576 24.6747 25.2057 25.6599C25.132 25.9479 25.1201 26.1414 25.1201 27.0533C25.1201 27.6965 25.1376 28.1449 25.1648 28.1955C25.2833 28.417 25.1309 28.4101 29.8708 28.4101C34.6594 28.4101 34.4568 28.4203 34.5696 28.1727C34.6485 27.9996 34.6384 26.1334 34.5564 25.7419C34.3529 24.769 33.5933 23.9664 32.647 23.7243C32.2333 23.6186 31.4719 23.604 31.2894 23.6984C31.222 23.7332 30.9045 24.1293 30.5431 24.6295C30.1972 25.1083 29.8947 25.4944 29.8708 25.4876C29.8469 25.4808 29.5497 25.0959 29.2103 24.6324C28.8708 24.1688 28.5389 23.7555 28.4727 23.7138C28.3221 23.6192 27.5835 23.6137 27.1665 23.7042ZM3.69443 25.4816C4.09579 26.0304 4.47815 26.5135 4.54405 26.5552C4.84002 26.7421 4.92762 26.6669 5.77558 25.4984L6.52771 24.462H6.81232C7.15771 24.462 7.53577 24.5553 7.78697 24.7026C8.03153 24.8459 8.33926 25.1782 8.47276 25.4433C8.63611 25.7675 8.67706 26.0496 8.67706 26.8506V27.5862L4.73985 27.5751L0.802628 27.5641L0.790611 26.8969C0.784016 26.5299 0.798767 26.1206 0.82341 25.9873C0.889833 25.628 1.09448 25.229 1.33644 24.987C1.70439 24.6191 2.09942 24.4616 2.62117 24.475L2.96465 24.4837L3.69443 25.4816ZM28.8462 25.5029C29.651 26.6083 29.725 26.6793 29.9915 26.6031C30.1087 26.5697 30.253 26.3944 30.8903 25.5108L31.6496 24.4583L32.0401 24.4775C32.4896 24.4995 32.7282 24.5744 33.0492 24.7941C33.3378 24.9918 33.5609 25.2945 33.6924 25.6673C33.7865 25.9338 33.7954 26.0285 33.7962 26.7723L33.7972 27.5858H29.8677H25.9381L25.9521 26.6855C25.9657 25.8128 25.9697 25.7776 26.0831 25.5357C26.219 25.2457 26.5778 24.8484 26.8456 24.6914C27.1274 24.5263 27.362 24.4679 27.7449 24.4674L28.092 24.467L28.8462 25.5029ZM10.1777 30.279C10.0253 30.46 10.028 30.6581 10.1847 30.8055C10.2503 30.8672 10.5858 31.0583 10.9302 31.23C12.4127 31.9695 13.8854 32.4141 15.6187 32.6456C16.3478 32.7429 18.1415 32.7563 18.8292 32.6694C20.6171 32.4436 22.1932 31.9799 23.641 31.2538C24.1703 30.9884 24.3164 30.8486 24.2776 30.6451C24.247 30.4849 24.0271 30.2757 23.8894 30.2757C23.8337 30.2757 23.4874 30.42 23.12 30.5963C21.7568 31.2505 20.4206 31.639 18.8292 31.844C18.2382 31.92 16.3989 31.9214 15.7923 31.8461C14.1335 31.6403 12.3838 31.1009 11.037 30.3801C10.5085 30.0973 10.3467 30.0782 10.1777 30.279Z"/>
</mask>
<path fill-rule="evenodd" clip-rule="evenodd" d="M16.7684 0.0609097C15.8486 0.242738 15.0608 1.00254 14.815 1.94505C14.7142 2.33161 14.7467 3.102 14.8818 3.52861C15.3295 4.94232 16.4013 5.88079 17.4701 5.79497C18.0056 5.75198 18.6851 5.32277 19.1078 4.76049C19.3633 4.42057 19.6645 3.79838 19.7672 3.39846C19.888 2.92759 19.8778 2.18549 19.7449 1.77988C19.4573 0.901891 18.6977 0.226338 17.8063 0.0557903C17.4101 -0.0200039 17.1718 -0.0188325 16.7684 0.0609097ZM18.0132 0.959984C18.3958 1.14784 18.6725 1.42364 18.8611 1.80504C19.0044 2.0949 19.0263 2.18102 19.0392 2.50693C19.0663 3.18903 18.7848 3.91392 18.2818 4.45719C17.6581 5.13087 17.0292 5.16133 16.3998 4.5483C15.6846 3.85166 15.3689 2.71683 15.668 1.91737C15.8294 1.4862 16.2307 1.10346 16.7134 0.920546C17.1078 0.771084 17.6629 0.787917 18.0132 0.959984ZM14.7871 5.80734C14.1732 5.91094 13.7117 6.15477 13.2963 6.59513C12.9479 6.96438 12.6891 7.47173 12.6032 7.95396C12.5268 8.38278 12.5147 10.0639 12.5864 10.2699C12.6839 10.5494 12.4332 10.5353 17.3336 10.5353H21.7861L21.9129 10.4085L22.0397 10.2817V9.17898C22.0397 8.21878 22.0285 8.03248 21.9531 7.73746C21.7085 6.78108 20.909 6.02023 19.9482 5.82938C19.4857 5.73749 18.9366 5.74187 18.7431 5.83897C18.6327 5.89437 18.4304 6.13707 17.9929 6.73912C17.6634 7.1925 17.3703 7.58622 17.3415 7.61403C17.301 7.65312 17.1418 7.46201 16.6417 6.77357C16.1458 6.09095 15.9609 5.86851 15.8513 5.82274C15.6962 5.75792 15.1286 5.74972 14.7871 5.80734ZM23.1644 5.97654C22.907 6.23399 23.0215 6.47734 23.5239 6.74008C25.2919 7.66471 26.9923 9.15573 28.1845 10.8269C29.1516 12.1825 29.8487 13.6805 30.2854 15.3413C30.3895 15.7372 30.4683 15.8283 30.7063 15.8283C30.8918 15.8283 31.0458 15.7257 31.1019 15.5647C31.1386 15.4597 31.1154 15.3236 30.9712 14.7975C30.3116 12.3903 28.9631 10.1349 27.1172 8.3515C26.2448 7.50874 25.0224 6.61335 24.0317 6.0916C23.4944 5.8086 23.3513 5.78964 23.1644 5.97654ZM10.3257 6.23039C8.36855 7.32864 6.59552 9.02071 5.32394 11.0038C4.61229 12.1136 3.97301 13.5482 3.62667 14.8125C3.40171 15.6335 3.3926 15.7369 3.53039 15.9006C3.66823 16.0645 3.86446 16.1117 4.03687 16.0225C4.13362 15.9725 4.17736 15.9046 4.22512 15.7302C4.25935 15.6052 4.35597 15.257 4.43992 14.9564C5.18489 12.2877 6.79683 9.86625 9.00375 8.10064C9.4524 7.74172 10.2918 7.17645 10.7486 6.92572C11.1958 6.68021 11.3106 6.50901 11.1883 6.26987C11.1135 6.12357 10.9679 6.02526 10.8246 6.02435C10.7485 6.02383 10.5415 6.1093 10.3257 6.23039ZM16.2261 7.56813C16.6198 8.10745 16.9972 8.59545 17.0646 8.65263C17.2149 8.77997 17.3923 8.78561 17.5421 8.66778C17.6041 8.61892 17.9807 8.13084 18.3789 7.58314L19.1029 6.58728H19.3371C20.0941 6.58728 20.7223 6.95323 21.0393 7.57889C21.1974 7.89087 21.2572 8.28703 21.2581 9.0277L21.2588 9.71102H17.3107H13.3627V8.96089C13.3627 7.90441 13.462 7.56692 13.9025 7.12643C14.2757 6.75327 14.6508 6.59947 15.2066 6.59179L15.5103 6.58758L16.2261 7.56813ZM15.949 13.5928C15.8839 13.663 15.7841 13.9266 15.6599 14.356L15.4701 15.0119L15.2645 15.1161L15.0588 15.2203L14.336 14.9346C13.647 14.6622 13.6065 14.6516 13.4692 14.7071C13.3648 14.7494 13.1497 14.9849 12.6891 15.5611C11.9157 16.5288 11.8442 16.6324 11.8442 16.7843C11.8442 16.8691 11.9705 17.0689 12.278 17.4706C12.738 18.0713 12.7463 18.093 12.6653 18.4707L12.6188 18.6877L11.9928 18.9971C11.3522 19.3136 11.2368 19.4066 11.2368 19.606C11.2368 19.6686 11.3354 20.1865 11.456 20.7569C11.7357 22.0801 11.6679 21.9996 12.5647 22.0731C12.9201 22.1023 13.2594 22.1407 13.3188 22.1587C13.3782 22.1765 13.4887 22.2775 13.5643 22.383L13.7019 22.5748L13.6204 23.2255C13.5182 24.0412 13.5176 24.0021 13.6338 24.1347C13.7422 24.2583 15.6735 25.2002 15.8139 25.1979C15.9567 25.1956 16.0592 25.1133 16.5275 24.6247L16.9747 24.1583L17.3054 24.1569L17.6361 24.1553L18.1191 24.6656C18.5759 25.1483 18.6113 25.1758 18.7699 25.1741C18.8913 25.1727 19.2138 25.0407 19.9356 24.697C20.7984 24.2861 20.9427 24.2033 21.002 24.0853C21.065 23.9601 21.064 23.8926 20.9899 23.2646L20.9092 22.5803L21.0502 22.3736C21.2102 22.1392 21.1695 22.1514 22.0608 22.0725C22.6966 22.0161 22.7902 21.9907 22.879 21.85C22.9286 21.7714 23.28 20.2064 23.3642 19.6896C23.4049 19.4393 23.3106 19.3516 22.6248 19.0017L21.9747 18.6701L21.9214 18.3731L21.8681 18.0761L22.2871 17.5273C22.7554 16.9139 22.8169 16.7959 22.7477 16.644C22.7055 16.5512 21.8589 15.4729 21.4033 14.9314C21.1273 14.6036 21.0933 14.6038 20.2678 14.9375L19.5652 15.2216L19.349 15.1121C19.2302 15.0518 19.1329 14.9974 19.1329 14.9911C19.1329 14.9849 19.0459 14.6896 18.9394 14.3349C18.819 13.9338 18.7096 13.6514 18.6498 13.5878L18.5538 13.4855H17.3011H16.0484L15.949 13.5928ZM18.1271 14.4617C18.1587 14.5572 18.2342 14.811 18.295 15.0257C18.3557 15.2405 18.4316 15.4582 18.4637 15.5095C18.5232 15.605 19.2495 16.0107 19.4515 16.0614C19.5329 16.0818 19.7432 16.0178 20.2212 15.8269C20.583 15.6824 20.8839 15.57 20.8898 15.577C21.2982 16.0584 21.8246 16.7588 21.8089 16.7999C21.7972 16.8303 21.6294 17.0622 21.4359 17.3152C21.2425 17.5681 21.0731 17.8308 21.0595 17.899C21.0315 18.0389 21.192 19.0081 21.2681 19.1591C21.3 19.2223 21.5317 19.3662 21.9129 19.5596L22.5078 19.8615L22.3672 20.5354C22.2899 20.906 22.2167 21.2192 22.2046 21.2313C22.1925 21.2434 21.8902 21.28 21.5327 21.3126C21.1636 21.3462 20.8411 21.3974 20.7861 21.431C20.7328 21.4635 20.5503 21.6828 20.3804 21.9184L20.0717 22.3466L20.1256 22.8512C20.1552 23.1287 20.1899 23.4249 20.2027 23.5096L20.2258 23.6635L19.5601 23.9804L18.8943 24.2972L18.4821 23.8646C18.2555 23.6267 18.0273 23.4099 17.9752 23.383C17.8537 23.3202 16.7743 23.3178 16.6463 23.3801C16.5941 23.4055 16.3655 23.622 16.1382 23.8614L15.7248 24.2966L15.0644 23.9823C14.3015 23.6191 14.3626 23.729 14.4737 22.9208C14.5216 22.5725 14.5302 22.384 14.501 22.3204C14.4218 22.1476 13.9309 21.5166 13.8184 21.4429C13.74 21.3915 13.5166 21.3524 13.0721 21.3122C12.7231 21.2807 12.4233 21.2395 12.4059 21.2207C12.3698 21.1818 12.0879 19.8647 12.1111 19.8434C12.1194 19.8359 12.3843 19.7007 12.6999 19.543C13.0204 19.3829 13.3013 19.2131 13.3364 19.1585C13.4363 19.0032 13.5917 17.9917 13.5376 17.8495C13.5131 17.7849 13.3271 17.5166 13.1244 17.2531L12.7559 16.7741L12.8408 16.6662C13.4479 15.8943 13.7358 15.5687 13.7922 15.5904C13.8273 15.6038 14.1362 15.7247 14.4787 15.859L15.1014 16.1032L15.5983 15.8559C16.1671 15.5729 16.1442 15.6026 16.3564 14.8739C16.4362 14.5995 16.5205 14.3501 16.5435 14.3197C16.5753 14.2779 16.7663 14.2673 17.3276 14.2763L18.0697 14.2882L18.1271 14.4617ZM16.6383 17.0818C16.113 17.2347 15.7323 17.4959 15.4238 17.9151C14.4136 19.2873 15.1023 21.1845 16.7682 21.6184C17.7802 21.882 18.9331 21.3418 19.4029 20.3838C19.5983 19.9853 19.6511 19.7646 19.6525 19.3408C19.6559 18.2953 18.9229 17.3227 17.9383 17.0663C17.5979 16.9776 16.9702 16.9851 16.6383 17.0818ZM17.691 17.8425C18.1733 17.9709 18.5771 18.3249 18.741 18.7629C18.8609 19.0833 18.8602 19.5603 18.7394 19.8831C18.6274 20.1823 18.3075 20.5396 17.9979 20.711C17.7846 20.8292 17.732 20.8394 17.3324 20.8394C16.9529 20.8394 16.8676 20.8249 16.6515 20.7235C16.3362 20.5757 16.0342 20.2737 15.8864 19.9585C15.7888 19.7503 15.7708 19.6532 15.7718 19.3426C15.7729 19.0382 15.7928 18.9312 15.8861 18.73C16.2187 18.0128 16.9604 17.6481 17.691 17.8425ZM4.23007 17.9118C3.33694 18.0911 2.5619 18.791 2.28736 19.6661C2.15235 20.0965 2.1546 20.7824 2.2927 21.2949C2.40324 21.7052 2.6544 22.2388 2.8846 22.5524C3.1316 22.8888 3.61261 23.3131 3.91119 23.4579C4.48886 23.7379 5.03769 23.7316 5.59766 23.4384C6.28354 23.0793 6.81588 22.4052 7.11979 21.5109C7.23611 21.1686 7.26283 21.0159 7.27915 20.5996C7.31273 19.7431 7.10812 19.2044 6.52984 18.6267C6.14592 18.2432 5.80348 18.0453 5.33062 17.9339C5.03695 17.8646 4.51702 17.8542 4.23007 17.9118ZM29.2004 17.954C28.0359 18.2693 27.2182 19.4214 27.3064 20.6224C27.4313 22.322 28.8105 23.8293 30.0836 23.6576C31.0537 23.5268 31.9892 22.5324 32.327 21.2732C32.468 20.7476 32.4615 20.0759 32.3112 19.6534C32.026 18.8516 31.4481 18.2559 30.7048 17.9978C30.304 17.8586 29.6256 17.8389 29.2004 17.954ZM5.3147 18.7641C5.89767 18.9663 6.35994 19.5417 6.46871 20.2003C6.5383 20.6216 6.44198 21.0939 6.17481 21.642C6.01338 21.9732 5.90899 22.1193 5.64334 22.3858C5.37128 22.6587 5.27123 22.7297 5.07808 22.7871C4.94901 22.8254 4.77373 22.8566 4.68856 22.8563C4.43689 22.8556 4.0921 22.6647 3.80125 22.365C3.48762 22.0418 3.29034 21.7239 3.13285 21.2877C3.03307 21.0114 3.01775 20.9009 3.01662 20.4489C3.01537 19.9585 3.02261 19.9138 3.14175 19.6786C3.28592 19.3939 3.66727 19.0086 3.94516 18.8668C4.35441 18.658 4.89256 18.6177 5.3147 18.7641ZM30.4891 18.7873C31.1346 19.0262 31.6291 19.7549 31.6272 20.4643C31.6254 21.1634 31.1621 22.1317 30.6264 22.5559C30.0561 23.0077 29.4905 22.9389 28.9072 22.347C28.3969 21.8291 28.0813 20.9933 28.1274 20.2818C28.2012 19.1422 29.3995 18.3839 30.4891 18.7873ZM1.9611 23.7254C1.49836 23.8466 1.14923 24.048 0.799071 24.3956C0.433463 24.7586 0.205343 25.1482 0.0866405 25.6122C0.0112803 25.907 0 26.0935 0 27.048V28.1449L0.104689 28.2667L0.209421 28.3884L4.70219 28.3998L9.195 28.4113L9.33734 28.2842L9.47969 28.1571L9.49292 27.1928C9.50681 26.1814 9.47123 25.7923 9.32732 25.383C9.06736 24.6433 8.44157 24.0288 7.6792 23.7645C7.32865 23.643 6.34189 23.5952 6.16115 23.691C6.10171 23.7225 5.76942 24.1368 5.42264 24.6117C5.07591 25.0865 4.77308 25.4809 4.74974 25.4881C4.7264 25.4953 4.42422 25.1128 4.07822 24.6382C3.73222 24.1636 3.39733 23.7443 3.33399 23.7065C3.165 23.6056 2.37713 23.6164 1.9611 23.7254ZM27.1665 23.7042C26.226 23.9084 25.4576 24.6747 25.2057 25.6599C25.132 25.9479 25.1201 26.1414 25.1201 27.0533C25.1201 27.6965 25.1376 28.1449 25.1648 28.1955C25.2833 28.417 25.1309 28.4101 29.8708 28.4101C34.6594 28.4101 34.4568 28.4203 34.5696 28.1727C34.6485 27.9996 34.6384 26.1334 34.5564 25.7419C34.3529 24.769 33.5933 23.9664 32.647 23.7243C32.2333 23.6186 31.4719 23.604 31.2894 23.6984C31.222 23.7332 30.9045 24.1293 30.5431 24.6295C30.1972 25.1083 29.8947 25.4944 29.8708 25.4876C29.8469 25.4808 29.5497 25.0959 29.2103 24.6324C28.8708 24.1688 28.5389 23.7555 28.4727 23.7138C28.3221 23.6192 27.5835 23.6137 27.1665 23.7042ZM3.69443 25.4816C4.09579 26.0304 4.47815 26.5135 4.54405 26.5552C4.84002 26.7421 4.92762 26.6669 5.77558 25.4984L6.52771 24.462H6.81232C7.15771 24.462 7.53577 24.5553 7.78697 24.7026C8.03153 24.8459 8.33926 25.1782 8.47276 25.4433C8.63611 25.7675 8.67706 26.0496 8.67706 26.8506V27.5862L4.73985 27.5751L0.802628 27.5641L0.790611 26.8969C0.784016 26.5299 0.798767 26.1206 0.82341 25.9873C0.889833 25.628 1.09448 25.229 1.33644 24.987C1.70439 24.6191 2.09942 24.4616 2.62117 24.475L2.96465 24.4837L3.69443 25.4816ZM28.8462 25.5029C29.651 26.6083 29.725 26.6793 29.9915 26.6031C30.1087 26.5697 30.253 26.3944 30.8903 25.5108L31.6496 24.4583L32.0401 24.4775C32.4896 24.4995 32.7282 24.5744 33.0492 24.7941C33.3378 24.9918 33.5609 25.2945 33.6924 25.6673C33.7865 25.9338 33.7954 26.0285 33.7962 26.7723L33.7972 27.5858H29.8677H25.9381L25.9521 26.6855C25.9657 25.8128 25.9697 25.7776 26.0831 25.5357C26.219 25.2457 26.5778 24.8484 26.8456 24.6914C27.1274 24.5263 27.362 24.4679 27.7449 24.4674L28.092 24.467L28.8462 25.5029ZM10.1777 30.279C10.0253 30.46 10.028 30.6581 10.1847 30.8055C10.2503 30.8672 10.5858 31.0583 10.9302 31.23C12.4127 31.9695 13.8854 32.4141 15.6187 32.6456C16.3478 32.7429 18.1415 32.7563 18.8292 32.6694C20.6171 32.4436 22.1932 31.9799 23.641 31.2538C24.1703 30.9884 24.3164 30.8486 24.2776 30.6451C24.247 30.4849 24.0271 30.2757 23.8894 30.2757C23.8337 30.2757 23.4874 30.42 23.12 30.5963C21.7568 31.2505 20.4206 31.639 18.8292 31.844C18.2382 31.92 16.3989 31.9214 15.7923 31.8461C14.1335 31.6403 12.3838 31.1009 11.037 30.3801C10.5085 30.0973 10.3467 30.0782 10.1777 30.279Z" fill="#6377EE" stroke="#6377EE" stroke-width="4" mask="url(#path-1-inside-1_53_20)"/>
</svg>
